<?xml version="1.0" encoding="UTF-8" standalone="yes"?>
                 <!DOCTYPE svg PUBLIC "-//W3C//DTD SVG 1.0//EN" "http://www.w3.org/TR/2001/REC-SVG-20010904/DTD/svg10.dtd">
                 <svg height="170" width="1320" xmlns="http://www.w3.org/2000/svg" xmlns:xlink="http://www.w3.org/1999/xlink">
                 <line x1="85" y1="120" x2="1287" y2="120" style="stroke:rgb(99,99,99);stroke-width:2" />
<rect height="7.000000" width="2.000000" x="85.000000" y="120.000000" fill="rgb(0, 0, 0)" style="fill-opacity:1.00" />
<text x="107.000000" y="140">
1
</text>
<rect height="7.000000" width="2.000000" x="145.000000" y="120.000000" fill="rgb(0, 0, 0)" style="fill-opacity:1.00" />
<text x="167.000000" y="140">
2
</text>
<rect height="7.000000" width="2.000000" x="205.000000" y="120.000000" fill="rgb(0, 0, 0)" style="fill-opacity:1.00" />
<text x="227.000000" y="140">
3
</text>
<rect height="7.000000" width="2.000000" x="265.000000" y="120.000000" fill="rgb(0, 0, 0)" style="fill-opacity:1.00" />
<text x="287.000000" y="140">
4
</text>
<rect height="7.000000" width="2.000000" x="325.000000" y="120.000000" fill="rgb(0, 0, 0)" style="fill-opacity:1.00" />
<text x="347.000000" y="140">
5
</text>
<rect height="7.000000" width="2.000000" x="385.000000" y="120.000000" fill="rgb(0, 0, 0)" style="fill-opacity:1.00" />
<text x="407.000000" y="140">
6
</text>
<rect height="7.000000" width="2.000000" x="445.000000" y="120.000000" fill="rgb(0, 0, 0)" style="fill-opacity:1.00" />
<text x="467.000000" y="140">
7
</text>
<rect height="7.000000" width="2.000000" x="505.000000" y="120.000000" fill="rgb(0, 0, 0)" style="fill-opacity:1.00" />
<text x="527.000000" y="140">
8
</text>
<rect height="7.000000" width="2.000000" x="565.000000" y="120.000000" fill="rgb(0, 0, 0)" style="fill-opacity:1.00" />
<text x="587.000000" y="140">
9
</text>
<rect height="7.000000" width="2.000000" x="625.000000" y="120.000000" fill="rgb(0, 0, 0)" style="fill-opacity:1.00" />
<text x="647.000000" y="140">
10
</text>
<rect height="7.000000" width="2.000000" x="685.000000" y="120.000000" fill="rgb(0, 0, 0)" style="fill-opacity:1.00" />
<text x="707.000000" y="140">
11
</text>
<rect height="7.000000" width="2.000000" x="745.000000" y="120.000000" fill="rgb(0, 0, 0)" style="fill-opacity:1.00" />
<text x="767.000000" y="140">
12
</text>
<rect height="7.000000" width="2.000000" x="805.000000" y="120.000000" fill="rgb(0, 0, 0)" style="fill-opacity:1.00" />
<text x="827.000000" y="140">
13
</text>
<rect height="7.000000" width="2.000000" x="865.000000" y="120.000000" fill="rgb(0, 0, 0)" style="fill-opacity:1.00" />
<text x="887.000000" y="140">
14
</text>
<rect height="7.000000" width="2.000000" x="925.000000" y="120.000000" fill="rgb(0, 0, 0)" style="fill-opacity:1.00" />
<text x="947.000000" y="140">
15
</text>
<rect height="7.000000" width="2.000000" x="985.000000" y="120.000000" fill="rgb(0, 0, 0)" style="fill-opacity:1.00" />
<text x="1007.000000" y="140">
16
</text>
<rect height="7.000000" width="2.000000" x="1045.000000" y="120.000000" fill="rgb(0, 0, 0)" style="fill-opacity:1.00" />
<text x="1067.000000" y="140">
17
</text>
<rect height="7.000000" width="2.000000" x="1105.000000" y="120.000000" fill="rgb(0, 0, 0)" style="fill-opacity:1.00" />
<text x="1127.000000" y="140">
18
</text>
<rect height="7.000000" width="2.000000" x="1165.000000" y="120.000000" fill="rgb(0, 0, 0)" style="fill-opacity:1.00" />
<text x="1187.000000" y="140">
19
</text>
<rect height="7.000000" width="2.000000" x="1225.000000" y="120.000000" fill="rgb(0, 0, 0)" style="fill-opacity:1.00" />
<text x="1247.000000" y="140">
20
</text>
<rect height="7.000000" width="2.000000" x="1285.000000" y="120.000000" fill="rgb(0, 0, 0)" style="fill-opacity:1.00" />
<line x1="80" y1="112" x2="80" y2="10" style="stroke:rgb(99,99,99);stroke-width:2" />
<rect height="2.000000" width="7.000000" x="73.000000" y="110.000000" fill="rgb(0, 0, 0)" style="fill-opacity:1.00" />
<text x="63" y="115">
0
</text>
<rect height="2.000000" width="7.000000" x="73.000000" y="60.000000" fill="rgb(0, 0, 0)" style="fill-opacity:1.00" />
<text x="63" y="65">
1
</text>
<rect height="2.000000" width="7.000000" x="73.000000" y="10.000000" fill="rgb(0, 0, 0)" style="fill-opacity:1.00" />
<text x="63" y="15">
2
</text>
<text x="50" y="65"
transform="rotate(-90, 50, 70)">
bits
</text>
<!-- Begin 'C' -->
<ellipse cx="115.000000" cy="108.290228" rx="25.000000" ry="0.352949" fill="rgb(0, 0, 128)" style="fill-opacity:1.00" />
<ellipse cx="115.000000" cy="108.290228" rx="16.666667" ry="0.235300" fill="rgb(255, 255, 255)" style="fill-opacity:1.00" />
<rect height="0.352949" width="25.000000" x="115.000000" y="108.113754" fill="rgb(255, 255, 255)" style="fill-opacity:1.00" />
<!-- End 'C' -->
<!-- Begin 'T' -->
<rect height="0.083859" width="50.000000" x="90.000000" y="108.643178" fill="rgb(0, 100, 0)" style="fill-opacity:1.00" />
<rect height="0.524119" width="10.000000" x="110.000000" y="108.643178" fill="rgb(0, 100, 0)" style="fill-opacity:1.00" />
<!-- End 'T' -->
<!-- Begin 'A' -->
<polygon points=" 90.000000, 109.637550, 111.000000, 109.167296, 119.000000, 109.167296, 140.000000, 109.637550, 132.500000, 109.637550, 126.250000, 109.519987, 103.750000, 109.519987, 97.500000, 109.637550" fill="rgb(178, 34, 34)" style="fill-opacity:1.00" />
<!-- End 'A' -->
<!-- Begin 'G' -->
<ellipse cx="115.000000" cy="109.818775" rx="25.000000" ry="0.181225" fill="rgb(255, 165, 0)" style="fill-opacity:1.00" />
<ellipse cx="115.000000" cy="109.818775" rx="16.666667" ry="0.120817" fill="rgb(255, 255, 255)" style="fill-opacity:1.00" />
<rect height="0.181225" width="25.000000" x="115.000000" y="109.728163" fill="rgb(255, 255, 255)" style="fill-opacity:1.00" />
<rect height="0.045306" width="25.000000" x="115.000000" y="109.864081" fill="rgb(255, 165, 0)" style="fill-opacity:1.00" />
<rect height="0.135919" width="6.250000" x="133.750000" y="109.864081" fill="rgb(255, 165, 0)" style="fill-opacity:1.00" />
<!-- End 'G' -->
<!-- Begin 'G' -->
<ellipse cx="175.000000" cy="108.420473" rx="25.000000" ry="0.316729" fill="rgb(255, 165, 0)" style="fill-opacity:1.00" />
<ellipse cx="175.000000" cy="108.420473" rx="16.666667" ry="0.211153" fill="rgb(255, 255, 255)" style="fill-opacity:1.00" />
<rect height="0.316729" width="25.000000" x="175.000000" y="108.262108" fill="rgb(255, 255, 255)" style="fill-opacity:1.00" />
<rect height="0.079182" width="25.000000" x="175.000000" y="108.499655" fill="rgb(255, 165, 0)" style="fill-opacity:1.00" />
<rect height="0.237547" width="6.250000" x="193.750000" y="108.499655" fill="rgb(255, 165, 0)" style="fill-opacity:1.00" />
<!-- End 'G' -->
<!-- Begin 'A' -->
<polygon points=" 150.000000, 109.234280, 171.000000, 108.737202, 179.000000, 108.737202, 200.000000, 109.234280, 192.500000, 109.234280, 186.250000, 109.110011, 163.750000, 109.110011, 157.500000, 109.234280" fill="rgb(178, 34, 34)" style="fill-opacity:1.00" />
<!-- End 'A' -->
<!-- Begin 'T' -->
<rect height="0.069098" width="50.000000" x="150.000000" y="109.234280" fill="rgb(0, 100, 0)" style="fill-opacity:1.00" />
<rect height="0.431862" width="10.000000" x="170.000000" y="109.234280" fill="rgb(0, 100, 0)" style="fill-opacity:1.00" />
<!-- End 'T' -->
<!-- Begin 'C' -->
<ellipse cx="175.000000" cy="109.833071" rx="25.000000" ry="0.166929" fill="rgb(0, 0, 128)" style="fill-opacity:1.00" />
<ellipse cx="175.000000" cy="109.833071" rx="16.666667" ry="0.111286" fill="rgb(255, 255, 255)" style="fill-opacity:1.00" />
<rect height="0.166929" width="25.000000" x="175.000000" y="109.749607" fill="rgb(255, 255, 255)" style="fill-opacity:1.00" />
<!-- End 'C' -->
<!-- Begin 'C' -->
<ellipse cx="235.000000" cy="109.778746" rx="25.000000" ry="0.036028" fill="rgb(0, 0, 128)" style="fill-opacity:1.00" />
<ellipse cx="235.000000" cy="109.778746" rx="16.666667" ry="0.024019" fill="rgb(255, 255, 255)" style="fill-opacity:1.00" />
<rect height="0.036028" width="25.000000" x="235.000000" y="109.760732" fill="rgb(255, 255, 255)" style="fill-opacity:1.00" />
<!-- End 'C' -->
<!-- Begin 'G' -->
<ellipse cx="235.000000" cy="109.848157" rx="25.000000" ry="0.033382" fill="rgb(255, 165, 0)" style="fill-opacity:1.00" />
<ellipse cx="235.000000" cy="109.848157" rx="16.666667" ry="0.022255" fill="rgb(255, 255, 255)" style="fill-opacity:1.00" />
<rect height="0.033382" width="25.000000" x="235.000000" y="109.831466" fill="rgb(255, 255, 255)" style="fill-opacity:1.00" />
<rect height="0.008345" width="25.000000" x="235.000000" y="109.856502" fill="rgb(255, 165, 0)" style="fill-opacity:1.00" />
<rect height="0.025036" width="6.250000" x="253.750000" y="109.856502" fill="rgb(255, 165, 0)" style="fill-opacity:1.00" />
<!-- End 'G' -->
<!-- Begin 'T' -->
<rect height="0.009602" width="50.000000" x="210.000000" y="109.881538" fill="rgb(0, 100, 0)" style="fill-opacity:1.00" />
<rect height="0.060014" width="10.000000" x="230.000000" y="109.881538" fill="rgb(0, 100, 0)" style="fill-opacity:1.00" />
<!-- End 'T' -->
<!-- Begin 'A' -->
<polygon points=" 210.000000, 110.000000, 231.000000, 109.941553, 239.000000, 109.941553, 260.000000, 110.000000, 252.500000, 110.000000, 246.250000, 109.985388, 223.750000, 109.985388, 217.500000, 110.000000" fill="rgb(178, 34, 34)" style="fill-opacity:1.00" />
<!-- End 'A' -->
<!-- Begin 'C' -->
<ellipse cx="295.000000" cy="108.212944" rx="25.000000" ry="0.371790" fill="rgb(0, 0, 128)" style="fill-opacity:1.00" />
<ellipse cx="295.000000" cy="108.212944" rx="16.666667" ry="0.247860" fill="rgb(255, 255, 255)" style="fill-opacity:1.00" />
<rect height="0.371790" width="25.000000" x="295.000000" y="108.027049" fill="rgb(255, 255, 255)" style="fill-opacity:1.00" />
<!-- End 'C' -->
<!-- Begin 'T' -->
<rect height="0.089305" width="50.000000" x="270.000000" y="108.584735" fill="rgb(0, 100, 0)" style="fill-opacity:1.00" />
<rect height="0.558157" width="10.000000" x="290.000000" y="108.584735" fill="rgb(0, 100, 0)" style="fill-opacity:1.00" />
<!-- End 'T' -->
<!-- Begin 'A' -->
<polygon points=" 270.000000, 109.618795, 291.000000, 109.142892, 299.000000, 109.142892, 320.000000, 109.618795, 312.500000, 109.618795, 306.250000, 109.499819, 283.750000, 109.499819, 277.500000, 109.618795" fill="rgb(178, 34, 34)" style="fill-opacity:1.00" />
<!-- End 'A' -->
<!-- Begin 'G' -->
<ellipse cx="295.000000" cy="109.809397" rx="25.000000" ry="0.190603" fill="rgb(255, 165, 0)" style="fill-opacity:1.00" />
<ellipse cx="295.000000" cy="109.809397" rx="16.666667" ry="0.127068" fill="rgb(255, 255, 255)" style="fill-opacity:1.00" />
<rect height="0.190603" width="25.000000" x="295.000000" y="109.714096" fill="rgb(255, 255, 255)" style="fill-opacity:1.00" />
<rect height="0.047651" width="25.000000" x="295.000000" y="109.857048" fill="rgb(255, 165, 0)" style="fill-opacity:1.00" />
<rect height="0.142952" width="6.250000" x="313.750000" y="109.857048" fill="rgb(255, 165, 0)" style="fill-opacity:1.00" />
<!-- End 'G' -->
<!-- Begin 'G' -->
<ellipse cx="355.000000" cy="107.682490" rx="25.000000" ry="0.502521" fill="rgb(255, 165, 0)" style="fill-opacity:1.00" />
<ellipse cx="355.000000" cy="107.682490" rx="16.666667" ry="0.335014" fill="rgb(255, 255, 255)" style="fill-opacity:1.00" />
<rect height="0.502521" width="25.000000" x="355.000000" y="107.431230" fill="rgb(255, 255, 255)" style="fill-opacity:1.00" />
<rect height="0.125630" width="25.000000" x="355.000000" y="107.808121" fill="rgb(255, 165, 0)" style="fill-opacity:1.00" />
<rect height="0.376891" width="6.250000" x="373.750000" y="107.808121" fill="rgb(255, 165, 0)" style="fill-opacity:1.00" />
<!-- End 'G' -->
<!-- Begin 'A' -->
<polygon points=" 330.000000, 108.892349, 351.000000, 108.185012, 359.000000, 108.185012, 380.000000, 108.892349, 372.500000, 108.892349, 366.250000, 108.715515, 343.750000, 108.715515, 337.500000, 108.892349" fill="rgb(178, 34, 34)" style="fill-opacity:1.00" />
<!-- End 'A' -->
<!-- Begin 'T' -->
<rect height="0.104931" width="50.000000" x="330.000000" y="108.892349" fill="rgb(0, 100, 0)" style="fill-opacity:1.00" />
<rect height="0.655816" width="10.000000" x="350.000000" y="108.892349" fill="rgb(0, 100, 0)" style="fill-opacity:1.00" />
<!-- End 'T' -->
<!-- Begin 'C' -->
<ellipse cx="355.000000" cy="109.774083" rx="25.000000" ry="0.225917" fill="rgb(0, 0, 128)" style="fill-opacity:1.00" />
<ellipse cx="355.000000" cy="109.774083" rx="16.666667" ry="0.150612" fill="rgb(255, 255, 255)" style="fill-opacity:1.00" />
<rect height="0.225917" width="25.000000" x="355.000000" y="109.661124" fill="rgb(255, 255, 255)" style="fill-opacity:1.00" />
<!-- End 'C' -->
<!-- Begin 'G' -->
<ellipse cx="415.000000" cy="109.982619" rx="25.000000" ry="0.002551" fill="rgb(255, 165, 0)" style="fill-opacity:1.00" />
<ellipse cx="415.000000" cy="109.982619" rx="16.666667" ry="0.001701" fill="rgb(255, 255, 255)" style="fill-opacity:1.00" />
<rect height="0.002551" width="25.000000" x="415.000000" y="109.981343" fill="rgb(255, 255, 255)" style="fill-opacity:1.00" />
<rect height="0.000638" width="25.000000" x="415.000000" y="109.983257" fill="rgb(255, 165, 0)" style="fill-opacity:1.00" />
<rect height="0.001913" width="6.250000" x="433.750000" y="109.983257" fill="rgb(255, 165, 0)" style="fill-opacity:1.00" />
<!-- End 'G' -->
<!-- Begin 'C' -->
<ellipse cx="415.000000" cy="109.987698" rx="25.000000" ry="0.002528" fill="rgb(0, 0, 128)" style="fill-opacity:1.00" />
<ellipse cx="415.000000" cy="109.987698" rx="16.666667" ry="0.001685" fill="rgb(255, 255, 255)" style="fill-opacity:1.00" />
<rect height="0.002528" width="25.000000" x="415.000000" y="109.986434" fill="rgb(255, 255, 255)" style="fill-opacity:1.00" />
<!-- End 'C' -->
<!-- Begin 'T' -->
<rect height="0.000797" width="50.000000" x="390.000000" y="109.990225" fill="rgb(0, 100, 0)" style="fill-opacity:1.00" />
<rect height="0.004979" width="10.000000" x="410.000000" y="109.990225" fill="rgb(0, 100, 0)" style="fill-opacity:1.00" />
<!-- End 'T' -->
<!-- Begin 'A' -->
<polygon points=" 390.000000, 110.000000, 411.000000, 109.995204, 419.000000, 109.995204, 440.000000, 110.000000, 432.500000, 110.000000, 426.250000, 109.998801, 403.750000, 109.998801, 397.500000, 110.000000" fill="rgb(178, 34, 34)" style="fill-opacity:1.00" />
<!-- End 'A' -->
<!-- Begin 'C' -->
<ellipse cx="475.000000" cy="107.367774" rx="25.000000" ry="0.520859" fill="rgb(0, 0, 128)" style="fill-opacity:1.00" />
<ellipse cx="475.000000" cy="107.367774" rx="16.666667" ry="0.347239" fill="rgb(255, 255, 255)" style="fill-opacity:1.00" />
<rect height="0.520859" width="25.000000" x="475.000000" y="107.107344" fill="rgb(255, 255, 255)" style="fill-opacity:1.00" />
<!-- End 'C' -->
<!-- Begin 'T' -->
<rect height="0.144041" width="50.000000" x="450.000000" y="107.888633" fill="rgb(0, 100, 0)" style="fill-opacity:1.00" />
<rect height="0.900259" width="10.000000" x="470.000000" y="107.888633" fill="rgb(0, 100, 0)" style="fill-opacity:1.00" />
<!-- End 'T' -->
<!-- Begin 'A' -->
<polygon points=" 450.000000, 109.562378, 471.000000, 108.788892, 479.000000, 108.788892, 500.000000, 109.562378, 492.500000, 109.562378, 486.250000, 109.369006, 463.750000, 109.369006, 457.500000, 109.562378" fill="rgb(178, 34, 34)" style="fill-opacity:1.00" />
<!-- End 'A' -->
<!-- Begin 'G' -->
<ellipse cx="475.000000" cy="109.781189" rx="25.000000" ry="0.218811" fill="rgb(255, 165, 0)" style="fill-opacity:1.00" />
<ellipse cx="475.000000" cy="109.781189" rx="16.666667" ry="0.145874" fill="rgb(255, 255, 255)" style="fill-opacity:1.00" />
<rect height="0.218811" width="25.000000" x="475.000000" y="109.671783" fill="rgb(255, 255, 255)" style="fill-opacity:1.00" />
<rect height="0.054703" width="25.000000" x="475.000000" y="109.835892" fill="rgb(255, 165, 0)" style="fill-opacity:1.00" />
<rect height="0.164108" width="6.250000" x="493.750000" y="109.835892" fill="rgb(255, 165, 0)" style="fill-opacity:1.00" />
<!-- End 'G' -->
<!-- Begin 'G' -->
<ellipse cx="535.000000" cy="107.709096" rx="25.000000" ry="0.434725" fill="rgb(255, 165, 0)" style="fill-opacity:1.00" />
<ellipse cx="535.000000" cy="107.709096" rx="16.666667" ry="0.289817" fill="rgb(255, 255, 255)" style="fill-opacity:1.00" />
<rect height="0.434725" width="25.000000" x="535.000000" y="107.491733" fill="rgb(255, 255, 255)" style="fill-opacity:1.00" />
<rect height="0.108681" width="25.000000" x="535.000000" y="107.817777" fill="rgb(255, 165, 0)" style="fill-opacity:1.00" />
<rect height="0.326044" width="6.250000" x="553.750000" y="107.817777" fill="rgb(255, 165, 0)" style="fill-opacity:1.00" />
<!-- End 'G' -->
<!-- Begin 'A' -->
<polygon points=" 510.000000, 108.909613, 531.000000, 108.143821, 539.000000, 108.143821, 560.000000, 108.909613, 552.500000, 108.909613, 546.250000, 108.718165, 523.750000, 108.718165, 517.500000, 108.909613" fill="rgb(178, 34, 34)" style="fill-opacity:1.00" />
<!-- End 'A' -->
<!-- Begin 'T' -->
<rect height="0.112084" width="50.000000" x="510.000000" y="108.909613" fill="rgb(0, 100, 0)" style="fill-opacity:1.00" />
<rect height="0.700524" width="10.000000" x="530.000000" y="108.909613" fill="rgb(0, 100, 0)" style="fill-opacity:1.00" />
<!-- End 'T' -->
<!-- Begin 'C' -->
<ellipse cx="535.000000" cy="109.805068" rx="25.000000" ry="0.194932" fill="rgb(0, 0, 128)" style="fill-opacity:1.00" />
<ellipse cx="535.000000" cy="109.805068" rx="16.666667" ry="0.129954" fill="rgb(255, 255, 255)" style="fill-opacity:1.00" />
<rect height="0.194932" width="25.000000" x="535.000000" y="109.707602" fill="rgb(255, 255, 255)" style="fill-opacity:1.00" />
<!-- End 'C' -->
<!-- Begin 'T' -->
<rect height="0.001160" width="50.000000" x="570.000000" y="109.972215" fill="rgb(0, 100, 0)" style="fill-opacity:1.00" />
<rect height="0.007253" width="10.000000" x="590.000000" y="109.972215" fill="rgb(0, 100, 0)" style="fill-opacity:1.00" />
<!-- End 'T' -->
<!-- Begin 'C' -->
<ellipse cx="595.000000" cy="109.982951" rx="25.000000" ry="0.003484" fill="rgb(0, 0, 128)" style="fill-opacity:1.00" />
<ellipse cx="595.000000" cy="109.982951" rx="16.666667" ry="0.002322" fill="rgb(255, 255, 255)" style="fill-opacity:1.00" />
<rect height="0.003484" width="25.000000" x="595.000000" y="109.981209" fill="rgb(255, 255, 255)" style="fill-opacity:1.00" />
<!-- End 'C' -->
<!-- Begin 'G' -->
<ellipse cx="595.000000" cy="109.989840" rx="25.000000" ry="0.003405" fill="rgb(255, 165, 0)" style="fill-opacity:1.00" />
<ellipse cx="595.000000" cy="109.989840" rx="16.666667" ry="0.002270" fill="rgb(255, 255, 255)" style="fill-opacity:1.00" />
<rect height="0.003405" width="25.000000" x="595.000000" y="109.988137" fill="rgb(255, 255, 255)" style="fill-opacity:1.00" />
<rect height="0.000851" width="25.000000" x="595.000000" y="109.990691" fill="rgb(255, 165, 0)" style="fill-opacity:1.00" />
<rect height="0.002554" width="6.250000" x="613.750000" y="109.990691" fill="rgb(255, 165, 0)" style="fill-opacity:1.00" />
<!-- End 'G' -->
<!-- Begin 'A' -->
<polygon points=" 570.000000, 110.000000, 591.000000, 109.993246, 599.000000, 109.993246, 620.000000, 110.000000, 612.500000, 110.000000, 606.250000, 109.998311, 583.750000, 109.998311, 577.500000, 110.000000" fill="rgb(178, 34, 34)" style="fill-opacity:1.00" />
<!-- End 'A' -->
<!-- Begin 'C' -->
<ellipse cx="655.000000" cy="104.494154" rx="25.000000" ry="1.246835" fill="rgb(0, 0, 128)" style="fill-opacity:1.00" />
<ellipse cx="655.000000" cy="104.494154" rx="16.666667" ry="0.831224" fill="rgb(255, 255, 255)" style="fill-opacity:1.00" />
<rect height="1.246835" width="25.000000" x="655.000000" y="103.870736" fill="rgb(255, 255, 255)" style="fill-opacity:1.00" />
<!-- End 'C' -->
<!-- Begin 'T' -->
<rect height="0.308305" width="50.000000" x="630.000000" y="105.740989" fill="rgb(0, 100, 0)" style="fill-opacity:1.00" />
<rect height="1.926909" width="10.000000" x="650.000000" y="105.740989" fill="rgb(0, 100, 0)" style="fill-opacity:1.00" />
<!-- End 'T' -->
<!-- Begin 'A' -->
<polygon points=" 630.000000, 109.381368, 651.000000, 107.667899, 659.000000, 107.667899, 680.000000, 109.381368, 672.500000, 109.381368, 666.250000, 108.953001, 643.750000, 108.953001, 637.500000, 109.381368" fill="rgb(178, 34, 34)" style="fill-opacity:1.00" />
<!-- End 'A' -->
<!-- Begin 'G' -->
<ellipse cx="655.000000" cy="109.690684" rx="25.000000" ry="0.309316" fill="rgb(255, 165, 0)" style="fill-opacity:1.00" />
<ellipse cx="655.000000" cy="109.690684" rx="16.666667" ry="0.206211" fill="rgb(255, 255, 255)" style="fill-opacity:1.00" />
<rect height="0.309316" width="25.000000" x="655.000000" y="109.536026" fill="rgb(255, 255, 255)" style="fill-opacity:1.00" />
<rect height="0.077329" width="25.000000" x="655.000000" y="109.768013" fill="rgb(255, 165, 0)" style="fill-opacity:1.00" />
<rect height="0.231987" width="6.250000" x="673.750000" y="109.768013" fill="rgb(255, 165, 0)" style="fill-opacity:1.00" />
<!-- End 'G' -->
<!-- Begin 'G' -->
<ellipse cx="715.000000" cy="106.735029" rx="25.000000" ry="0.677708" fill="rgb(255, 165, 0)" style="fill-opacity:1.00" />
<ellipse cx="715.000000" cy="106.735029" rx="16.666667" ry="0.451805" fill="rgb(255, 255, 255)" style="fill-opacity:1.00" />
<rect height="0.677708" width="25.000000" x="715.000000" y="106.396175" fill="rgb(255, 255, 255)" style="fill-opacity:1.00" />
<rect height="0.169427" width="25.000000" x="715.000000" y="106.904456" fill="rgb(255, 165, 0)" style="fill-opacity:1.00" />
<rect height="0.508281" width="6.250000" x="733.750000" y="106.904456" fill="rgb(255, 165, 0)" style="fill-opacity:1.00" />
<!-- End 'G' -->
<!-- Begin 'T' -->
<rect height="0.171753" width="50.000000" x="690.000000" y="107.412738" fill="rgb(0, 100, 0)" style="fill-opacity:1.00" />
<rect height="1.073457" width="10.000000" x="710.000000" y="107.412738" fill="rgb(0, 100, 0)" style="fill-opacity:1.00" />
<!-- End 'T' -->
<!-- Begin 'A' -->
<polygon points=" 690.000000, 109.504172, 711.000000, 108.486194, 719.000000, 108.486194, 740.000000, 109.504172, 732.500000, 109.504172, 726.250000, 109.249678, 703.750000, 109.249678, 697.500000, 109.504172" fill="rgb(178, 34, 34)" style="fill-opacity:1.00" />
<!-- End 'A' -->
<!-- Begin 'C' -->
<ellipse cx="715.000000" cy="109.752086" rx="25.000000" ry="0.247914" fill="rgb(0, 0, 128)" style="fill-opacity:1.00" />
<ellipse cx="715.000000" cy="109.752086" rx="16.666667" ry="0.165276" fill="rgb(255, 255, 255)" style="fill-opacity:1.00" />
<rect height="0.247914" width="25.000000" x="715.000000" y="109.628129" fill="rgb(255, 255, 255)" style="fill-opacity:1.00" />
<!-- End 'C' -->
<!-- Begin 'C' -->
<ellipse cx="775.000000" cy="109.809746" rx="25.000000" ry="0.030291" fill="rgb(0, 0, 128)" style="fill-opacity:1.00" />
<ellipse cx="775.000000" cy="109.809746" rx="16.666667" ry="0.020194" fill="rgb(255, 255, 255)" style="fill-opacity:1.00" />
<rect height="0.030291" width="25.000000" x="775.000000" y="109.794601" fill="rgb(255, 255, 255)" style="fill-opacity:1.00" />
<!-- End 'C' -->
<!-- Begin 'T' -->
<rect height="0.009303" width="50.000000" x="750.000000" y="109.840037" fill="rgb(0, 100, 0)" style="fill-opacity:1.00" />
<rect height="0.058146" width="10.000000" x="770.000000" y="109.840037" fill="rgb(0, 100, 0)" style="fill-opacity:1.00" />
<!-- End 'T' -->
<!-- Begin 'G' -->
<ellipse cx="775.000000" cy="109.923705" rx="25.000000" ry="0.025522" fill="rgb(255, 165, 0)" style="fill-opacity:1.00" />
<ellipse cx="775.000000" cy="109.923705" rx="16.666667" ry="0.017015" fill="rgb(255, 255, 255)" style="fill-opacity:1.00" />
<rect height="0.025522" width="25.000000" x="775.000000" y="109.910944" fill="rgb(255, 255, 255)" style="fill-opacity:1.00" />
<rect height="0.006380" width="25.000000" x="775.000000" y="109.930085" fill="rgb(255, 165, 0)" style="fill-opacity:1.00" />
<rect height="0.019141" width="6.250000" x="793.750000" y="109.930085" fill="rgb(255, 165, 0)" style="fill-opacity:1.00" />
<!-- End 'G' -->
<!-- Begin 'A' -->
<polygon points=" 750.000000, 110.000000, 771.000000, 109.949227, 779.000000, 109.949227, 800.000000, 110.000000, 792.500000, 110.000000, 786.250000, 109.987307, 763.750000, 109.987307, 757.500000, 110.000000" fill="rgb(178, 34, 34)" style="fill-opacity:1.00" />
<!-- End 'A' -->
<!-- Begin 'C' -->
<ellipse cx="835.000000" cy="87.875075" rx="25.000000" ry="10.009861" fill="rgb(0, 0, 128)" style="fill-opacity:1.00" />
<ellipse cx="835.000000" cy="87.875075" rx="16.666667" ry="6.673240" fill="rgb(255, 255, 255)" style="fill-opacity:1.00" />
<rect height="10.009861" width="25.000000" x="835.000000" y="82.870144" fill="rgb(255, 255, 255)" style="fill-opacity:1.00" />
<!-- End 'C' -->
<!-- Begin 'T' -->
<rect height="1.329630" width="50.000000" x="810.000000" y="97.884935" fill="rgb(0, 100, 0)" style="fill-opacity:1.00" />
<rect height="8.310189" width="10.000000" x="830.000000" y="97.884935" fill="rgb(0, 100, 0)" style="fill-opacity:1.00" />
<!-- End 'T' -->
<!-- Begin 'A' -->
<polygon points=" 810.000000, 109.540674, 831.000000, 106.195124, 839.000000, 106.195124, 860.000000, 109.540674, 852.500000, 109.540674, 846.250000, 108.704286, 823.750000, 108.704286, 817.500000, 109.540674" fill="rgb(178, 34, 34)" style="fill-opacity:1.00" />
<!-- End 'A' -->
<!-- Begin 'G' -->
<ellipse cx="835.000000" cy="109.770337" rx="25.000000" ry="0.229663" fill="rgb(255, 165, 0)" style="fill-opacity:1.00" />
<ellipse cx="835.000000" cy="109.770337" rx="16.666667" ry="0.153109" fill="rgb(255, 255, 255)" style="fill-opacity:1.00" />
<rect height="0.229663" width="25.000000" x="835.000000" y="109.655505" fill="rgb(255, 255, 255)" style="fill-opacity:1.00" />
<rect height="0.057416" width="25.000000" x="835.000000" y="109.827753" fill="rgb(255, 165, 0)" style="fill-opacity:1.00" />
<rect height="0.172247" width="6.250000" x="853.750000" y="109.827753" fill="rgb(255, 165, 0)" style="fill-opacity:1.00" />
<!-- End 'G' -->
<!-- Begin 'G' -->
<ellipse cx="895.000000" cy="85.963572" rx="25.000000" ry="12.022410" fill="rgb(255, 165, 0)" style="fill-opacity:1.00" />
<ellipse cx="895.000000" cy="85.963572" rx="16.666667" ry="8.014940" fill="rgb(255, 255, 255)" style="fill-opacity:1.00" />
<rect height="12.022410" width="25.000000" x="895.000000" y="79.952367" fill="rgb(255, 255, 255)" style="fill-opacity:1.00" />
<rect height="3.005603" width="25.000000" x="895.000000" y="88.969175" fill="rgb(255, 165, 0)" style="fill-opacity:1.00" />
<rect height="9.016808" width="6.250000" x="913.750000" y="88.969175" fill="rgb(255, 165, 0)" style="fill-opacity:1.00" />
<!-- End 'G' -->
<!-- Begin 'A' -->
<polygon points=" 870.000000, 106.102002, 891.000000, 97.985982, 899.000000, 97.985982, 920.000000, 106.102002, 912.500000, 106.102002, 906.250000, 104.072997, 883.750000, 104.072997, 877.500000, 106.102002" fill="rgb(178, 34, 34)" style="fill-opacity:1.00" />
<polygon points=" 895.000000, 99.609186, 887.000000, 101.855594, 902.000000, 101.855594" fill="rgb(255, 255, 255)" style="fill-opacity:1.00" />
<!-- End 'A' -->
<!-- Begin 'T' -->
<rect height="0.547738" width="50.000000" x="870.000000" y="106.102002" fill="rgb(0, 100, 0)" style="fill-opacity:1.00" />
<rect height="3.423360" width="10.000000" x="890.000000" y="106.102002" fill="rgb(0, 100, 0)" style="fill-opacity:1.00" />
<!-- End 'T' -->
<!-- Begin 'C' -->
<ellipse cx="895.000000" cy="109.762681" rx="25.000000" ry="0.237319" fill="rgb(0, 0, 128)" style="fill-opacity:1.00" />
<ellipse cx="895.000000" cy="109.762681" rx="16.666667" ry="0.158213" fill="rgb(255, 255, 255)" style="fill-opacity:1.00" />
<rect height="0.237319" width="25.000000" x="895.000000" y="109.644021" fill="rgb(255, 255, 255)" style="fill-opacity:1.00" />
<!-- End 'C' -->
<!-- Begin 'C' -->
<ellipse cx="955.000000" cy="102.496050" rx="25.000000" ry="2.146434" fill="rgb(0, 0, 128)" style="fill-opacity:1.00" />
<ellipse cx="955.000000" cy="102.496050" rx="16.666667" ry="1.430956" fill="rgb(255, 255, 255)" style="fill-opacity:1.00" />
<rect height="2.146434" width="25.000000" x="955.000000" y="101.422833" fill="rgb(255, 255, 255)" style="fill-opacity:1.00" />
<!-- End 'C' -->
<!-- Begin 'G' -->
<ellipse cx="955.000000" cy="106.046968" rx="25.000000" ry="1.404484" fill="rgb(255, 165, 0)" style="fill-opacity:1.00" />
<ellipse cx="955.000000" cy="106.046968" rx="16.666667" ry="0.936323" fill="rgb(255, 255, 255)" style="fill-opacity:1.00" />
<rect height="1.404484" width="25.000000" x="955.000000" y="105.344726" fill="rgb(255, 255, 255)" style="fill-opacity:1.00" />
<rect height="0.351121" width="25.000000" x="955.000000" y="106.398089" fill="rgb(255, 165, 0)" style="fill-opacity:1.00" />
<rect height="1.053363" width="6.250000" x="973.750000" y="106.398089" fill="rgb(255, 165, 0)" style="fill-opacity:1.00" />
<!-- End 'G' -->
<!-- Begin 'T' -->
<rect height="0.227272" width="50.000000" x="930.000000" y="107.451452" fill="rgb(0, 100, 0)" style="fill-opacity:1.00" />
<rect height="1.420453" width="10.000000" x="950.000000" y="107.451452" fill="rgb(0, 100, 0)" style="fill-opacity:1.00" />
<!-- End 'T' -->
<!-- Begin 'A' -->
<polygon points=" 930.000000, 110.000000, 951.000000, 108.871905, 959.000000, 108.871905, 980.000000, 110.000000, 972.500000, 110.000000, 966.250000, 109.717976, 943.750000, 109.717976, 937.500000, 110.000000" fill="rgb(178, 34, 34)" style="fill-opacity:1.00" />
<!-- End 'A' -->
<!-- Begin 'C' -->
<ellipse cx="1015.000000" cy="78.061546" rx="25.000000" ry="21.290726" fill="rgb(0, 0, 128)" style="fill-opacity:1.00" />
<ellipse cx="1015.000000" cy="78.061546" rx="16.666667" ry="14.193817" fill="rgb(255, 255, 255)" style="fill-opacity:1.00" />
<rect height="21.290726" width="25.000000" x="1015.000000" y="67.416183" fill="rgb(255, 255, 255)" style="fill-opacity:1.00" />
<!-- End 'C' -->
<!-- Begin 'T' -->
<rect height="1.105223" width="50.000000" x="990.000000" y="99.352272" fill="rgb(0, 100, 0)" style="fill-opacity:1.00" />
<rect height="6.907643" width="10.000000" x="1010.000000" y="99.352272" fill="rgb(0, 100, 0)" style="fill-opacity:1.00" />
<!-- End 'T' -->
<!-- Begin 'A' -->
<polygon points=" 990.000000, 109.729061, 1011.000000, 106.259915, 1019.000000, 106.259915, 1040.000000, 109.729061, 1032.500000, 109.729061, 1026.250000, 108.861774, 1003.750000, 108.861774, 997.500000, 109.729061" fill="rgb(178, 34, 34)" style="fill-opacity:1.00" />
<!-- End 'A' -->
<!-- Begin 'G' -->
<ellipse cx="1015.000000" cy="109.864530" rx="25.000000" ry="0.135470" fill="rgb(255, 165, 0)" style="fill-opacity:1.00" />
<ellipse cx="1015.000000" cy="109.864530" rx="16.666667" ry="0.090313" fill="rgb(255, 255, 255)" style="fill-opacity:1.00" />
<rect height="0.135470" width="25.000000" x="1015.000000" y="109.796795" fill="rgb(255, 255, 255)" style="fill-opacity:1.00" />
<rect height="0.033867" width="25.000000" x="1015.000000" y="109.898398" fill="rgb(255, 165, 0)" style="fill-opacity:1.00" />
<rect height="0.101602" width="6.250000" x="1033.750000" y="109.898398" fill="rgb(255, 165, 0)" style="fill-opacity:1.00" />
<!-- End 'G' -->
<!-- Begin 'G' -->
<ellipse cx="1075.000000" cy="77.171261" rx="25.000000" ry="23.233366" fill="rgb(255, 165, 0)" style="fill-opacity:1.00" />
<ellipse cx="1075.000000" cy="77.171261" rx="16.666667" ry="15.488911" fill="rgb(255, 255, 255)" style="fill-opacity:1.00" />
<rect height="23.233366" width="25.000000" x="1075.000000" y="65.554577" fill="rgb(255, 255, 255)" style="fill-opacity:1.00" />
<rect height="5.808342" width="25.000000" x="1075.000000" y="82.979602" fill="rgb(255, 165, 0)" style="fill-opacity:1.00" />
<rect height="17.425025" width="6.250000" x="1093.750000" y="82.979602" fill="rgb(255, 165, 0)" style="fill-opacity:1.00" />
<!-- End 'G' -->
<!-- Begin 'A' -->
<polygon points=" 1050.000000, 105.579146, 1071.000000, 100.404627, 1079.000000, 100.404627, 1100.000000, 105.579146, 1092.500000, 105.579146, 1086.250000, 104.285516, 1063.750000, 104.285516, 1057.500000, 105.579146" fill="rgb(178, 34, 34)" style="fill-opacity:1.00" />
<!-- End 'A' -->
<!-- Begin 'T' -->
<rect height="0.601481" width="50.000000" x="1050.000000" y="105.579146" fill="rgb(0, 100, 0)" style="fill-opacity:1.00" />
<rect height="3.759254" width="10.000000" x="1070.000000" y="105.579146" fill="rgb(0, 100, 0)" style="fill-opacity:1.00" />
<!-- End 'T' -->
<!-- Begin 'C' -->
<ellipse cx="1075.000000" cy="109.669200" rx="25.000000" ry="0.330800" fill="rgb(0, 0, 128)" style="fill-opacity:1.00" />
<ellipse cx="1075.000000" cy="109.669200" rx="16.666667" ry="0.220533" fill="rgb(255, 255, 255)" style="fill-opacity:1.00" />
<rect height="0.330800" width="25.000000" x="1075.000000" y="109.503800" fill="rgb(255, 255, 255)" style="fill-opacity:1.00" />
<!-- End 'C' -->
<!-- Begin 'G' -->
<ellipse cx="1135.000000" cy="106.295745" rx="25.000000" ry="0.949791" fill="rgb(255, 165, 0)" style="fill-opacity:1.00" />
<ellipse cx="1135.000000" cy="106.295745" rx="16.666667" ry="0.633194" fill="rgb(255, 255, 255)" style="fill-opacity:1.00" />
<rect height="0.949791" width="25.000000" x="1135.000000" y="105.820849" fill="rgb(255, 255, 255)" style="fill-opacity:1.00" />
<rect height="0.237448" width="25.000000" x="1135.000000" y="106.533193" fill="rgb(255, 165, 0)" style="fill-opacity:1.00" />
<rect height="0.712344" width="6.250000" x="1153.750000" y="106.533193" fill="rgb(255, 165, 0)" style="fill-opacity:1.00" />
<!-- End 'G' -->
<!-- Begin 'C' -->
<ellipse cx="1135.000000" cy="107.780409" rx="25.000000" ry="0.534873" fill="rgb(0, 0, 128)" style="fill-opacity:1.00" />
<ellipse cx="1135.000000" cy="107.780409" rx="16.666667" ry="0.356582" fill="rgb(255, 255, 255)" style="fill-opacity:1.00" />
<rect height="0.534873" width="25.000000" x="1135.000000" y="107.512972" fill="rgb(255, 255, 255)" style="fill-opacity:1.00" />
<!-- End 'C' -->
<!-- Begin 'A' -->
<polygon points=" 1110.000000, 109.209103, 1131.000000, 108.315281, 1139.000000, 108.315281, 1160.000000, 109.209103, 1152.500000, 109.209103, 1146.250000, 108.985648, 1123.750000, 108.985648, 1117.500000, 109.209103" fill="rgb(178, 34, 34)" style="fill-opacity:1.00" />
<!-- End 'A' -->
<!-- Begin 'T' -->
<rect height="0.126544" width="50.000000" x="1110.000000" y="109.209103" fill="rgb(0, 100, 0)" style="fill-opacity:1.00" />
<rect height="0.790897" width="10.000000" x="1130.000000" y="109.209103" fill="rgb(0, 100, 0)" style="fill-opacity:1.00" />
<!-- End 'T' -->
<!-- Begin 'C' -->
<ellipse cx="1195.000000" cy="92.607208" rx="25.000000" ry="7.360144" fill="rgb(0, 0, 128)" style="fill-opacity:1.00" />
<ellipse cx="1195.000000" cy="92.607208" rx="16.666667" ry="4.906763" fill="rgb(255, 255, 255)" style="fill-opacity:1.00" />
<rect height="7.360144" width="25.000000" x="1195.000000" y="88.927136" fill="rgb(255, 255, 255)" style="fill-opacity:1.00" />
<!-- End 'C' -->
<!-- Begin 'T' -->
<rect height="0.917748" width="50.000000" x="1170.000000" y="99.967352" fill="rgb(0, 100, 0)" style="fill-opacity:1.00" />
<rect height="5.735928" width="10.000000" x="1190.000000" y="99.967352" fill="rgb(0, 100, 0)" style="fill-opacity:1.00" />
<!-- End 'T' -->
<!-- Begin 'A' -->
<polygon points=" 1170.000000, 109.058223, 1191.000000, 105.703281, 1199.000000, 105.703281, 1220.000000, 109.058223, 1212.500000, 109.058223, 1206.250000, 108.219487, 1183.750000, 108.219487, 1177.500000, 109.058223" fill="rgb(178, 34, 34)" style="fill-opacity:1.00" />
<!-- End 'A' -->
<!-- Begin 'G' -->
<ellipse cx="1195.000000" cy="109.529111" rx="25.000000" ry="0.470889" fill="rgb(255, 165, 0)" style="fill-opacity:1.00" />
<ellipse cx="1195.000000" cy="109.529111" rx="16.666667" ry="0.313926" fill="rgb(255, 255, 255)" style="fill-opacity:1.00" />
<rect height="0.470889" width="25.000000" x="1195.000000" y="109.293667" fill="rgb(255, 255, 255)" style="fill-opacity:1.00" />
<rect height="0.117722" width="25.000000" x="1195.000000" y="109.646834" fill="rgb(255, 165, 0)" style="fill-opacity:1.00" />
<rect height="0.353166" width="6.250000" x="1213.750000" y="109.646834" fill="rgb(255, 165, 0)" style="fill-opacity:1.00" />
<!-- End 'G' -->
<!-- Begin 'G' -->
<ellipse cx="1255.000000" cy="98.192833" rx="25.000000" ry="3.668132" fill="rgb(255, 165, 0)" style="fill-opacity:1.00" />
<ellipse cx="1255.000000" cy="98.192833" rx="16.666667" ry="2.445421" fill="rgb(255, 255, 255)" style="fill-opacity:1.00" />
<rect height="3.668132" width="25.000000" x="1255.000000" y="96.358767" fill="rgb(255, 255, 255)" style="fill-opacity:1.00" />
<rect height="0.917033" width="25.000000" x="1255.000000" y="99.109866" fill="rgb(255, 165, 0)" style="fill-opacity:1.00" />
<rect height="2.751099" width="6.250000" x="1273.750000" y="99.109866" fill="rgb(255, 165, 0)" style="fill-opacity:1.00" />
<!-- End 'G' -->
<!-- Begin 'A' -->
<polygon points=" 1230.000000, 106.419346, 1251.000000, 101.860965, 1259.000000, 101.860965, 1280.000000, 106.419346, 1272.500000, 106.419346, 1266.250000, 105.279750, 1243.750000, 105.279750, 1237.500000, 106.419346" fill="rgb(178, 34, 34)" style="fill-opacity:1.00" />
<!-- End 'A' -->
<!-- Begin 'T' -->
<rect height="0.452045" width="50.000000" x="1230.000000" y="106.419346" fill="rgb(0, 100, 0)" style="fill-opacity:1.00" />
<rect height="2.825280" width="10.000000" x="1250.000000" y="106.419346" fill="rgb(0, 100, 0)" style="fill-opacity:1.00" />
<!-- End 'T' -->
<!-- Begin 'C' -->
<ellipse cx="1255.000000" cy="109.622313" rx="25.000000" ry="0.377687" fill="rgb(0, 0, 128)" style="fill-opacity:1.00" />
<ellipse cx="1255.000000" cy="109.622313" rx="16.666667" ry="0.251791" fill="rgb(255, 255, 255)" style="fill-opacity:1.00" />
<rect height="0.377687" width="25.000000" x="1255.000000" y="109.433469" fill="rgb(255, 255, 255)" style="fill-opacity:1.00" />
<!-- End 'C' -->
<text x="670.000000" y="165">
IC = 5.16
</text>

</svg>
