<?xml version="1.0" encoding="UTF-8" standalone="yes"?>
                 <!DOCTYPE svg PUBLIC "-//W3C//DTD SVG 1.0//EN" "http://www.w3.org/TR/2001/REC-SVG-20010904/DTD/svg10.dtd">
                 <svg height="170" width="1320" xmlns="http://www.w3.org/2000/svg" xmlns:xlink="http://www.w3.org/1999/xlink">
                 <line x1="85" y1="120" x2="1287" y2="120" style="stroke:rgb(99,99,99);stroke-width:2" />
<rect height="7.000000" width="2.000000" x="85.000000" y="120.000000" fill="rgb(0, 0, 0)" style="fill-opacity:1.00" />
<text x="107.000000" y="140">
1
</text>
<rect height="7.000000" width="2.000000" x="145.000000" y="120.000000" fill="rgb(0, 0, 0)" style="fill-opacity:1.00" />
<text x="167.000000" y="140">
2
</text>
<rect height="7.000000" width="2.000000" x="205.000000" y="120.000000" fill="rgb(0, 0, 0)" style="fill-opacity:1.00" />
<text x="227.000000" y="140">
3
</text>
<rect height="7.000000" width="2.000000" x="265.000000" y="120.000000" fill="rgb(0, 0, 0)" style="fill-opacity:1.00" />
<text x="287.000000" y="140">
4
</text>
<rect height="7.000000" width="2.000000" x="325.000000" y="120.000000" fill="rgb(0, 0, 0)" style="fill-opacity:1.00" />
<text x="347.000000" y="140">
5
</text>
<rect height="7.000000" width="2.000000" x="385.000000" y="120.000000" fill="rgb(0, 0, 0)" style="fill-opacity:1.00" />
<text x="407.000000" y="140">
6
</text>
<rect height="7.000000" width="2.000000" x="445.000000" y="120.000000" fill="rgb(0, 0, 0)" style="fill-opacity:1.00" />
<text x="467.000000" y="140">
7
</text>
<rect height="7.000000" width="2.000000" x="505.000000" y="120.000000" fill="rgb(0, 0, 0)" style="fill-opacity:1.00" />
<text x="527.000000" y="140">
8
</text>
<rect height="7.000000" width="2.000000" x="565.000000" y="120.000000" fill="rgb(0, 0, 0)" style="fill-opacity:1.00" />
<text x="587.000000" y="140">
9
</text>
<rect height="7.000000" width="2.000000" x="625.000000" y="120.000000" fill="rgb(0, 0, 0)" style="fill-opacity:1.00" />
<text x="647.000000" y="140">
10
</text>
<rect height="7.000000" width="2.000000" x="685.000000" y="120.000000" fill="rgb(0, 0, 0)" style="fill-opacity:1.00" />
<text x="707.000000" y="140">
11
</text>
<rect height="7.000000" width="2.000000" x="745.000000" y="120.000000" fill="rgb(0, 0, 0)" style="fill-opacity:1.00" />
<text x="767.000000" y="140">
12
</text>
<rect height="7.000000" width="2.000000" x="805.000000" y="120.000000" fill="rgb(0, 0, 0)" style="fill-opacity:1.00" />
<text x="827.000000" y="140">
13
</text>
<rect height="7.000000" width="2.000000" x="865.000000" y="120.000000" fill="rgb(0, 0, 0)" style="fill-opacity:1.00" />
<text x="887.000000" y="140">
14
</text>
<rect height="7.000000" width="2.000000" x="925.000000" y="120.000000" fill="rgb(0, 0, 0)" style="fill-opacity:1.00" />
<text x="947.000000" y="140">
15
</text>
<rect height="7.000000" width="2.000000" x="985.000000" y="120.000000" fill="rgb(0, 0, 0)" style="fill-opacity:1.00" />
<text x="1007.000000" y="140">
16
</text>
<rect height="7.000000" width="2.000000" x="1045.000000" y="120.000000" fill="rgb(0, 0, 0)" style="fill-opacity:1.00" />
<text x="1067.000000" y="140">
17
</text>
<rect height="7.000000" width="2.000000" x="1105.000000" y="120.000000" fill="rgb(0, 0, 0)" style="fill-opacity:1.00" />
<text x="1127.000000" y="140">
18
</text>
<rect height="7.000000" width="2.000000" x="1165.000000" y="120.000000" fill="rgb(0, 0, 0)" style="fill-opacity:1.00" />
<text x="1187.000000" y="140">
19
</text>
<rect height="7.000000" width="2.000000" x="1225.000000" y="120.000000" fill="rgb(0, 0, 0)" style="fill-opacity:1.00" />
<text x="1247.000000" y="140">
20
</text>
<rect height="7.000000" width="2.000000" x="1285.000000" y="120.000000" fill="rgb(0, 0, 0)" style="fill-opacity:1.00" />
<line x1="80" y1="112" x2="80" y2="10" style="stroke:rgb(99,99,99);stroke-width:2" />
<rect height="2.000000" width="7.000000" x="73.000000" y="110.000000" fill="rgb(0, 0, 0)" style="fill-opacity:1.00" />
<text x="63" y="115">
0
</text>
<rect height="2.000000" width="7.000000" x="73.000000" y="60.000000" fill="rgb(0, 0, 0)" style="fill-opacity:1.00" />
<text x="63" y="65">
1
</text>
<rect height="2.000000" width="7.000000" x="73.000000" y="10.000000" fill="rgb(0, 0, 0)" style="fill-opacity:1.00" />
<text x="63" y="15">
2
</text>
<text x="50" y="65"
transform="rotate(-90, 50, 70)">
bits
</text>
<!-- Begin 'C' -->
<ellipse cx="115.000000" cy="108.249067" rx="25.000000" ry="0.364437" fill="rgb(0, 0, 128)" style="fill-opacity:1.00" />
<ellipse cx="115.000000" cy="108.249067" rx="16.666667" ry="0.242958" fill="rgb(255, 255, 255)" style="fill-opacity:1.00" />
<rect height="0.364437" width="25.000000" x="115.000000" y="108.066849" fill="rgb(255, 255, 255)" style="fill-opacity:1.00" />
<!-- End 'C' -->
<!-- Begin 'T' -->
<rect height="0.085197" width="50.000000" x="90.000000" y="108.613504" fill="rgb(0, 100, 0)" style="fill-opacity:1.00" />
<rect height="0.532479" width="10.000000" x="110.000000" y="108.613504" fill="rgb(0, 100, 0)" style="fill-opacity:1.00" />
<!-- End 'T' -->
<!-- Begin 'A' -->
<polygon points=" 90.000000, 109.628429, 111.000000, 109.145983, 119.000000, 109.145983, 140.000000, 109.628429, 132.500000, 109.628429, 126.250000, 109.507818, 103.750000, 109.507818, 97.500000, 109.628429" fill="rgb(178, 34, 34)" style="fill-opacity:1.00" />
<!-- End 'A' -->
<!-- Begin 'G' -->
<ellipse cx="115.000000" cy="109.814215" rx="25.000000" ry="0.185785" fill="rgb(255, 165, 0)" style="fill-opacity:1.00" />
<ellipse cx="115.000000" cy="109.814215" rx="16.666667" ry="0.123857" fill="rgb(255, 255, 255)" style="fill-opacity:1.00" />
<rect height="0.185785" width="25.000000" x="115.000000" y="109.721322" fill="rgb(255, 255, 255)" style="fill-opacity:1.00" />
<rect height="0.046446" width="25.000000" x="115.000000" y="109.860661" fill="rgb(255, 165, 0)" style="fill-opacity:1.00" />
<rect height="0.139339" width="6.250000" x="133.750000" y="109.860661" fill="rgb(255, 165, 0)" style="fill-opacity:1.00" />
<!-- End 'G' -->
<!-- Begin 'G' -->
<ellipse cx="175.000000" cy="108.498850" rx="25.000000" ry="0.300185" fill="rgb(255, 165, 0)" style="fill-opacity:1.00" />
<ellipse cx="175.000000" cy="108.498850" rx="16.666667" ry="0.200123" fill="rgb(255, 255, 255)" style="fill-opacity:1.00" />
<rect height="0.300185" width="25.000000" x="175.000000" y="108.348758" fill="rgb(255, 255, 255)" style="fill-opacity:1.00" />
<rect height="0.075046" width="25.000000" x="175.000000" y="108.573897" fill="rgb(255, 165, 0)" style="fill-opacity:1.00" />
<rect height="0.225139" width="6.250000" x="193.750000" y="108.573897" fill="rgb(255, 165, 0)" style="fill-opacity:1.00" />
<!-- End 'G' -->
<!-- Begin 'A' -->
<polygon points=" 150.000000, 109.267467, 171.000000, 108.799035, 179.000000, 108.799035, 200.000000, 109.267467, 192.500000, 109.267467, 186.250000, 109.150359, 163.750000, 109.150359, 157.500000, 109.267467" fill="rgb(178, 34, 34)" style="fill-opacity:1.00" />
<!-- End 'A' -->
<!-- Begin 'T' -->
<rect height="0.065608" width="50.000000" x="150.000000" y="109.267467" fill="rgb(0, 100, 0)" style="fill-opacity:1.00" />
<rect height="0.410050" width="10.000000" x="170.000000" y="109.267467" fill="rgb(0, 100, 0)" style="fill-opacity:1.00" />
<!-- End 'T' -->
<!-- Begin 'C' -->
<ellipse cx="175.000000" cy="109.838758" rx="25.000000" ry="0.161242" fill="rgb(0, 0, 128)" style="fill-opacity:1.00" />
<ellipse cx="175.000000" cy="109.838758" rx="16.666667" ry="0.107494" fill="rgb(255, 255, 255)" style="fill-opacity:1.00" />
<rect height="0.161242" width="25.000000" x="175.000000" y="109.758138" fill="rgb(255, 255, 255)" style="fill-opacity:1.00" />
<!-- End 'C' -->
<!-- Begin 'C' -->
<ellipse cx="235.000000" cy="109.835218" rx="25.000000" ry="0.026559" fill="rgb(0, 0, 128)" style="fill-opacity:1.00" />
<ellipse cx="235.000000" cy="109.835218" rx="16.666667" ry="0.017706" fill="rgb(255, 255, 255)" style="fill-opacity:1.00" />
<rect height="0.026559" width="25.000000" x="235.000000" y="109.821939" fill="rgb(255, 255, 255)" style="fill-opacity:1.00" />
<!-- End 'C' -->
<!-- Begin 'G' -->
<ellipse cx="235.000000" cy="109.886108" rx="25.000000" ry="0.024331" fill="rgb(255, 165, 0)" style="fill-opacity:1.00" />
<ellipse cx="235.000000" cy="109.886108" rx="16.666667" ry="0.016221" fill="rgb(255, 255, 255)" style="fill-opacity:1.00" />
<rect height="0.024331" width="25.000000" x="235.000000" y="109.873943" fill="rgb(255, 255, 255)" style="fill-opacity:1.00" />
<rect height="0.006083" width="25.000000" x="235.000000" y="109.892191" fill="rgb(255, 165, 0)" style="fill-opacity:1.00" />
<rect height="0.018248" width="6.250000" x="253.750000" y="109.892191" fill="rgb(255, 165, 0)" style="fill-opacity:1.00" />
<!-- End 'G' -->
<!-- Begin 'T' -->
<rect height="0.007314" width="50.000000" x="210.000000" y="109.910439" fill="rgb(0, 100, 0)" style="fill-opacity:1.00" />
<rect height="0.045715" width="10.000000" x="230.000000" y="109.910439" fill="rgb(0, 100, 0)" style="fill-opacity:1.00" />
<!-- End 'T' -->
<!-- Begin 'A' -->
<polygon points=" 210.000000, 110.000000, 231.000000, 109.956155, 239.000000, 109.956155, 260.000000, 110.000000, 252.500000, 110.000000, 246.250000, 109.989039, 223.750000, 109.989039, 217.500000, 110.000000" fill="rgb(178, 34, 34)" style="fill-opacity:1.00" />
<!-- End 'A' -->
<!-- Begin 'C' -->
<ellipse cx="295.000000" cy="108.185818" rx="25.000000" ry="0.378573" fill="rgb(0, 0, 128)" style="fill-opacity:1.00" />
<ellipse cx="295.000000" cy="108.185818" rx="16.666667" ry="0.252382" fill="rgb(255, 255, 255)" style="fill-opacity:1.00" />
<rect height="0.378573" width="25.000000" x="295.000000" y="107.996531" fill="rgb(255, 255, 255)" style="fill-opacity:1.00" />
<!-- End 'C' -->
<!-- Begin 'T' -->
<rect height="0.091420" width="50.000000" x="270.000000" y="108.564391" fill="rgb(0, 100, 0)" style="fill-opacity:1.00" />
<rect height="0.571376" width="10.000000" x="290.000000" y="108.564391" fill="rgb(0, 100, 0)" style="fill-opacity:1.00" />
<!-- End 'T' -->
<!-- Begin 'A' -->
<polygon points=" 270.000000, 109.609924, 291.000000, 109.135767, 299.000000, 109.135767, 320.000000, 109.609924, 312.500000, 109.609924, 306.250000, 109.491385, 283.750000, 109.491385, 277.500000, 109.609924" fill="rgb(178, 34, 34)" style="fill-opacity:1.00" />
<!-- End 'A' -->
<!-- Begin 'G' -->
<ellipse cx="295.000000" cy="109.804962" rx="25.000000" ry="0.195038" fill="rgb(255, 165, 0)" style="fill-opacity:1.00" />
<ellipse cx="295.000000" cy="109.804962" rx="16.666667" ry="0.130025" fill="rgb(255, 255, 255)" style="fill-opacity:1.00" />
<rect height="0.195038" width="25.000000" x="295.000000" y="109.707443" fill="rgb(255, 255, 255)" style="fill-opacity:1.00" />
<rect height="0.048760" width="25.000000" x="295.000000" y="109.853721" fill="rgb(255, 165, 0)" style="fill-opacity:1.00" />
<rect height="0.146279" width="6.250000" x="313.750000" y="109.853721" fill="rgb(255, 165, 0)" style="fill-opacity:1.00" />
<!-- End 'G' -->
<!-- Begin 'G' -->
<ellipse cx="355.000000" cy="107.751136" rx="25.000000" ry="0.485390" fill="rgb(255, 165, 0)" style="fill-opacity:1.00" />
<ellipse cx="355.000000" cy="107.751136" rx="16.666667" ry="0.323594" fill="rgb(255, 255, 255)" style="fill-opacity:1.00" />
<rect height="0.485390" width="25.000000" x="355.000000" y="107.508441" fill="rgb(255, 255, 255)" style="fill-opacity:1.00" />
<rect height="0.121348" width="25.000000" x="355.000000" y="107.872483" fill="rgb(255, 165, 0)" style="fill-opacity:1.00" />
<rect height="0.364043" width="6.250000" x="373.750000" y="107.872483" fill="rgb(255, 165, 0)" style="fill-opacity:1.00" />
<!-- End 'G' -->
<!-- Begin 'A' -->
<polygon points=" 330.000000, 108.919420, 351.000000, 108.236526, 359.000000, 108.236526, 380.000000, 108.919420, 372.500000, 108.919420, 366.250000, 108.748696, 343.750000, 108.748696, 337.500000, 108.919420" fill="rgb(178, 34, 34)" style="fill-opacity:1.00" />
<!-- End 'A' -->
<!-- Begin 'T' -->
<rect height="0.102158" width="50.000000" x="330.000000" y="108.919420" fill="rgb(0, 100, 0)" style="fill-opacity:1.00" />
<rect height="0.638488" width="10.000000" x="350.000000" y="108.919420" fill="rgb(0, 100, 0)" style="fill-opacity:1.00" />
<!-- End 'T' -->
<!-- Begin 'C' -->
<ellipse cx="355.000000" cy="109.778954" rx="25.000000" ry="0.221046" fill="rgb(0, 0, 128)" style="fill-opacity:1.00" />
<ellipse cx="355.000000" cy="109.778954" rx="16.666667" ry="0.147364" fill="rgb(255, 255, 255)" style="fill-opacity:1.00" />
<rect height="0.221046" width="25.000000" x="355.000000" y="109.668431" fill="rgb(255, 255, 255)" style="fill-opacity:1.00" />
<!-- End 'C' -->
<!-- Begin 'C' -->
<ellipse cx="415.000000" cy="109.978713" rx="25.000000" ry="0.003167" fill="rgb(0, 0, 128)" style="fill-opacity:1.00" />
<ellipse cx="415.000000" cy="109.978713" rx="16.666667" ry="0.002112" fill="rgb(255, 255, 255)" style="fill-opacity:1.00" />
<rect height="0.003167" width="25.000000" x="415.000000" y="109.977130" fill="rgb(255, 255, 255)" style="fill-opacity:1.00" />
<!-- End 'C' -->
<!-- Begin 'T' -->
<rect height="0.000981" width="50.000000" x="390.000000" y="109.981881" fill="rgb(0, 100, 0)" style="fill-opacity:1.00" />
<rect height="0.006129" width="10.000000" x="410.000000" y="109.981881" fill="rgb(0, 100, 0)" style="fill-opacity:1.00" />
<!-- End 'T' -->
<!-- Begin 'G' -->
<ellipse cx="415.000000" cy="109.991062" rx="25.000000" ry="0.003053" fill="rgb(255, 165, 0)" style="fill-opacity:1.00" />
<ellipse cx="415.000000" cy="109.991062" rx="16.666667" ry="0.002035" fill="rgb(255, 255, 255)" style="fill-opacity:1.00" />
<rect height="0.003053" width="25.000000" x="415.000000" y="109.989536" fill="rgb(255, 255, 255)" style="fill-opacity:1.00" />
<rect height="0.000763" width="25.000000" x="415.000000" y="109.991825" fill="rgb(255, 165, 0)" style="fill-opacity:1.00" />
<rect height="0.002289" width="6.250000" x="433.750000" y="109.991825" fill="rgb(255, 165, 0)" style="fill-opacity:1.00" />
<!-- End 'G' -->
<!-- Begin 'A' -->
<polygon points=" 390.000000, 110.000000, 411.000000, 109.994115, 419.000000, 109.994115, 440.000000, 110.000000, 432.500000, 110.000000, 426.250000, 109.998529, 403.750000, 109.998529, 397.500000, 110.000000" fill="rgb(178, 34, 34)" style="fill-opacity:1.00" />
<!-- End 'A' -->
<!-- Begin 'C' -->
<ellipse cx="475.000000" cy="107.487641" rx="25.000000" ry="0.496670" fill="rgb(0, 0, 128)" style="fill-opacity:1.00" />
<ellipse cx="475.000000" cy="107.487641" rx="16.666667" ry="0.331114" fill="rgb(255, 255, 255)" style="fill-opacity:1.00" />
<rect height="0.496670" width="25.000000" x="475.000000" y="107.239305" fill="rgb(255, 255, 255)" style="fill-opacity:1.00" />
<!-- End 'C' -->
<!-- Begin 'T' -->
<rect height="0.137159" width="50.000000" x="450.000000" y="107.984311" fill="rgb(0, 100, 0)" style="fill-opacity:1.00" />
<rect height="0.857246" width="10.000000" x="470.000000" y="107.984311" fill="rgb(0, 100, 0)" style="fill-opacity:1.00" />
<!-- End 'T' -->
<!-- Begin 'A' -->
<polygon points=" 450.000000, 109.572461, 471.000000, 108.841557, 479.000000, 108.841557, 500.000000, 109.572461, 492.500000, 109.572461, 486.250000, 109.389735, 463.750000, 109.389735, 457.500000, 109.572461" fill="rgb(178, 34, 34)" style="fill-opacity:1.00" />
<!-- End 'A' -->
<!-- Begin 'G' -->
<ellipse cx="475.000000" cy="109.786230" rx="25.000000" ry="0.213770" fill="rgb(255, 165, 0)" style="fill-opacity:1.00" />
<ellipse cx="475.000000" cy="109.786230" rx="16.666667" ry="0.142513" fill="rgb(255, 255, 255)" style="fill-opacity:1.00" />
<rect height="0.213770" width="25.000000" x="475.000000" y="109.679346" fill="rgb(255, 255, 255)" style="fill-opacity:1.00" />
<rect height="0.053442" width="25.000000" x="475.000000" y="109.839673" fill="rgb(255, 165, 0)" style="fill-opacity:1.00" />
<rect height="0.160327" width="6.250000" x="493.750000" y="109.839673" fill="rgb(255, 165, 0)" style="fill-opacity:1.00" />
<!-- End 'G' -->
<!-- Begin 'G' -->
<ellipse cx="535.000000" cy="107.932593" rx="25.000000" ry="0.388256" fill="rgb(255, 165, 0)" style="fill-opacity:1.00" />
<ellipse cx="535.000000" cy="107.932593" rx="16.666667" ry="0.258837" fill="rgb(255, 255, 255)" style="fill-opacity:1.00" />
<rect height="0.388256" width="25.000000" x="535.000000" y="107.738465" fill="rgb(255, 255, 255)" style="fill-opacity:1.00" />
<rect height="0.097064" width="25.000000" x="535.000000" y="108.029657" fill="rgb(255, 165, 0)" style="fill-opacity:1.00" />
<rect height="0.291192" width="6.250000" x="553.750000" y="108.029657" fill="rgb(255, 165, 0)" style="fill-opacity:1.00" />
<!-- End 'G' -->
<!-- Begin 'A' -->
<polygon points=" 510.000000, 109.002065, 531.000000, 108.320849, 539.000000, 108.320849, 560.000000, 109.002065, 552.500000, 109.002065, 546.250000, 108.831761, 523.750000, 108.831761, 517.500000, 109.002065" fill="rgb(178, 34, 34)" style="fill-opacity:1.00" />
<!-- End 'A' -->
<!-- Begin 'T' -->
<rect height="0.101491" width="50.000000" x="510.000000" y="109.002065" fill="rgb(0, 100, 0)" style="fill-opacity:1.00" />
<rect height="0.634319" width="10.000000" x="530.000000" y="109.002065" fill="rgb(0, 100, 0)" style="fill-opacity:1.00" />
<!-- End 'T' -->
<!-- Begin 'C' -->
<ellipse cx="535.000000" cy="109.818192" rx="25.000000" ry="0.181808" fill="rgb(0, 0, 128)" style="fill-opacity:1.00" />
<ellipse cx="535.000000" cy="109.818192" rx="16.666667" ry="0.121205" fill="rgb(255, 255, 255)" style="fill-opacity:1.00" />
<rect height="0.181808" width="25.000000" x="535.000000" y="109.727288" fill="rgb(255, 255, 255)" style="fill-opacity:1.00" />
<!-- End 'C' -->
<!-- Begin 'T' -->
<rect height="0.001711" width="50.000000" x="570.000000" y="109.959158" fill="rgb(0, 100, 0)" style="fill-opacity:1.00" />
<rect height="0.010693" width="10.000000" x="590.000000" y="109.959158" fill="rgb(0, 100, 0)" style="fill-opacity:1.00" />
<!-- End 'T' -->
<!-- Begin 'C' -->
<ellipse cx="595.000000" cy="109.975032" rx="25.000000" ry="0.005181" fill="rgb(0, 0, 128)" style="fill-opacity:1.00" />
<ellipse cx="595.000000" cy="109.975032" rx="16.666667" ry="0.003454" fill="rgb(255, 255, 255)" style="fill-opacity:1.00" />
<rect height="0.005181" width="25.000000" x="595.000000" y="109.972442" fill="rgb(255, 255, 255)" style="fill-opacity:1.00" />
<!-- End 'C' -->
<!-- Begin 'G' -->
<ellipse cx="595.000000" cy="109.985204" rx="25.000000" ry="0.004991" fill="rgb(255, 165, 0)" style="fill-opacity:1.00" />
<ellipse cx="595.000000" cy="109.985204" rx="16.666667" ry="0.003327" fill="rgb(255, 255, 255)" style="fill-opacity:1.00" />
<rect height="0.004991" width="25.000000" x="595.000000" y="109.982709" fill="rgb(255, 255, 255)" style="fill-opacity:1.00" />
<rect height="0.001248" width="25.000000" x="595.000000" y="109.986452" fill="rgb(255, 165, 0)" style="fill-opacity:1.00" />
<rect height="0.003743" width="6.250000" x="613.750000" y="109.986452" fill="rgb(255, 165, 0)" style="fill-opacity:1.00" />
<!-- End 'G' -->
<!-- Begin 'A' -->
<polygon points=" 570.000000, 110.000000, 591.000000, 109.990195, 599.000000, 109.990195, 620.000000, 110.000000, 612.500000, 110.000000, 606.250000, 109.997549, 583.750000, 109.997549, 577.500000, 110.000000" fill="rgb(178, 34, 34)" style="fill-opacity:1.00" />
<!-- End 'A' -->
<!-- Begin 'C' -->
<ellipse cx="655.000000" cy="104.783847" rx="25.000000" ry="1.159277" fill="rgb(0, 0, 128)" style="fill-opacity:1.00" />
<ellipse cx="655.000000" cy="104.783847" rx="16.666667" ry="0.772851" fill="rgb(255, 255, 255)" style="fill-opacity:1.00" />
<rect height="1.159277" width="25.000000" x="655.000000" y="104.204209" fill="rgb(255, 255, 255)" style="fill-opacity:1.00" />
<!-- End 'C' -->
<!-- Begin 'T' -->
<rect height="0.291387" width="50.000000" x="630.000000" y="105.943125" fill="rgb(0, 100, 0)" style="fill-opacity:1.00" />
<rect height="1.821171" width="10.000000" x="650.000000" y="105.943125" fill="rgb(0, 100, 0)" style="fill-opacity:1.00" />
<!-- End 'T' -->
<!-- Begin 'A' -->
<polygon points=" 630.000000, 109.395496, 651.000000, 107.764296, 659.000000, 107.764296, 680.000000, 109.395496, 672.500000, 109.395496, 666.250000, 108.987696, 643.750000, 108.987696, 637.500000, 109.395496" fill="rgb(178, 34, 34)" style="fill-opacity:1.00" />
<!-- End 'A' -->
<!-- Begin 'G' -->
<ellipse cx="655.000000" cy="109.697748" rx="25.000000" ry="0.302252" fill="rgb(255, 165, 0)" style="fill-opacity:1.00" />
<ellipse cx="655.000000" cy="109.697748" rx="16.666667" ry="0.201501" fill="rgb(255, 255, 255)" style="fill-opacity:1.00" />
<rect height="0.302252" width="25.000000" x="655.000000" y="109.546622" fill="rgb(255, 255, 255)" style="fill-opacity:1.00" />
<rect height="0.075563" width="25.000000" x="655.000000" y="109.773311" fill="rgb(255, 165, 0)" style="fill-opacity:1.00" />
<rect height="0.226689" width="6.250000" x="673.750000" y="109.773311" fill="rgb(255, 165, 0)" style="fill-opacity:1.00" />
<!-- End 'G' -->
<!-- Begin 'G' -->
<ellipse cx="715.000000" cy="107.100793" rx="25.000000" ry="0.576759" fill="rgb(255, 165, 0)" style="fill-opacity:1.00" />
<ellipse cx="715.000000" cy="107.100793" rx="16.666667" ry="0.384506" fill="rgb(255, 255, 255)" style="fill-opacity:1.00" />
<rect height="0.576759" width="25.000000" x="715.000000" y="106.812413" fill="rgb(255, 255, 255)" style="fill-opacity:1.00" />
<rect height="0.144190" width="25.000000" x="715.000000" y="107.244983" fill="rgb(255, 165, 0)" style="fill-opacity:1.00" />
<rect height="0.432570" width="6.250000" x="733.750000" y="107.244983" fill="rgb(255, 165, 0)" style="fill-opacity:1.00" />
<!-- End 'G' -->
<!-- Begin 'T' -->
<rect height="0.153514" width="50.000000" x="690.000000" y="107.677552" fill="rgb(0, 100, 0)" style="fill-opacity:1.00" />
<rect height="0.959465" width="10.000000" x="710.000000" y="107.677552" fill="rgb(0, 100, 0)" style="fill-opacity:1.00" />
<!-- End 'T' -->
<!-- Begin 'A' -->
<polygon points=" 690.000000, 109.545428, 711.000000, 108.637017, 719.000000, 108.637017, 740.000000, 109.545428, 732.500000, 109.545428, 726.250000, 109.318325, 703.750000, 109.318325, 697.500000, 109.545428" fill="rgb(178, 34, 34)" style="fill-opacity:1.00" />
<!-- End 'A' -->
<!-- Begin 'C' -->
<ellipse cx="715.000000" cy="109.772714" rx="25.000000" ry="0.227286" fill="rgb(0, 0, 128)" style="fill-opacity:1.00" />
<ellipse cx="715.000000" cy="109.772714" rx="16.666667" ry="0.151524" fill="rgb(255, 255, 255)" style="fill-opacity:1.00" />
<rect height="0.227286" width="25.000000" x="715.000000" y="109.659071" fill="rgb(255, 255, 255)" style="fill-opacity:1.00" />
<!-- End 'C' -->
<!-- Begin 'C' -->
<ellipse cx="775.000000" cy="109.768286" rx="25.000000" ry="0.036402" fill="rgb(0, 0, 128)" style="fill-opacity:1.00" />
<ellipse cx="775.000000" cy="109.768286" rx="16.666667" ry="0.024268" fill="rgb(255, 255, 255)" style="fill-opacity:1.00" />
<rect height="0.036402" width="25.000000" x="775.000000" y="109.750085" fill="rgb(255, 255, 255)" style="fill-opacity:1.00" />
<!-- End 'C' -->
<!-- Begin 'T' -->
<rect height="0.011645" width="50.000000" x="750.000000" y="109.804688" fill="rgb(0, 100, 0)" style="fill-opacity:1.00" />
<rect height="0.072784" width="10.000000" x="770.000000" y="109.804688" fill="rgb(0, 100, 0)" style="fill-opacity:1.00" />
<!-- End 'T' -->
<!-- Begin 'A' -->
<polygon points=" 750.000000, 109.939202, 771.000000, 109.877472, 779.000000, 109.877472, 800.000000, 109.939202, 792.500000, 109.939202, 786.250000, 109.923769, 763.750000, 109.923769, 757.500000, 109.939202" fill="rgb(178, 34, 34)" style="fill-opacity:1.00" />
<!-- End 'A' -->
<!-- Begin 'G' -->
<ellipse cx="775.000000" cy="109.969601" rx="25.000000" ry="0.030399" fill="rgb(255, 165, 0)" style="fill-opacity:1.00" />
<ellipse cx="775.000000" cy="109.969601" rx="16.666667" ry="0.020266" fill="rgb(255, 255, 255)" style="fill-opacity:1.00" />
<rect height="0.030399" width="25.000000" x="775.000000" y="109.954401" fill="rgb(255, 255, 255)" style="fill-opacity:1.00" />
<rect height="0.007600" width="25.000000" x="775.000000" y="109.977201" fill="rgb(255, 165, 0)" style="fill-opacity:1.00" />
<rect height="0.022799" width="6.250000" x="793.750000" y="109.977201" fill="rgb(255, 165, 0)" style="fill-opacity:1.00" />
<!-- End 'G' -->
<!-- Begin 'C' -->
<ellipse cx="835.000000" cy="88.853166" rx="25.000000" ry="9.309251" fill="rgb(0, 0, 128)" style="fill-opacity:1.00" />
<ellipse cx="835.000000" cy="88.853166" rx="16.666667" ry="6.206167" fill="rgb(255, 255, 255)" style="fill-opacity:1.00" />
<rect height="9.309251" width="25.000000" x="835.000000" y="84.198540" fill="rgb(255, 255, 255)" style="fill-opacity:1.00" />
<!-- End 'C' -->
<!-- Begin 'T' -->
<rect height="1.271157" width="50.000000" x="810.000000" y="98.162417" fill="rgb(0, 100, 0)" style="fill-opacity:1.00" />
<rect height="7.944728" width="10.000000" x="830.000000" y="98.162417" fill="rgb(0, 100, 0)" style="fill-opacity:1.00" />
<!-- End 'T' -->
<!-- Begin 'A' -->
<polygon points=" 810.000000, 109.488000, 831.000000, 106.107145, 839.000000, 106.107145, 860.000000, 109.488000, 852.500000, 109.488000, 846.250000, 108.642786, 823.750000, 108.642786, 817.500000, 109.488000" fill="rgb(178, 34, 34)" style="fill-opacity:1.00" />
<!-- End 'A' -->
<!-- Begin 'G' -->
<ellipse cx="835.000000" cy="109.744000" rx="25.000000" ry="0.256000" fill="rgb(255, 165, 0)" style="fill-opacity:1.00" />
<ellipse cx="835.000000" cy="109.744000" rx="16.666667" ry="0.170667" fill="rgb(255, 255, 255)" style="fill-opacity:1.00" />
<rect height="0.256000" width="25.000000" x="835.000000" y="109.616000" fill="rgb(255, 255, 255)" style="fill-opacity:1.00" />
<rect height="0.064000" width="25.000000" x="835.000000" y="109.808000" fill="rgb(255, 165, 0)" style="fill-opacity:1.00" />
<rect height="0.192000" width="6.250000" x="853.750000" y="109.808000" fill="rgb(255, 165, 0)" style="fill-opacity:1.00" />
<!-- End 'G' -->
<!-- Begin 'G' -->
<ellipse cx="895.000000" cy="88.437768" rx="25.000000" ry="10.075044" fill="rgb(255, 165, 0)" style="fill-opacity:1.00" />
<ellipse cx="895.000000" cy="88.437768" rx="16.666667" ry="6.716696" fill="rgb(255, 255, 255)" style="fill-opacity:1.00" />
<rect height="10.075044" width="25.000000" x="895.000000" y="83.400246" fill="rgb(255, 255, 255)" style="fill-opacity:1.00" />
<rect height="2.518761" width="25.000000" x="895.000000" y="90.956529" fill="rgb(255, 165, 0)" style="fill-opacity:1.00" />
<rect height="7.556283" width="6.250000" x="913.750000" y="90.956529" fill="rgb(255, 165, 0)" style="fill-opacity:1.00" />
<!-- End 'G' -->
<!-- Begin 'A' -->
<polygon points=" 870.000000, 105.954885, 891.000000, 98.512812, 899.000000, 98.512812, 920.000000, 105.954885, 912.500000, 105.954885, 906.250000, 104.094367, 883.750000, 104.094367, 877.500000, 105.954885" fill="rgb(178, 34, 34)" style="fill-opacity:1.00" />
<!-- End 'A' -->
<!-- Begin 'T' -->
<rect height="0.541331" width="50.000000" x="870.000000" y="105.954885" fill="rgb(0, 100, 0)" style="fill-opacity:1.00" />
<rect height="3.383317" width="10.000000" x="890.000000" y="105.954885" fill="rgb(0, 100, 0)" style="fill-opacity:1.00" />
<!-- End 'T' -->
<!-- Begin 'C' -->
<ellipse cx="895.000000" cy="109.669101" rx="25.000000" ry="0.330899" fill="rgb(0, 0, 128)" style="fill-opacity:1.00" />
<ellipse cx="895.000000" cy="109.669101" rx="16.666667" ry="0.220599" fill="rgb(255, 255, 255)" style="fill-opacity:1.00" />
<rect height="0.330899" width="25.000000" x="895.000000" y="109.503652" fill="rgb(255, 255, 255)" style="fill-opacity:1.00" />
<!-- End 'C' -->
<!-- Begin 'C' -->
<ellipse cx="955.000000" cy="102.882774" rx="25.000000" ry="2.059806" fill="rgb(0, 0, 128)" style="fill-opacity:1.00" />
<ellipse cx="955.000000" cy="102.882774" rx="16.666667" ry="1.373204" fill="rgb(255, 255, 255)" style="fill-opacity:1.00" />
<rect height="2.059806" width="25.000000" x="955.000000" y="101.852871" fill="rgb(255, 255, 255)" style="fill-opacity:1.00" />
<!-- End 'C' -->
<!-- Begin 'G' -->
<ellipse cx="955.000000" cy="106.210424" rx="25.000000" ry="1.267844" fill="rgb(255, 165, 0)" style="fill-opacity:1.00" />
<ellipse cx="955.000000" cy="106.210424" rx="16.666667" ry="0.845229" fill="rgb(255, 255, 255)" style="fill-opacity:1.00" />
<rect height="1.267844" width="25.000000" x="955.000000" y="105.576502" fill="rgb(255, 255, 255)" style="fill-opacity:1.00" />
<rect height="0.316961" width="25.000000" x="955.000000" y="106.527385" fill="rgb(255, 165, 0)" style="fill-opacity:1.00" />
<rect height="0.950883" width="6.250000" x="973.750000" y="106.527385" fill="rgb(255, 165, 0)" style="fill-opacity:1.00" />
<!-- End 'G' -->
<!-- Begin 'T' -->
<rect height="0.221339" width="50.000000" x="930.000000" y="107.478268" fill="rgb(0, 100, 0)" style="fill-opacity:1.00" />
<rect height="1.383372" width="10.000000" x="950.000000" y="107.478268" fill="rgb(0, 100, 0)" style="fill-opacity:1.00" />
<!-- End 'T' -->
<!-- Begin 'A' -->
<polygon points=" 930.000000, 110.000000, 951.000000, 108.861639, 959.000000, 108.861639, 980.000000, 110.000000, 972.500000, 110.000000, 966.250000, 109.715410, 943.750000, 109.715410, 937.500000, 110.000000" fill="rgb(178, 34, 34)" style="fill-opacity:1.00" />
<!-- End 'A' -->
<!-- Begin 'C' -->
<ellipse cx="1015.000000" cy="78.942252" rx="25.000000" ry="20.307375" fill="rgb(0, 0, 128)" style="fill-opacity:1.00" />
<ellipse cx="1015.000000" cy="78.942252" rx="16.666667" ry="13.538250" fill="rgb(255, 255, 255)" style="fill-opacity:1.00" />
<rect height="20.307375" width="25.000000" x="1015.000000" y="68.788565" fill="rgb(255, 255, 255)" style="fill-opacity:1.00" />
<!-- End 'C' -->
<!-- Begin 'T' -->
<rect height="1.095781" width="50.000000" x="990.000000" y="99.249627" fill="rgb(0, 100, 0)" style="fill-opacity:1.00" />
<rect height="6.848631" width="10.000000" x="1010.000000" y="99.249627" fill="rgb(0, 100, 0)" style="fill-opacity:1.00" />
<!-- End 'T' -->
<!-- Begin 'A' -->
<polygon points=" 990.000000, 109.623632, 1011.000000, 106.098259, 1019.000000, 106.098259, 1040.000000, 109.623632, 1032.500000, 109.623632, 1026.250000, 108.742289, 1003.750000, 108.742289, 997.500000, 109.623632" fill="rgb(178, 34, 34)" style="fill-opacity:1.00" />
<!-- End 'A' -->
<!-- Begin 'G' -->
<ellipse cx="1015.000000" cy="109.811816" rx="25.000000" ry="0.188184" fill="rgb(255, 165, 0)" style="fill-opacity:1.00" />
<ellipse cx="1015.000000" cy="109.811816" rx="16.666667" ry="0.125456" fill="rgb(255, 255, 255)" style="fill-opacity:1.00" />
<rect height="0.188184" width="25.000000" x="1015.000000" y="109.717724" fill="rgb(255, 255, 255)" style="fill-opacity:1.00" />
<rect height="0.047046" width="25.000000" x="1015.000000" y="109.858862" fill="rgb(255, 165, 0)" style="fill-opacity:1.00" />
<rect height="0.141138" width="6.250000" x="1033.750000" y="109.858862" fill="rgb(255, 165, 0)" style="fill-opacity:1.00" />
<!-- End 'G' -->
<!-- Begin 'G' -->
<ellipse cx="1075.000000" cy="78.109749" rx="25.000000" ry="22.011318" fill="rgb(255, 165, 0)" style="fill-opacity:1.00" />
<ellipse cx="1075.000000" cy="78.109749" rx="16.666667" ry="14.674212" fill="rgb(255, 255, 255)" style="fill-opacity:1.00" />
<rect height="22.011318" width="25.000000" x="1075.000000" y="67.104090" fill="rgb(255, 255, 255)" style="fill-opacity:1.00" />
<rect height="5.502829" width="25.000000" x="1075.000000" y="83.612578" fill="rgb(255, 165, 0)" style="fill-opacity:1.00" />
<rect height="16.508488" width="6.250000" x="1093.750000" y="83.612578" fill="rgb(255, 165, 0)" style="fill-opacity:1.00" />
<!-- End 'G' -->
<!-- Begin 'A' -->
<polygon points=" 1050.000000, 105.373863, 1071.000000, 100.121067, 1079.000000, 100.121067, 1100.000000, 105.373863, 1092.500000, 105.373863, 1086.250000, 104.060664, 1063.750000, 104.060664, 1057.500000, 105.373863" fill="rgb(178, 34, 34)" style="fill-opacity:1.00" />
<!-- End 'A' -->
<!-- Begin 'T' -->
<rect height="0.630221" width="50.000000" x="1050.000000" y="105.373863" fill="rgb(0, 100, 0)" style="fill-opacity:1.00" />
<rect height="3.938883" width="10.000000" x="1070.000000" y="105.373863" fill="rgb(0, 100, 0)" style="fill-opacity:1.00" />
<!-- End 'T' -->
<!-- Begin 'C' -->
<ellipse cx="1075.000000" cy="109.656373" rx="25.000000" ry="0.343627" fill="rgb(0, 0, 128)" style="fill-opacity:1.00" />
<ellipse cx="1075.000000" cy="109.656373" rx="16.666667" ry="0.229085" fill="rgb(255, 255, 255)" style="fill-opacity:1.00" />
<rect height="0.343627" width="25.000000" x="1075.000000" y="109.484560" fill="rgb(255, 255, 255)" style="fill-opacity:1.00" />
<!-- End 'C' -->
<!-- Begin 'G' -->
<ellipse cx="1135.000000" cy="106.915053" rx="25.000000" ry="0.757323" fill="rgb(255, 165, 0)" style="fill-opacity:1.00" />
<ellipse cx="1135.000000" cy="106.915053" rx="16.666667" ry="0.504882" fill="rgb(255, 255, 255)" style="fill-opacity:1.00" />
<rect height="0.757323" width="25.000000" x="1135.000000" y="106.536391" fill="rgb(255, 255, 255)" style="fill-opacity:1.00" />
<rect height="0.189331" width="25.000000" x="1135.000000" y="107.104383" fill="rgb(255, 165, 0)" style="fill-opacity:1.00" />
<rect height="0.567992" width="6.250000" x="1153.750000" y="107.104383" fill="rgb(255, 165, 0)" style="fill-opacity:1.00" />
<!-- End 'G' -->
<!-- Begin 'C' -->
<ellipse cx="1135.000000" cy="108.112124" rx="25.000000" ry="0.439748" fill="rgb(0, 0, 128)" style="fill-opacity:1.00" />
<ellipse cx="1135.000000" cy="108.112124" rx="16.666667" ry="0.293165" fill="rgb(255, 255, 255)" style="fill-opacity:1.00" />
<rect height="0.439748" width="25.000000" x="1135.000000" y="107.892250" fill="rgb(255, 255, 255)" style="fill-opacity:1.00" />
<!-- End 'C' -->
<!-- Begin 'A' -->
<polygon points=" 1110.000000, 109.311273, 1131.000000, 108.551872, 1139.000000, 108.551872, 1160.000000, 109.311273, 1152.500000, 109.311273, 1146.250000, 109.121423, 1123.750000, 109.121423, 1117.500000, 109.311273" fill="rgb(178, 34, 34)" style="fill-opacity:1.00" />
<!-- End 'A' -->
<!-- Begin 'T' -->
<rect height="0.110196" width="50.000000" x="1110.000000" y="109.311273" fill="rgb(0, 100, 0)" style="fill-opacity:1.00" />
<rect height="0.688727" width="10.000000" x="1130.000000" y="109.311273" fill="rgb(0, 100, 0)" style="fill-opacity:1.00" />
<!-- End 'T' -->
<!-- Begin 'C' -->
<ellipse cx="1195.000000" cy="90.608122" rx="25.000000" ry="8.716213" fill="rgb(0, 0, 128)" style="fill-opacity:1.00" />
<ellipse cx="1195.000000" cy="90.608122" rx="16.666667" ry="5.810809" fill="rgb(255, 255, 255)" style="fill-opacity:1.00" />
<rect height="8.716213" width="25.000000" x="1195.000000" y="86.250016" fill="rgb(255, 255, 255)" style="fill-opacity:1.00" />
<!-- End 'C' -->
<!-- Begin 'T' -->
<rect height="1.018348" width="50.000000" x="1170.000000" y="99.324336" fill="rgb(0, 100, 0)" style="fill-opacity:1.00" />
<rect height="6.364677" width="10.000000" x="1190.000000" y="99.324336" fill="rgb(0, 100, 0)" style="fill-opacity:1.00" />
<!-- End 'T' -->
<!-- Begin 'A' -->
<polygon points=" 1170.000000, 109.143357, 1191.000000, 105.689012, 1199.000000, 105.689012, 1220.000000, 109.143357, 1212.500000, 109.143357, 1206.250000, 108.279771, 1183.750000, 108.279771, 1177.500000, 109.143357" fill="rgb(178, 34, 34)" style="fill-opacity:1.00" />
<!-- End 'A' -->
<!-- Begin 'G' -->
<ellipse cx="1195.000000" cy="109.571679" rx="25.000000" ry="0.428321" fill="rgb(255, 165, 0)" style="fill-opacity:1.00" />
<ellipse cx="1195.000000" cy="109.571679" rx="16.666667" ry="0.285548" fill="rgb(255, 255, 255)" style="fill-opacity:1.00" />
<rect height="0.428321" width="25.000000" x="1195.000000" y="109.357518" fill="rgb(255, 255, 255)" style="fill-opacity:1.00" />
<rect height="0.107080" width="25.000000" x="1195.000000" y="109.678759" fill="rgb(255, 165, 0)" style="fill-opacity:1.00" />
<rect height="0.321241" width="6.250000" x="1213.750000" y="109.678759" fill="rgb(255, 165, 0)" style="fill-opacity:1.00" />
<!-- End 'G' -->
<!-- Begin 'G' -->
<ellipse cx="1255.000000" cy="97.709019" rx="25.000000" ry="3.977636" fill="rgb(255, 165, 0)" style="fill-opacity:1.00" />
<ellipse cx="1255.000000" cy="97.709019" rx="16.666667" ry="2.651757" fill="rgb(255, 255, 255)" style="fill-opacity:1.00" />
<rect height="3.977636" width="25.000000" x="1255.000000" y="95.720201" fill="rgb(255, 255, 255)" style="fill-opacity:1.00" />
<rect height="0.994409" width="25.000000" x="1255.000000" y="98.703428" fill="rgb(255, 165, 0)" style="fill-opacity:1.00" />
<rect height="2.983227" width="6.250000" x="1273.750000" y="98.703428" fill="rgb(255, 165, 0)" style="fill-opacity:1.00" />
<!-- End 'G' -->
<!-- Begin 'A' -->
<polygon points=" 1230.000000, 106.381306, 1251.000000, 101.686655, 1259.000000, 101.686655, 1280.000000, 106.381306, 1272.500000, 106.381306, 1266.250000, 105.207643, 1243.750000, 105.207643, 1237.500000, 106.381306" fill="rgb(178, 34, 34)" style="fill-opacity:1.00" />
<!-- End 'A' -->
<!-- Begin 'T' -->
<rect height="0.450068" width="50.000000" x="1230.000000" y="106.381306" fill="rgb(0, 100, 0)" style="fill-opacity:1.00" />
<rect height="2.812927" width="10.000000" x="1250.000000" y="106.381306" fill="rgb(0, 100, 0)" style="fill-opacity:1.00" />
<!-- End 'T' -->
<!-- Begin 'C' -->
<ellipse cx="1255.000000" cy="109.597117" rx="25.000000" ry="0.402883" fill="rgb(0, 0, 128)" style="fill-opacity:1.00" />
<ellipse cx="1255.000000" cy="109.597117" rx="16.666667" ry="0.268589" fill="rgb(255, 255, 255)" style="fill-opacity:1.00" />
<rect height="0.402883" width="25.000000" x="1255.000000" y="109.395675" fill="rgb(255, 255, 255)" style="fill-opacity:1.00" />
<!-- End 'C' -->
<text x="670.000000" y="165">
IC = 4.99
</text>

</svg>
