<?xml version="1.0" encoding="UTF-8" standalone="yes"?>
                 <!DOCTYPE svg PUBLIC "-//W3C//DTD SVG 1.0//EN" "http://www.w3.org/TR/2001/REC-SVG-20010904/DTD/svg10.dtd">
                 <svg height="170" width="1020" xmlns="http://www.w3.org/2000/svg" xmlns:xlink="http://www.w3.org/1999/xlink">
                 <line x1="85" y1="120" x2="987" y2="120" style="stroke:rgb(99,99,99);stroke-width:2" />
<rect height="7.000000" width="2.000000" x="85.000000" y="120.000000" fill="rgb(0, 0, 0)" style="fill-opacity:1.00" />
<text x="107.000000" y="140">
1
</text>
<rect height="7.000000" width="2.000000" x="145.000000" y="120.000000" fill="rgb(0, 0, 0)" style="fill-opacity:1.00" />
<text x="167.000000" y="140">
2
</text>
<rect height="7.000000" width="2.000000" x="205.000000" y="120.000000" fill="rgb(0, 0, 0)" style="fill-opacity:1.00" />
<text x="227.000000" y="140">
3
</text>
<rect height="7.000000" width="2.000000" x="265.000000" y="120.000000" fill="rgb(0, 0, 0)" style="fill-opacity:1.00" />
<text x="287.000000" y="140">
4
</text>
<rect height="7.000000" width="2.000000" x="325.000000" y="120.000000" fill="rgb(0, 0, 0)" style="fill-opacity:1.00" />
<text x="347.000000" y="140">
5
</text>
<rect height="7.000000" width="2.000000" x="385.000000" y="120.000000" fill="rgb(0, 0, 0)" style="fill-opacity:1.00" />
<text x="407.000000" y="140">
6
</text>
<rect height="7.000000" width="2.000000" x="445.000000" y="120.000000" fill="rgb(0, 0, 0)" style="fill-opacity:1.00" />
<text x="467.000000" y="140">
7
</text>
<rect height="7.000000" width="2.000000" x="505.000000" y="120.000000" fill="rgb(0, 0, 0)" style="fill-opacity:1.00" />
<text x="527.000000" y="140">
8
</text>
<rect height="7.000000" width="2.000000" x="565.000000" y="120.000000" fill="rgb(0, 0, 0)" style="fill-opacity:1.00" />
<text x="587.000000" y="140">
9
</text>
<rect height="7.000000" width="2.000000" x="625.000000" y="120.000000" fill="rgb(0, 0, 0)" style="fill-opacity:1.00" />
<text x="647.000000" y="140">
10
</text>
<rect height="7.000000" width="2.000000" x="685.000000" y="120.000000" fill="rgb(0, 0, 0)" style="fill-opacity:1.00" />
<text x="707.000000" y="140">
11
</text>
<rect height="7.000000" width="2.000000" x="745.000000" y="120.000000" fill="rgb(0, 0, 0)" style="fill-opacity:1.00" />
<text x="767.000000" y="140">
12
</text>
<rect height="7.000000" width="2.000000" x="805.000000" y="120.000000" fill="rgb(0, 0, 0)" style="fill-opacity:1.00" />
<text x="827.000000" y="140">
13
</text>
<rect height="7.000000" width="2.000000" x="865.000000" y="120.000000" fill="rgb(0, 0, 0)" style="fill-opacity:1.00" />
<text x="887.000000" y="140">
14
</text>
<rect height="7.000000" width="2.000000" x="925.000000" y="120.000000" fill="rgb(0, 0, 0)" style="fill-opacity:1.00" />
<text x="947.000000" y="140">
15
</text>
<rect height="7.000000" width="2.000000" x="985.000000" y="120.000000" fill="rgb(0, 0, 0)" style="fill-opacity:1.00" />
<line x1="80" y1="112" x2="80" y2="10" style="stroke:rgb(99,99,99);stroke-width:2" />
<rect height="2.000000" width="7.000000" x="73.000000" y="110.000000" fill="rgb(0, 0, 0)" style="fill-opacity:1.00" />
<text x="63" y="115">
0
</text>
<rect height="2.000000" width="7.000000" x="73.000000" y="60.000000" fill="rgb(0, 0, 0)" style="fill-opacity:1.00" />
<text x="63" y="65">
1
</text>
<rect height="2.000000" width="7.000000" x="73.000000" y="10.000000" fill="rgb(0, 0, 0)" style="fill-opacity:1.00" />
<text x="63" y="15">
2
</text>
<text x="50" y="65"
transform="rotate(-90, 50, 70)">
bits
</text>
<!-- Begin 'G' -->
<ellipse cx="115.000000" cy="106.510184" rx="25.000000" ry="0.749979" fill="rgb(255, 165, 0)" style="fill-opacity:1.00" />
<ellipse cx="115.000000" cy="106.510184" rx="16.666667" ry="0.499986" fill="rgb(255, 255, 255)" style="fill-opacity:1.00" />
<rect height="0.749979" width="25.000000" x="115.000000" y="106.135195" fill="rgb(255, 255, 255)" style="fill-opacity:1.00" />
<rect height="0.187495" width="25.000000" x="115.000000" y="106.697679" fill="rgb(255, 165, 0)" style="fill-opacity:1.00" />
<rect height="0.562484" width="6.250000" x="133.750000" y="106.697679" fill="rgb(255, 165, 0)" style="fill-opacity:1.00" />
<!-- End 'G' -->
<!-- Begin 'A' -->
<polygon points=" 90.000000, 108.477893, 111.000000, 107.260164, 119.000000, 107.260164, 140.000000, 108.477893, 132.500000, 108.477893, 126.250000, 108.173460, 103.750000, 108.173460, 97.500000, 108.477893" fill="rgb(178, 34, 34)" style="fill-opacity:1.00" />
<!-- End 'A' -->
<!-- Begin 'T' -->
<rect height="0.156733" width="50.000000" x="90.000000" y="108.477893" fill="rgb(0, 100, 0)" style="fill-opacity:1.00" />
<rect height="0.979579" width="10.000000" x="110.000000" y="108.477893" fill="rgb(0, 100, 0)" style="fill-opacity:1.00" />
<!-- End 'T' -->
<!-- Begin 'C' -->
<ellipse cx="115.000000" cy="109.728736" rx="25.000000" ry="0.271264" fill="rgb(0, 0, 128)" style="fill-opacity:1.00" />
<ellipse cx="115.000000" cy="109.728736" rx="16.666667" ry="0.180843" fill="rgb(255, 255, 255)" style="fill-opacity:1.00" />
<rect height="0.271264" width="25.000000" x="115.000000" y="109.593104" fill="rgb(255, 255, 255)" style="fill-opacity:1.00" />
<!-- End 'C' -->
<!-- Begin 'G' -->
<ellipse cx="175.000000" cy="109.616705" rx="25.000000" ry="0.061927" fill="rgb(255, 165, 0)" style="fill-opacity:1.00" />
<ellipse cx="175.000000" cy="109.616705" rx="16.666667" ry="0.041285" fill="rgb(255, 255, 255)" style="fill-opacity:1.00" />
<rect height="0.061927" width="25.000000" x="175.000000" y="109.585742" fill="rgb(255, 255, 255)" style="fill-opacity:1.00" />
<rect height="0.015482" width="25.000000" x="175.000000" y="109.632187" fill="rgb(255, 165, 0)" style="fill-opacity:1.00" />
<rect height="0.046445" width="6.250000" x="193.750000" y="109.632187" fill="rgb(255, 165, 0)" style="fill-opacity:1.00" />
<!-- End 'G' -->
<!-- Begin 'C' -->
<ellipse cx="175.000000" cy="109.738662" rx="25.000000" ry="0.060030" fill="rgb(0, 0, 128)" style="fill-opacity:1.00" />
<ellipse cx="175.000000" cy="109.738662" rx="16.666667" ry="0.040020" fill="rgb(255, 255, 255)" style="fill-opacity:1.00" />
<rect height="0.060030" width="25.000000" x="175.000000" y="109.708647" fill="rgb(255, 255, 255)" style="fill-opacity:1.00" />
<!-- End 'C' -->
<!-- Begin 'T' -->
<rect height="0.017424" width="50.000000" x="150.000000" y="109.798692" fill="rgb(0, 100, 0)" style="fill-opacity:1.00" />
<rect height="0.108902" width="10.000000" x="170.000000" y="109.798692" fill="rgb(0, 100, 0)" style="fill-opacity:1.00" />
<!-- End 'T' -->
<!-- Begin 'A' -->
<polygon points=" 150.000000, 110.000000, 171.000000, 109.907594, 179.000000, 109.907594, 200.000000, 110.000000, 192.500000, 110.000000, 186.250000, 109.976899, 163.750000, 109.976899, 157.500000, 110.000000" fill="rgb(178, 34, 34)" style="fill-opacity:1.00" />
<!-- End 'A' -->
<!-- Begin 'C' -->
<ellipse cx="235.000000" cy="102.197581" rx="25.000000" ry="2.168704" fill="rgb(0, 0, 128)" style="fill-opacity:1.00" />
<ellipse cx="235.000000" cy="102.197581" rx="16.666667" ry="1.445802" fill="rgb(255, 255, 255)" style="fill-opacity:1.00" />
<rect height="2.168704" width="25.000000" x="235.000000" y="101.113229" fill="rgb(255, 255, 255)" style="fill-opacity:1.00" />
<!-- End 'C' -->
<!-- Begin 'T' -->
<rect height="0.414699" width="50.000000" x="210.000000" y="104.366285" fill="rgb(0, 100, 0)" style="fill-opacity:1.00" />
<rect height="2.591868" width="10.000000" x="230.000000" y="104.366285" fill="rgb(0, 100, 0)" style="fill-opacity:1.00" />
<!-- End 'T' -->
<!-- Begin 'A' -->
<polygon points=" 210.000000, 109.220952, 231.000000, 106.958153, 239.000000, 106.958153, 260.000000, 109.220952, 252.500000, 109.220952, 246.250000, 108.655253, 223.750000, 108.655253, 217.500000, 109.220952" fill="rgb(178, 34, 34)" style="fill-opacity:1.00" />
<!-- End 'A' -->
<!-- Begin 'G' -->
<ellipse cx="235.000000" cy="109.610476" rx="25.000000" ry="0.389524" fill="rgb(255, 165, 0)" style="fill-opacity:1.00" />
<ellipse cx="235.000000" cy="109.610476" rx="16.666667" ry="0.259683" fill="rgb(255, 255, 255)" style="fill-opacity:1.00" />
<rect height="0.389524" width="25.000000" x="235.000000" y="109.415714" fill="rgb(255, 255, 255)" style="fill-opacity:1.00" />
<rect height="0.097381" width="25.000000" x="235.000000" y="109.707857" fill="rgb(255, 165, 0)" style="fill-opacity:1.00" />
<rect height="0.292143" width="6.250000" x="253.750000" y="109.707857" fill="rgb(255, 165, 0)" style="fill-opacity:1.00" />
<!-- End 'G' -->
<!-- Begin 'G' -->
<ellipse cx="295.000000" cy="106.437855" rx="25.000000" ry="0.727909" fill="rgb(255, 165, 0)" style="fill-opacity:1.00" />
<ellipse cx="295.000000" cy="106.437855" rx="16.666667" ry="0.485273" fill="rgb(255, 255, 255)" style="fill-opacity:1.00" />
<rect height="0.727909" width="25.000000" x="295.000000" y="106.073901" fill="rgb(255, 255, 255)" style="fill-opacity:1.00" />
<rect height="0.181977" width="25.000000" x="295.000000" y="106.619833" fill="rgb(255, 165, 0)" style="fill-opacity:1.00" />
<rect height="0.545932" width="6.250000" x="313.750000" y="106.619833" fill="rgb(255, 165, 0)" style="fill-opacity:1.00" />
<!-- End 'G' -->
<!-- Begin 'A' -->
<polygon points=" 270.000000, 108.398027, 291.000000, 107.165765, 299.000000, 107.165765, 320.000000, 108.398027, 312.500000, 108.398027, 306.250000, 108.089961, 283.750000, 108.089961, 277.500000, 108.398027" fill="rgb(178, 34, 34)" style="fill-opacity:1.00" />
<!-- End 'A' -->
<!-- Begin 'T' -->
<rect height="0.174436" width="50.000000" x="270.000000" y="108.398027" fill="rgb(0, 100, 0)" style="fill-opacity:1.00" />
<rect height="1.090226" width="10.000000" x="290.000000" y="108.398027" fill="rgb(0, 100, 0)" style="fill-opacity:1.00" />
<!-- End 'T' -->
<!-- Begin 'C' -->
<ellipse cx="295.000000" cy="109.744126" rx="25.000000" ry="0.255874" fill="rgb(0, 0, 128)" style="fill-opacity:1.00" />
<ellipse cx="295.000000" cy="109.744126" rx="16.666667" ry="0.170582" fill="rgb(255, 255, 255)" style="fill-opacity:1.00" />
<rect height="0.255874" width="25.000000" x="295.000000" y="109.616190" fill="rgb(255, 255, 255)" style="fill-opacity:1.00" />
<!-- End 'C' -->
<!-- Begin 'C' -->
<ellipse cx="355.000000" cy="109.024745" rx="25.000000" ry="0.173500" fill="rgb(0, 0, 128)" style="fill-opacity:1.00" />
<ellipse cx="355.000000" cy="109.024745" rx="16.666667" ry="0.115667" fill="rgb(255, 255, 255)" style="fill-opacity:1.00" />
<rect height="0.173500" width="25.000000" x="355.000000" y="108.937994" fill="rgb(255, 255, 255)" style="fill-opacity:1.00" />
<!-- End 'C' -->
<!-- Begin 'G' -->
<ellipse cx="355.000000" cy="109.357738" rx="25.000000" ry="0.159493" fill="rgb(255, 165, 0)" style="fill-opacity:1.00" />
<ellipse cx="355.000000" cy="109.357738" rx="16.666667" ry="0.106329" fill="rgb(255, 255, 255)" style="fill-opacity:1.00" />
<rect height="0.159493" width="25.000000" x="355.000000" y="109.277992" fill="rgb(255, 255, 255)" style="fill-opacity:1.00" />
<rect height="0.039873" width="25.000000" x="355.000000" y="109.397611" fill="rgb(255, 165, 0)" style="fill-opacity:1.00" />
<rect height="0.119620" width="6.250000" x="373.750000" y="109.397611" fill="rgb(255, 165, 0)" style="fill-opacity:1.00" />
<!-- End 'G' -->
<!-- Begin 'T' -->
<rect height="0.042945" width="50.000000" x="330.000000" y="109.517231" fill="rgb(0, 100, 0)" style="fill-opacity:1.00" />
<rect height="0.268405" width="10.000000" x="350.000000" y="109.517231" fill="rgb(0, 100, 0)" style="fill-opacity:1.00" />
<!-- End 'T' -->
<!-- Begin 'A' -->
<polygon points=" 330.000000, 110.000000, 351.000000, 109.785637, 359.000000, 109.785637, 380.000000, 110.000000, 372.500000, 110.000000, 366.250000, 109.946409, 343.750000, 109.946409, 337.500000, 110.000000" fill="rgb(178, 34, 34)" style="fill-opacity:1.00" />
<!-- End 'A' -->
<!-- Begin 'C' -->
<ellipse cx="415.000000" cy="91.611607" rx="25.000000" ry="8.089339" fill="rgb(0, 0, 128)" style="fill-opacity:1.00" />
<ellipse cx="415.000000" cy="91.611607" rx="16.666667" ry="5.392893" fill="rgb(255, 255, 255)" style="fill-opacity:1.00" />
<rect height="8.089339" width="25.000000" x="415.000000" y="87.566937" fill="rgb(255, 255, 255)" style="fill-opacity:1.00" />
<!-- End 'C' -->
<!-- Begin 'T' -->
<rect height="0.988965" width="50.000000" x="390.000000" y="99.700946" fill="rgb(0, 100, 0)" style="fill-opacity:1.00" />
<rect height="6.181029" width="10.000000" x="410.000000" y="99.700946" fill="rgb(0, 100, 0)" style="fill-opacity:1.00" />
<!-- End 'T' -->
<!-- Begin 'A' -->
<polygon points=" 390.000000, 108.927634, 411.000000, 105.881975, 419.000000, 105.881975, 440.000000, 108.927634, 432.500000, 108.927634, 426.250000, 108.166219, 403.750000, 108.166219, 397.500000, 108.927634" fill="rgb(178, 34, 34)" style="fill-opacity:1.00" />
<!-- End 'A' -->
<!-- Begin 'G' -->
<ellipse cx="415.000000" cy="109.463817" rx="25.000000" ry="0.536183" fill="rgb(255, 165, 0)" style="fill-opacity:1.00" />
<ellipse cx="415.000000" cy="109.463817" rx="16.666667" ry="0.357455" fill="rgb(255, 255, 255)" style="fill-opacity:1.00" />
<rect height="0.536183" width="25.000000" x="415.000000" y="109.195725" fill="rgb(255, 255, 255)" style="fill-opacity:1.00" />
<rect height="0.134046" width="25.000000" x="415.000000" y="109.597863" fill="rgb(255, 165, 0)" style="fill-opacity:1.00" />
<rect height="0.402137" width="6.250000" x="433.750000" y="109.597863" fill="rgb(255, 165, 0)" style="fill-opacity:1.00" />
<!-- End 'G' -->
<!-- Begin 'G' -->
<ellipse cx="475.000000" cy="86.671065" rx="25.000000" ry="11.616179" fill="rgb(255, 165, 0)" style="fill-opacity:1.00" />
<ellipse cx="475.000000" cy="86.671065" rx="16.666667" ry="7.744120" fill="rgb(255, 255, 255)" style="fill-opacity:1.00" />
<rect height="11.616179" width="25.000000" x="475.000000" y="80.862975" fill="rgb(255, 255, 255)" style="fill-opacity:1.00" />
<rect height="2.904045" width="25.000000" x="475.000000" y="89.575110" fill="rgb(255, 165, 0)" style="fill-opacity:1.00" />
<rect height="8.712135" width="6.250000" x="493.750000" y="89.575110" fill="rgb(255, 165, 0)" style="fill-opacity:1.00" />
<!-- End 'G' -->
<!-- Begin 'A' -->
<polygon points=" 450.000000, 105.911444, 471.000000, 98.287244, 479.000000, 98.287244, 500.000000, 105.911444, 492.500000, 105.911444, 486.250000, 104.005394, 463.750000, 104.005394, 457.500000, 105.911444" fill="rgb(178, 34, 34)" style="fill-opacity:1.00" />
<!-- End 'A' -->
<!-- Begin 'T' -->
<rect height="0.562974" width="50.000000" x="450.000000" y="105.911444" fill="rgb(0, 100, 0)" style="fill-opacity:1.00" />
<rect height="3.518588" width="10.000000" x="470.000000" y="105.911444" fill="rgb(0, 100, 0)" style="fill-opacity:1.00" />
<!-- End 'T' -->
<!-- Begin 'C' -->
<ellipse cx="475.000000" cy="109.715016" rx="25.000000" ry="0.284984" fill="rgb(0, 0, 128)" style="fill-opacity:1.00" />
<ellipse cx="475.000000" cy="109.715016" rx="16.666667" ry="0.189989" fill="rgb(255, 255, 255)" style="fill-opacity:1.00" />
<rect height="0.284984" width="25.000000" x="475.000000" y="109.572524" fill="rgb(255, 255, 255)" style="fill-opacity:1.00" />
<!-- End 'C' -->
<!-- Begin 'C' -->
<ellipse cx="535.000000" cy="104.492054" rx="25.000000" ry="1.398944" fill="rgb(0, 0, 128)" style="fill-opacity:1.00" />
<ellipse cx="535.000000" cy="104.492054" rx="16.666667" ry="0.932629" fill="rgb(255, 255, 255)" style="fill-opacity:1.00" />
<rect height="1.398944" width="25.000000" x="535.000000" y="103.792582" fill="rgb(255, 255, 255)" style="fill-opacity:1.00" />
<!-- End 'C' -->
<!-- Begin 'G' -->
<ellipse cx="535.000000" cy="106.929586" rx="25.000000" ry="1.038589" fill="rgb(255, 165, 0)" style="fill-opacity:1.00" />
<ellipse cx="535.000000" cy="106.929586" rx="16.666667" ry="0.692392" fill="rgb(255, 255, 255)" style="fill-opacity:1.00" />
<rect height="1.038589" width="25.000000" x="535.000000" y="106.410292" fill="rgb(255, 255, 255)" style="fill-opacity:1.00" />
<rect height="0.259647" width="25.000000" x="535.000000" y="107.189233" fill="rgb(255, 165, 0)" style="fill-opacity:1.00" />
<rect height="0.778941" width="6.250000" x="553.750000" y="107.189233" fill="rgb(255, 165, 0)" style="fill-opacity:1.00" />
<!-- End 'G' -->
<!-- Begin 'T' -->
<rect height="0.173817" width="50.000000" x="510.000000" y="107.968175" fill="rgb(0, 100, 0)" style="fill-opacity:1.00" />
<rect height="1.086354" width="10.000000" x="530.000000" y="107.968175" fill="rgb(0, 100, 0)" style="fill-opacity:1.00" />
<!-- End 'T' -->
<!-- Begin 'A' -->
<polygon points=" 510.000000, 110.000000, 531.000000, 109.054529, 539.000000, 109.054529, 560.000000, 110.000000, 552.500000, 110.000000, 546.250000, 109.763632, 523.750000, 109.763632, 517.500000, 110.000000" fill="rgb(178, 34, 34)" style="fill-opacity:1.00" />
<!-- End 'A' -->
<!-- Begin 'C' -->
<ellipse cx="595.000000" cy="77.291950" rx="25.000000" ry="21.972963" fill="rgb(0, 0, 128)" style="fill-opacity:1.00" />
<ellipse cx="595.000000" cy="77.291950" rx="16.666667" ry="14.648642" fill="rgb(255, 255, 255)" style="fill-opacity:1.00" />
<rect height="21.972963" width="25.000000" x="595.000000" y="66.305468" fill="rgb(255, 255, 255)" style="fill-opacity:1.00" />
<!-- End 'C' -->
<!-- Begin 'T' -->
<rect height="1.132344" width="50.000000" x="570.000000" y="99.264913" fill="rgb(0, 100, 0)" style="fill-opacity:1.00" />
<rect height="7.077152" width="10.000000" x="590.000000" y="99.264913" fill="rgb(0, 100, 0)" style="fill-opacity:1.00" />
<!-- End 'T' -->
<!-- Begin 'A' -->
<polygon points=" 570.000000, 109.919891, 591.000000, 106.342066, 599.000000, 106.342066, 620.000000, 109.919891, 612.500000, 109.919891, 606.250000, 109.025434, 583.750000, 109.025434, 577.500000, 109.919891" fill="rgb(178, 34, 34)" style="fill-opacity:1.00" />
<!-- End 'A' -->
<!-- Begin 'G' -->
<ellipse cx="595.000000" cy="109.959945" rx="25.000000" ry="0.040055" fill="rgb(255, 165, 0)" style="fill-opacity:1.00" />
<ellipse cx="595.000000" cy="109.959945" rx="16.666667" ry="0.026703" fill="rgb(255, 255, 255)" style="fill-opacity:1.00" />
<rect height="0.040055" width="25.000000" x="595.000000" y="109.939918" fill="rgb(255, 255, 255)" style="fill-opacity:1.00" />
<rect height="0.010014" width="25.000000" x="595.000000" y="109.969959" fill="rgb(255, 165, 0)" style="fill-opacity:1.00" />
<rect height="0.030041" width="6.250000" x="613.750000" y="109.969959" fill="rgb(255, 165, 0)" style="fill-opacity:1.00" />
<!-- End 'G' -->
<!-- Begin 'G' -->
<ellipse cx="655.000000" cy="74.981987" rx="25.000000" ry="24.839128" fill="rgb(255, 165, 0)" style="fill-opacity:1.00" />
<ellipse cx="655.000000" cy="74.981987" rx="16.666667" ry="16.559419" fill="rgb(255, 255, 255)" style="fill-opacity:1.00" />
<rect height="24.839128" width="25.000000" x="655.000000" y="62.562423" fill="rgb(255, 255, 255)" style="fill-opacity:1.00" />
<rect height="6.209782" width="25.000000" x="655.000000" y="81.191769" fill="rgb(255, 165, 0)" style="fill-opacity:1.00" />
<rect height="18.629346" width="6.250000" x="673.750000" y="81.191769" fill="rgb(255, 165, 0)" style="fill-opacity:1.00" />
<!-- End 'G' -->
<!-- Begin 'A' -->
<polygon points=" 630.000000, 107.635125, 651.000000, 99.821115, 659.000000, 99.821115, 680.000000, 107.635125, 672.500000, 107.635125, 666.250000, 105.681623, 643.750000, 105.681623, 637.500000, 107.635125" fill="rgb(178, 34, 34)" style="fill-opacity:1.00" />
<!-- End 'A' -->
<!-- Begin 'T' -->
<rect height="0.357800" width="50.000000" x="630.000000" y="107.635125" fill="rgb(0, 100, 0)" style="fill-opacity:1.00" />
<rect height="2.236248" width="10.000000" x="650.000000" y="107.635125" fill="rgb(0, 100, 0)" style="fill-opacity:1.00" />
<!-- End 'T' -->
<!-- Begin 'C' -->
<ellipse cx="655.000000" cy="109.935687" rx="25.000000" ry="0.064313" fill="rgb(0, 0, 128)" style="fill-opacity:1.00" />
<ellipse cx="655.000000" cy="109.935687" rx="16.666667" ry="0.042875" fill="rgb(255, 255, 255)" style="fill-opacity:1.00" />
<rect height="0.064313" width="25.000000" x="655.000000" y="109.903530" fill="rgb(255, 255, 255)" style="fill-opacity:1.00" />
<!-- End 'C' -->
<!-- Begin 'G' -->
<ellipse cx="715.000000" cy="103.517093" rx="25.000000" ry="1.912880" fill="rgb(255, 165, 0)" style="fill-opacity:1.00" />
<ellipse cx="715.000000" cy="103.517093" rx="16.666667" ry="1.275253" fill="rgb(255, 255, 255)" style="fill-opacity:1.00" />
<rect height="1.912880" width="25.000000" x="715.000000" y="102.560653" fill="rgb(255, 255, 255)" style="fill-opacity:1.00" />
<rect height="0.478220" width="25.000000" x="715.000000" y="103.995313" fill="rgb(255, 165, 0)" style="fill-opacity:1.00" />
<rect height="1.434660" width="6.250000" x="733.750000" y="103.995313" fill="rgb(255, 165, 0)" style="fill-opacity:1.00" />
<!-- End 'G' -->
<!-- Begin 'C' -->
<ellipse cx="715.000000" cy="106.455761" rx="25.000000" ry="1.025789" fill="rgb(0, 0, 128)" style="fill-opacity:1.00" />
<ellipse cx="715.000000" cy="106.455761" rx="16.666667" ry="0.683859" fill="rgb(255, 255, 255)" style="fill-opacity:1.00" />
<rect height="1.025789" width="25.000000" x="715.000000" y="105.942867" fill="rgb(255, 255, 255)" style="fill-opacity:1.00" />
<!-- End 'C' -->
<!-- Begin 'A' -->
<polygon points=" 690.000000, 108.873940, 711.000000, 107.481550, 719.000000, 107.481550, 740.000000, 108.873940, 732.500000, 108.873940, 726.250000, 108.525842, 703.750000, 108.525842, 697.500000, 108.873940" fill="rgb(178, 34, 34)" style="fill-opacity:1.00" />
<!-- End 'A' -->
<!-- Begin 'T' -->
<rect height="0.180170" width="50.000000" x="690.000000" y="108.873940" fill="rgb(0, 100, 0)" style="fill-opacity:1.00" />
<rect height="1.126060" width="10.000000" x="710.000000" y="108.873940" fill="rgb(0, 100, 0)" style="fill-opacity:1.00" />
<!-- End 'T' -->
<!-- Begin 'C' -->
<ellipse cx="775.000000" cy="93.508109" rx="25.000000" ry="5.971236" fill="rgb(0, 0, 128)" style="fill-opacity:1.00" />
<ellipse cx="775.000000" cy="93.508109" rx="16.666667" ry="3.980824" fill="rgb(255, 255, 255)" style="fill-opacity:1.00" />
<rect height="5.971236" width="25.000000" x="775.000000" y="90.522491" fill="rgb(255, 255, 255)" style="fill-opacity:1.00" />
<!-- End 'C' -->
<!-- Begin 'T' -->
<rect height="1.073794" width="50.000000" x="750.000000" y="99.479344" fill="rgb(0, 100, 0)" style="fill-opacity:1.00" />
<rect height="6.711210" width="10.000000" x="770.000000" y="99.479344" fill="rgb(0, 100, 0)" style="fill-opacity:1.00" />
<!-- End 'T' -->
<!-- Begin 'A' -->
<polygon points=" 750.000000, 109.354584, 771.000000, 106.190554, 779.000000, 106.190554, 800.000000, 109.354584, 792.500000, 109.354584, 786.250000, 108.563577, 763.750000, 108.563577, 757.500000, 109.354584" fill="rgb(178, 34, 34)" style="fill-opacity:1.00" />
<!-- End 'A' -->
<!-- Begin 'G' -->
<ellipse cx="775.000000" cy="109.677292" rx="25.000000" ry="0.322708" fill="rgb(255, 165, 0)" style="fill-opacity:1.00" />
<ellipse cx="775.000000" cy="109.677292" rx="16.666667" ry="0.215139" fill="rgb(255, 255, 255)" style="fill-opacity:1.00" />
<rect height="0.322708" width="25.000000" x="775.000000" y="109.515938" fill="rgb(255, 255, 255)" style="fill-opacity:1.00" />
<rect height="0.080677" width="25.000000" x="775.000000" y="109.757969" fill="rgb(255, 165, 0)" style="fill-opacity:1.00" />
<rect height="0.242031" width="6.250000" x="793.750000" y="109.757969" fill="rgb(255, 165, 0)" style="fill-opacity:1.00" />
<!-- End 'G' -->
<!-- Begin 'G' -->
<ellipse cx="835.000000" cy="90.374735" rx="25.000000" ry="8.937203" fill="rgb(255, 165, 0)" style="fill-opacity:1.00" />
<ellipse cx="835.000000" cy="90.374735" rx="16.666667" ry="5.958135" fill="rgb(255, 255, 255)" style="fill-opacity:1.00" />
<rect height="8.937203" width="25.000000" x="835.000000" y="85.906134" fill="rgb(255, 255, 255)" style="fill-opacity:1.00" />
<rect height="2.234301" width="25.000000" x="835.000000" y="92.609036" fill="rgb(255, 165, 0)" style="fill-opacity:1.00" />
<rect height="6.702902" width="6.250000" x="853.750000" y="92.609036" fill="rgb(255, 165, 0)" style="fill-opacity:1.00" />
<!-- End 'G' -->
<!-- Begin 'A' -->
<polygon points=" 810.000000, 105.586693, 831.000000, 99.311938, 839.000000, 99.311938, 860.000000, 105.586693, 852.500000, 105.586693, 846.250000, 104.018004, 823.750000, 104.018004, 817.500000, 105.586693" fill="rgb(178, 34, 34)" style="fill-opacity:1.00" />
<!-- End 'A' -->
<!-- Begin 'T' -->
<rect height="0.570756" width="50.000000" x="810.000000" y="105.586693" fill="rgb(0, 100, 0)" style="fill-opacity:1.00" />
<rect height="3.567226" width="10.000000" x="830.000000" y="105.586693" fill="rgb(0, 100, 0)" style="fill-opacity:1.00" />
<!-- End 'T' -->
<!-- Begin 'C' -->
<ellipse cx="835.000000" cy="109.576959" rx="25.000000" ry="0.423041" fill="rgb(0, 0, 128)" style="fill-opacity:1.00" />
<ellipse cx="835.000000" cy="109.576959" rx="16.666667" ry="0.282027" fill="rgb(255, 255, 255)" style="fill-opacity:1.00" />
<rect height="0.423041" width="25.000000" x="835.000000" y="109.365439" fill="rgb(255, 255, 255)" style="fill-opacity:1.00" />
<!-- End 'C' -->
<!-- Begin 'G' -->
<ellipse cx="895.000000" cy="108.782667" rx="25.000000" ry="0.214271" fill="rgb(255, 165, 0)" style="fill-opacity:1.00" />
<ellipse cx="895.000000" cy="108.782667" rx="16.666667" ry="0.142847" fill="rgb(255, 255, 255)" style="fill-opacity:1.00" />
<rect height="0.214271" width="25.000000" x="895.000000" y="108.675532" fill="rgb(255, 255, 255)" style="fill-opacity:1.00" />
<rect height="0.053568" width="25.000000" x="895.000000" y="108.836235" fill="rgb(255, 165, 0)" style="fill-opacity:1.00" />
<rect height="0.160703" width="6.250000" x="913.750000" y="108.836235" fill="rgb(255, 165, 0)" style="fill-opacity:1.00" />
<!-- End 'G' -->
<!-- Begin 'A' -->
<polygon points=" 870.000000, 109.401344, 891.000000, 108.996938, 899.000000, 108.996938, 920.000000, 109.401344, 912.500000, 109.401344, 906.250000, 109.300243, 883.750000, 109.300243, 877.500000, 109.401344" fill="rgb(178, 34, 34)" style="fill-opacity:1.00" />
<!-- End 'A' -->
<!-- Begin 'C' -->
<ellipse cx="895.000000" cy="109.576613" rx="25.000000" ry="0.175268" fill="rgb(0, 0, 128)" style="fill-opacity:1.00" />
<ellipse cx="895.000000" cy="109.576613" rx="16.666667" ry="0.116846" fill="rgb(255, 255, 255)" style="fill-opacity:1.00" />
<rect height="0.175268" width="25.000000" x="895.000000" y="109.488978" fill="rgb(255, 255, 255)" style="fill-opacity:1.00" />
<!-- End 'C' -->
<!-- Begin 'T' -->
<rect height="0.039699" width="50.000000" x="870.000000" y="109.751881" fill="rgb(0, 100, 0)" style="fill-opacity:1.00" />
<rect height="0.248119" width="10.000000" x="890.000000" y="109.751881" fill="rgb(0, 100, 0)" style="fill-opacity:1.00" />
<!-- End 'T' -->
<!-- Begin 'C' -->
<ellipse cx="955.000000" cy="107.801356" rx="25.000000" ry="0.379861" fill="rgb(0, 0, 128)" style="fill-opacity:1.00" />
<ellipse cx="955.000000" cy="107.801356" rx="16.666667" ry="0.253241" fill="rgb(255, 255, 255)" style="fill-opacity:1.00" />
<rect height="0.379861" width="25.000000" x="955.000000" y="107.611425" fill="rgb(255, 255, 255)" style="fill-opacity:1.00" />
<!-- End 'C' -->
<!-- Begin 'A' -->
<polygon points=" 930.000000, 108.920715, 951.000000, 108.181216, 959.000000, 108.181216, 980.000000, 108.920715, 972.500000, 108.920715, 966.250000, 108.735840, 943.750000, 108.735840, 937.500000, 108.920715" fill="rgb(178, 34, 34)" style="fill-opacity:1.00" />
<!-- End 'A' -->
<!-- Begin 'T' -->
<rect height="0.114318" width="50.000000" x="930.000000" y="108.920715" fill="rgb(0, 100, 0)" style="fill-opacity:1.00" />
<rect height="0.714489" width="10.000000" x="950.000000" y="108.920715" fill="rgb(0, 100, 0)" style="fill-opacity:1.00" />
<!-- End 'T' -->
<!-- Begin 'G' -->
<ellipse cx="955.000000" cy="109.817602" rx="25.000000" ry="0.182398" fill="rgb(255, 165, 0)" style="fill-opacity:1.00" />
<ellipse cx="955.000000" cy="109.817602" rx="16.666667" ry="0.121599" fill="rgb(255, 255, 255)" style="fill-opacity:1.00" />
<rect height="0.182398" width="25.000000" x="955.000000" y="109.726403" fill="rgb(255, 255, 255)" style="fill-opacity:1.00" />
<rect height="0.045600" width="25.000000" x="955.000000" y="109.863201" fill="rgb(255, 165, 0)" style="fill-opacity:1.00" />
<rect height="0.136799" width="6.250000" x="973.750000" y="109.863201" fill="rgb(255, 165, 0)" style="fill-opacity:1.00" />
<!-- End 'G' -->
<text x="520.000000" y="165">
IC = 5.33
</text>

</svg>
