<?xml version="1.0" encoding="UTF-8" standalone="yes"?>
                 <!DOCTYPE svg PUBLIC "-//W3C//DTD SVG 1.0//EN" "http://www.w3.org/TR/2001/REC-SVG-20010904/DTD/svg10.dtd">
                 <svg height="170" width="1020" xmlns="http://www.w3.org/2000/svg" xmlns:xlink="http://www.w3.org/1999/xlink">
                 <line x1="85" y1="120" x2="987" y2="120" style="stroke:rgb(99,99,99);stroke-width:2" />
<rect height="7.000000" width="2.000000" x="85.000000" y="120.000000" fill="rgb(0, 0, 0)" style="fill-opacity:1.00" />
<text x="107.000000" y="140">
1
</text>
<rect height="7.000000" width="2.000000" x="145.000000" y="120.000000" fill="rgb(0, 0, 0)" style="fill-opacity:1.00" />
<text x="167.000000" y="140">
2
</text>
<rect height="7.000000" width="2.000000" x="205.000000" y="120.000000" fill="rgb(0, 0, 0)" style="fill-opacity:1.00" />
<text x="227.000000" y="140">
3
</text>
<rect height="7.000000" width="2.000000" x="265.000000" y="120.000000" fill="rgb(0, 0, 0)" style="fill-opacity:1.00" />
<text x="287.000000" y="140">
4
</text>
<rect height="7.000000" width="2.000000" x="325.000000" y="120.000000" fill="rgb(0, 0, 0)" style="fill-opacity:1.00" />
<text x="347.000000" y="140">
5
</text>
<rect height="7.000000" width="2.000000" x="385.000000" y="120.000000" fill="rgb(0, 0, 0)" style="fill-opacity:1.00" />
<text x="407.000000" y="140">
6
</text>
<rect height="7.000000" width="2.000000" x="445.000000" y="120.000000" fill="rgb(0, 0, 0)" style="fill-opacity:1.00" />
<text x="467.000000" y="140">
7
</text>
<rect height="7.000000" width="2.000000" x="505.000000" y="120.000000" fill="rgb(0, 0, 0)" style="fill-opacity:1.00" />
<text x="527.000000" y="140">
8
</text>
<rect height="7.000000" width="2.000000" x="565.000000" y="120.000000" fill="rgb(0, 0, 0)" style="fill-opacity:1.00" />
<text x="587.000000" y="140">
9
</text>
<rect height="7.000000" width="2.000000" x="625.000000" y="120.000000" fill="rgb(0, 0, 0)" style="fill-opacity:1.00" />
<text x="647.000000" y="140">
10
</text>
<rect height="7.000000" width="2.000000" x="685.000000" y="120.000000" fill="rgb(0, 0, 0)" style="fill-opacity:1.00" />
<text x="707.000000" y="140">
11
</text>
<rect height="7.000000" width="2.000000" x="745.000000" y="120.000000" fill="rgb(0, 0, 0)" style="fill-opacity:1.00" />
<text x="767.000000" y="140">
12
</text>
<rect height="7.000000" width="2.000000" x="805.000000" y="120.000000" fill="rgb(0, 0, 0)" style="fill-opacity:1.00" />
<text x="827.000000" y="140">
13
</text>
<rect height="7.000000" width="2.000000" x="865.000000" y="120.000000" fill="rgb(0, 0, 0)" style="fill-opacity:1.00" />
<text x="887.000000" y="140">
14
</text>
<rect height="7.000000" width="2.000000" x="925.000000" y="120.000000" fill="rgb(0, 0, 0)" style="fill-opacity:1.00" />
<text x="947.000000" y="140">
15
</text>
<rect height="7.000000" width="2.000000" x="985.000000" y="120.000000" fill="rgb(0, 0, 0)" style="fill-opacity:1.00" />
<line x1="80" y1="112" x2="80" y2="10" style="stroke:rgb(99,99,99);stroke-width:2" />
<rect height="2.000000" width="7.000000" x="73.000000" y="110.000000" fill="rgb(0, 0, 0)" style="fill-opacity:1.00" />
<text x="63" y="115">
0
</text>
<rect height="2.000000" width="7.000000" x="73.000000" y="60.000000" fill="rgb(0, 0, 0)" style="fill-opacity:1.00" />
<text x="63" y="65">
1
</text>
<rect height="2.000000" width="7.000000" x="73.000000" y="10.000000" fill="rgb(0, 0, 0)" style="fill-opacity:1.00" />
<text x="63" y="15">
2
</text>
<text x="50" y="65"
transform="rotate(-90, 50, 70)">
bits
</text>
<!-- Begin 'A' -->
<polygon points=" 90.000000, 107.315050, 111.000000, 105.925486, 119.000000, 105.925486, 140.000000, 107.315050, 132.500000, 107.315050, 126.250000, 106.967659, 103.750000, 106.967659, 97.500000, 107.315050" fill="rgb(178, 34, 34)" style="fill-opacity:1.00" />
<!-- End 'A' -->
<!-- Begin 'T' -->
<rect height="0.197913" width="50.000000" x="90.000000" y="107.315050" fill="rgb(0, 100, 0)" style="fill-opacity:1.00" />
<rect height="1.236953" width="10.000000" x="110.000000" y="107.315050" fill="rgb(0, 100, 0)" style="fill-opacity:1.00" />
<!-- End 'T' -->
<!-- Begin 'C' -->
<ellipse cx="115.000000" cy="109.011174" rx="25.000000" ry="0.459171" fill="rgb(0, 0, 128)" style="fill-opacity:1.00" />
<ellipse cx="115.000000" cy="109.011174" rx="16.666667" ry="0.306114" fill="rgb(255, 255, 255)" style="fill-opacity:1.00" />
<rect height="0.459171" width="25.000000" x="115.000000" y="108.781589" fill="rgb(255, 255, 255)" style="fill-opacity:1.00" />
<!-- End 'C' -->
<!-- Begin 'G' -->
<ellipse cx="115.000000" cy="109.735172" rx="25.000000" ry="0.264828" fill="rgb(255, 165, 0)" style="fill-opacity:1.00" />
<ellipse cx="115.000000" cy="109.735172" rx="16.666667" ry="0.176552" fill="rgb(255, 255, 255)" style="fill-opacity:1.00" />
<rect height="0.264828" width="25.000000" x="115.000000" y="109.602759" fill="rgb(255, 255, 255)" style="fill-opacity:1.00" />
<rect height="0.066207" width="25.000000" x="115.000000" y="109.801379" fill="rgb(255, 165, 0)" style="fill-opacity:1.00" />
<rect height="0.198621" width="6.250000" x="133.750000" y="109.801379" fill="rgb(255, 165, 0)" style="fill-opacity:1.00" />
<!-- End 'G' -->
<!-- Begin 'T' -->
<rect height="0.708257" width="50.000000" x="150.000000" y="100.522401" fill="rgb(0, 100, 0)" style="fill-opacity:1.00" />
<rect height="4.426605" width="10.000000" x="170.000000" y="100.522401" fill="rgb(0, 100, 0)" style="fill-opacity:1.00" />
<!-- End 'T' -->
<!-- Begin 'A' -->
<polygon points=" 150.000000, 107.314451, 171.000000, 104.949006, 179.000000, 104.949006, 200.000000, 107.314451, 192.500000, 107.314451, 186.250000, 106.723090, 163.750000, 106.723090, 157.500000, 107.314451" fill="rgb(178, 34, 34)" style="fill-opacity:1.00" />
<!-- End 'A' -->
<!-- Begin 'G' -->
<ellipse cx="175.000000" cy="108.036645" rx="25.000000" ry="0.722195" fill="rgb(255, 165, 0)" style="fill-opacity:1.00" />
<ellipse cx="175.000000" cy="108.036645" rx="16.666667" ry="0.481463" fill="rgb(255, 255, 255)" style="fill-opacity:1.00" />
<rect height="0.722195" width="25.000000" x="175.000000" y="107.675548" fill="rgb(255, 255, 255)" style="fill-opacity:1.00" />
<rect height="0.180549" width="25.000000" x="175.000000" y="108.217194" fill="rgb(255, 165, 0)" style="fill-opacity:1.00" />
<rect height="0.541646" width="6.250000" x="193.750000" y="108.217194" fill="rgb(255, 165, 0)" style="fill-opacity:1.00" />
<!-- End 'G' -->
<!-- Begin 'C' -->
<ellipse cx="175.000000" cy="109.379420" rx="25.000000" ry="0.620580" fill="rgb(0, 0, 128)" style="fill-opacity:1.00" />
<ellipse cx="175.000000" cy="109.379420" rx="16.666667" ry="0.413720" fill="rgb(255, 255, 255)" style="fill-opacity:1.00" />
<rect height="0.620580" width="25.000000" x="175.000000" y="109.069130" fill="rgb(255, 255, 255)" style="fill-opacity:1.00" />
<!-- End 'C' -->
<!-- Begin 'T' -->
<rect height="1.361165" width="50.000000" x="210.000000" y="93.315378" fill="rgb(0, 100, 0)" style="fill-opacity:1.00" />
<rect height="8.507278" width="10.000000" x="230.000000" y="93.315378" fill="rgb(0, 100, 0)" style="fill-opacity:1.00" />
<!-- End 'T' -->
<!-- Begin 'C' -->
<ellipse cx="235.000000" cy="104.292760" rx="25.000000" ry="2.470104" fill="rgb(0, 0, 128)" style="fill-opacity:1.00" />
<ellipse cx="235.000000" cy="104.292760" rx="16.666667" ry="1.646736" fill="rgb(255, 255, 255)" style="fill-opacity:1.00" />
<rect height="2.470104" width="25.000000" x="235.000000" y="103.057708" fill="rgb(255, 255, 255)" style="fill-opacity:1.00" />
<!-- End 'C' -->
<!-- Begin 'A' -->
<polygon points=" 210.000000, 108.579183, 231.000000, 106.762864, 239.000000, 106.762864, 260.000000, 108.579183, 252.500000, 108.579183, 246.250000, 108.125103, 223.750000, 108.125103, 217.500000, 108.579183" fill="rgb(178, 34, 34)" style="fill-opacity:1.00" />
<!-- End 'A' -->
<!-- Begin 'G' -->
<ellipse cx="235.000000" cy="109.289591" rx="25.000000" ry="0.710409" fill="rgb(255, 165, 0)" style="fill-opacity:1.00" />
<ellipse cx="235.000000" cy="109.289591" rx="16.666667" ry="0.473606" fill="rgb(255, 255, 255)" style="fill-opacity:1.00" />
<rect height="0.710409" width="25.000000" x="235.000000" y="108.934387" fill="rgb(255, 255, 255)" style="fill-opacity:1.00" />
<rect height="0.177602" width="25.000000" x="235.000000" y="109.467194" fill="rgb(255, 165, 0)" style="fill-opacity:1.00" />
<rect height="0.532806" width="6.250000" x="253.750000" y="109.467194" fill="rgb(255, 165, 0)" style="fill-opacity:1.00" />
<!-- End 'G' -->
<!-- Begin 'C' -->
<ellipse cx="295.000000" cy="78.441745" rx="25.000000" ry="20.679703" fill="rgb(0, 0, 128)" style="fill-opacity:1.00" />
<ellipse cx="295.000000" cy="78.441745" rx="16.666667" ry="13.786469" fill="rgb(255, 255, 255)" style="fill-opacity:1.00" />
<rect height="20.679703" width="25.000000" x="295.000000" y="68.101893" fill="rgb(255, 255, 255)" style="fill-opacity:1.00" />
<!-- End 'C' -->
<!-- Begin 'G' -->
<ellipse cx="295.000000" cy="102.466974" rx="25.000000" ry="3.345526" fill="rgb(255, 165, 0)" style="fill-opacity:1.00" />
<ellipse cx="295.000000" cy="102.466974" rx="16.666667" ry="2.230351" fill="rgb(255, 255, 255)" style="fill-opacity:1.00" />
<rect height="3.345526" width="25.000000" x="295.000000" y="100.794211" fill="rgb(255, 255, 255)" style="fill-opacity:1.00" />
<rect height="0.836382" width="25.000000" x="295.000000" y="103.303356" fill="rgb(255, 165, 0)" style="fill-opacity:1.00" />
<rect height="2.509145" width="6.250000" x="313.750000" y="103.303356" fill="rgb(255, 165, 0)" style="fill-opacity:1.00" />
<!-- End 'G' -->
<!-- Begin 'T' -->
<rect height="0.647679" width="50.000000" x="270.000000" y="105.812501" fill="rgb(0, 100, 0)" style="fill-opacity:1.00" />
<rect height="4.047992" width="10.000000" x="290.000000" y="105.812501" fill="rgb(0, 100, 0)" style="fill-opacity:1.00" />
<!-- End 'T' -->
<!-- Begin 'A' -->
<polygon points=" 270.000000, 110.000000, 291.000000, 109.860492, 299.000000, 109.860492, 320.000000, 110.000000, 312.500000, 110.000000, 306.250000, 109.965123, 283.750000, 109.965123, 277.500000, 110.000000" fill="rgb(178, 34, 34)" style="fill-opacity:1.00" />
<!-- End 'A' -->
<!-- Begin 'A' -->
<polygon points=" 330.000000, 100.485260, 351.000000, 56.605906, 359.000000, 56.605906, 380.000000, 100.485260, 372.500000, 100.485260, 366.250000, 89.515421, 343.750000, 89.515421, 337.500000, 100.485260" fill="rgb(178, 34, 34)" style="fill-opacity:1.00" />
<polygon points=" 355.000000, 65.381777, 347.000000, 81.933518, 362.000000, 81.933518" fill="rgb(255, 255, 255)" style="fill-opacity:1.00" />
<!-- End 'A' -->
<!-- Begin 'T' -->
<rect height="0.705669" width="50.000000" x="330.000000" y="100.485260" fill="rgb(0, 100, 0)" style="fill-opacity:1.00" />
<rect height="4.410431" width="10.000000" x="350.000000" y="100.485260" fill="rgb(0, 100, 0)" style="fill-opacity:1.00" />
<!-- End 'T' -->
<!-- Begin 'C' -->
<ellipse cx="355.000000" cy="106.793929" rx="25.000000" ry="1.898238" fill="rgb(0, 0, 128)" style="fill-opacity:1.00" />
<ellipse cx="355.000000" cy="106.793929" rx="16.666667" ry="1.265492" fill="rgb(255, 255, 255)" style="fill-opacity:1.00" />
<rect height="1.898238" width="25.000000" x="355.000000" y="105.844810" fill="rgb(255, 255, 255)" style="fill-opacity:1.00" />
<!-- End 'C' -->
<!-- Begin 'G' -->
<ellipse cx="355.000000" cy="109.346083" rx="25.000000" ry="0.653917" fill="rgb(255, 165, 0)" style="fill-opacity:1.00" />
<ellipse cx="355.000000" cy="109.346083" rx="16.666667" ry="0.435945" fill="rgb(255, 255, 255)" style="fill-opacity:1.00" />
<rect height="0.653917" width="25.000000" x="355.000000" y="109.019125" fill="rgb(255, 255, 255)" style="fill-opacity:1.00" />
<rect height="0.163479" width="25.000000" x="355.000000" y="109.509562" fill="rgb(255, 165, 0)" style="fill-opacity:1.00" />
<rect height="0.490438" width="6.250000" x="373.750000" y="109.509562" fill="rgb(255, 165, 0)" style="fill-opacity:1.00" />
<!-- End 'G' -->
<!-- Begin 'T' -->
<rect height="0.958893" width="50.000000" x="390.000000" y="95.105323" fill="rgb(0, 100, 0)" style="fill-opacity:1.00" />
<rect height="5.993081" width="10.000000" x="410.000000" y="95.105323" fill="rgb(0, 100, 0)" style="fill-opacity:1.00" />
<!-- End 'T' -->
<!-- Begin 'C' -->
<ellipse cx="415.000000" cy="103.945216" rx="25.000000" ry="2.846812" fill="rgb(0, 0, 128)" style="fill-opacity:1.00" />
<ellipse cx="415.000000" cy="103.945216" rx="16.666667" ry="1.897875" fill="rgb(255, 255, 255)" style="fill-opacity:1.00" />
<rect height="2.846812" width="25.000000" x="415.000000" y="102.521810" fill="rgb(255, 255, 255)" style="fill-opacity:1.00" />
<!-- End 'C' -->
<!-- Begin 'A' -->
<polygon points=" 390.000000, 109.273577, 411.000000, 106.792027, 419.000000, 106.792027, 440.000000, 109.273577, 432.500000, 109.273577, 426.250000, 108.653189, 403.750000, 108.653189, 397.500000, 109.273577" fill="rgb(178, 34, 34)" style="fill-opacity:1.00" />
<!-- End 'A' -->
<!-- Begin 'G' -->
<ellipse cx="415.000000" cy="109.636788" rx="25.000000" ry="0.363212" fill="rgb(255, 165, 0)" style="fill-opacity:1.00" />
<ellipse cx="415.000000" cy="109.636788" rx="16.666667" ry="0.242141" fill="rgb(255, 255, 255)" style="fill-opacity:1.00" />
<rect height="0.363212" width="25.000000" x="415.000000" y="109.455182" fill="rgb(255, 255, 255)" style="fill-opacity:1.00" />
<rect height="0.090803" width="25.000000" x="415.000000" y="109.727591" fill="rgb(255, 165, 0)" style="fill-opacity:1.00" />
<rect height="0.272409" width="6.250000" x="433.750000" y="109.727591" fill="rgb(255, 165, 0)" style="fill-opacity:1.00" />
<!-- End 'G' -->
<!-- Begin 'G' -->
<ellipse cx="475.000000" cy="99.513511" rx="25.000000" ry="2.886398" fill="rgb(255, 165, 0)" style="fill-opacity:1.00" />
<ellipse cx="475.000000" cy="99.513511" rx="16.666667" ry="1.924265" fill="rgb(255, 255, 255)" style="fill-opacity:1.00" />
<rect height="2.886398" width="25.000000" x="475.000000" y="98.070312" fill="rgb(255, 255, 255)" style="fill-opacity:1.00" />
<rect height="0.721600" width="25.000000" x="475.000000" y="100.235111" fill="rgb(255, 165, 0)" style="fill-opacity:1.00" />
<rect height="2.164799" width="6.250000" x="493.750000" y="100.235111" fill="rgb(255, 165, 0)" style="fill-opacity:1.00" />
<!-- End 'G' -->
<!-- Begin 'A' -->
<polygon points=" 450.000000, 106.531794, 471.000000, 102.399909, 479.000000, 102.399909, 500.000000, 106.531794, 492.500000, 106.531794, 486.250000, 105.498823, 463.750000, 105.498823, 457.500000, 106.531794" fill="rgb(178, 34, 34)" style="fill-opacity:1.00" />
<!-- End 'A' -->
<!-- Begin 'T' -->
<rect height="0.450561" width="50.000000" x="450.000000" y="106.531794" fill="rgb(0, 100, 0)" style="fill-opacity:1.00" />
<rect height="2.816005" width="10.000000" x="470.000000" y="106.531794" fill="rgb(0, 100, 0)" style="fill-opacity:1.00" />
<!-- End 'T' -->
<!-- Begin 'C' -->
<ellipse cx="475.000000" cy="109.673900" rx="25.000000" ry="0.326100" fill="rgb(0, 0, 128)" style="fill-opacity:1.00" />
<ellipse cx="475.000000" cy="109.673900" rx="16.666667" ry="0.217400" fill="rgb(255, 255, 255)" style="fill-opacity:1.00" />
<rect height="0.326100" width="25.000000" x="475.000000" y="109.510849" fill="rgb(255, 255, 255)" style="fill-opacity:1.00" />
<!-- End 'C' -->
<!-- Begin 'T' -->
<rect height="13.507114" width="50.000000" x="510.000000" y="22.503618" fill="rgb(0, 100, 0)" style="fill-opacity:1.00" />
<rect height="84.419460" width="10.000000" x="530.000000" y="22.503618" fill="rgb(0, 100, 0)" style="fill-opacity:1.00" />
<!-- End 'T' -->
<!-- Begin 'C' -->
<ellipse cx="535.000000" cy="108.020438" rx="25.000000" ry="1.097359" fill="rgb(0, 0, 128)" style="fill-opacity:1.00" />
<ellipse cx="535.000000" cy="108.020438" rx="16.666667" ry="0.731573" fill="rgb(255, 255, 255)" style="fill-opacity:1.00" />
<rect height="1.097359" width="25.000000" x="535.000000" y="107.471758" fill="rgb(255, 255, 255)" style="fill-opacity:1.00" />
<!-- End 'C' -->
<!-- Begin 'A' -->
<polygon points=" 510.000000, 109.999998, 531.000000, 109.117797, 539.000000, 109.117797, 560.000000, 109.999998, 552.500000, 109.999998, 546.250000, 109.779448, 523.750000, 109.779448, 517.500000, 109.999998" fill="rgb(178, 34, 34)" style="fill-opacity:1.00" />
<!-- End 'A' -->
<!-- Begin 'G' -->
<ellipse cx="535.000000" cy="109.999999" rx="25.000000" ry="0.000001" fill="rgb(255, 165, 0)" style="fill-opacity:1.00" />
<ellipse cx="535.000000" cy="109.999999" rx="16.666667" ry="0.000001" fill="rgb(255, 255, 255)" style="fill-opacity:1.00" />
<rect height="0.000001" width="25.000000" x="535.000000" y="109.999999" fill="rgb(255, 255, 255)" style="fill-opacity:1.00" />
<rect height="0.000000" width="25.000000" x="535.000000" y="109.999999" fill="rgb(255, 165, 0)" style="fill-opacity:1.00" />
<rect height="0.000001" width="6.250000" x="553.750000" y="109.999999" fill="rgb(255, 165, 0)" style="fill-opacity:1.00" />
<!-- End 'G' -->
<!-- Begin 'G' -->
<ellipse cx="595.000000" cy="83.368260" rx="25.000000" ry="9.382192" fill="rgb(255, 165, 0)" style="fill-opacity:1.00" />
<ellipse cx="595.000000" cy="83.368260" rx="16.666667" ry="6.254794" fill="rgb(255, 255, 255)" style="fill-opacity:1.00" />
<rect height="9.382192" width="25.000000" x="595.000000" y="78.677164" fill="rgb(255, 255, 255)" style="fill-opacity:1.00" />
<rect height="2.345548" width="25.000000" x="595.000000" y="85.713808" fill="rgb(255, 165, 0)" style="fill-opacity:1.00" />
<rect height="7.036644" width="6.250000" x="613.750000" y="85.713808" fill="rgb(255, 165, 0)" style="fill-opacity:1.00" />
<!-- End 'G' -->
<!-- Begin 'C' -->
<ellipse cx="595.000000" cy="100.402230" rx="25.000000" ry="7.651779" fill="rgb(0, 0, 128)" style="fill-opacity:1.00" />
<ellipse cx="595.000000" cy="100.402230" rx="16.666667" ry="5.101186" fill="rgb(255, 255, 255)" style="fill-opacity:1.00" />
<rect height="7.651779" width="25.000000" x="595.000000" y="96.576341" fill="rgb(255, 255, 255)" style="fill-opacity:1.00" />
<!-- End 'C' -->
<!-- Begin 'A' -->
<polygon points=" 570.000000, 109.636881, 591.000000, 108.054009, 599.000000, 108.054009, 620.000000, 109.636881, 612.500000, 109.636881, 606.250000, 109.241163, 583.750000, 109.241163, 577.500000, 109.636881" fill="rgb(178, 34, 34)" style="fill-opacity:1.00" />
<!-- End 'A' -->
<!-- Begin 'T' -->
<rect height="0.058099" width="50.000000" x="570.000000" y="109.636881" fill="rgb(0, 100, 0)" style="fill-opacity:1.00" />
<rect height="0.363119" width="10.000000" x="590.000000" y="109.636881" fill="rgb(0, 100, 0)" style="fill-opacity:1.00" />
<!-- End 'T' -->
<!-- Begin 'A' -->
<polygon points=" 630.000000, 106.426778, 651.000000, 24.467280, 659.000000, 24.467280, 680.000000, 106.426778, 672.500000, 106.426778, 666.250000, 85.936904, 643.750000, 85.936904, 637.500000, 106.426778" fill="rgb(178, 34, 34)" style="fill-opacity:1.00" />
<polygon points=" 655.000000, 40.859180, 647.000000, 72.642979, 662.000000, 72.642979" fill="rgb(255, 255, 255)" style="fill-opacity:1.00" />
<!-- End 'A' -->
<!-- Begin 'G' -->
<ellipse cx="655.000000" cy="107.756598" rx="25.000000" ry="1.329820" fill="rgb(255, 165, 0)" style="fill-opacity:1.00" />
<ellipse cx="655.000000" cy="107.756598" rx="16.666667" ry="0.886547" fill="rgb(255, 255, 255)" style="fill-opacity:1.00" />
<rect height="1.329820" width="25.000000" x="655.000000" y="107.091688" fill="rgb(255, 255, 255)" style="fill-opacity:1.00" />
<rect height="0.332455" width="25.000000" x="655.000000" y="108.089053" fill="rgb(255, 165, 0)" style="fill-opacity:1.00" />
<rect height="0.997365" width="6.250000" x="673.750000" y="108.089053" fill="rgb(255, 165, 0)" style="fill-opacity:1.00" />
<!-- End 'G' -->
<!-- Begin 'C' -->
<ellipse cx="655.000000" cy="109.501532" rx="25.000000" ry="0.415114" fill="rgb(0, 0, 128)" style="fill-opacity:1.00" />
<ellipse cx="655.000000" cy="109.501532" rx="16.666667" ry="0.276742" fill="rgb(255, 255, 255)" style="fill-opacity:1.00" />
<rect height="0.415114" width="25.000000" x="655.000000" y="109.293975" fill="rgb(255, 255, 255)" style="fill-opacity:1.00" />
<!-- End 'C' -->
<!-- Begin 'T' -->
<rect height="0.013337" width="50.000000" x="630.000000" y="109.916646" fill="rgb(0, 100, 0)" style="fill-opacity:1.00" />
<rect height="0.083354" width="10.000000" x="650.000000" y="109.916646" fill="rgb(0, 100, 0)" style="fill-opacity:1.00" />
<!-- End 'T' -->
<!-- Begin 'T' -->
<rect height="2.937530" width="50.000000" x="690.000000" y="72.504544" fill="rgb(0, 100, 0)" style="fill-opacity:1.00" />
<rect height="18.359561" width="10.000000" x="710.000000" y="72.504544" fill="rgb(0, 100, 0)" style="fill-opacity:1.00" />
<!-- End 'T' -->
<!-- Begin 'G' -->
<ellipse cx="715.000000" cy="99.408783" rx="25.000000" ry="8.544677" fill="rgb(255, 165, 0)" style="fill-opacity:1.00" />
<ellipse cx="715.000000" cy="99.408783" rx="16.666667" ry="5.696452" fill="rgb(255, 255, 255)" style="fill-opacity:1.00" />
<rect height="8.544677" width="25.000000" x="715.000000" y="95.136444" fill="rgb(255, 255, 255)" style="fill-opacity:1.00" />
<rect height="2.136169" width="25.000000" x="715.000000" y="101.544952" fill="rgb(255, 165, 0)" style="fill-opacity:1.00" />
<rect height="6.408508" width="6.250000" x="733.750000" y="101.544952" fill="rgb(255, 165, 0)" style="fill-opacity:1.00" />
<!-- End 'G' -->
<!-- Begin 'C' -->
<ellipse cx="715.000000" cy="108.976730" rx="25.000000" ry="1.023269" fill="rgb(0, 0, 128)" style="fill-opacity:1.00" />
<ellipse cx="715.000000" cy="108.976730" rx="16.666667" ry="0.682179" fill="rgb(255, 255, 255)" style="fill-opacity:1.00" />
<rect height="1.023269" width="25.000000" x="715.000000" y="108.465095" fill="rgb(255, 255, 255)" style="fill-opacity:1.00" />
<!-- End 'C' -->
<!-- Begin 'A' -->
<polygon points=" 690.000000, 110.000000, 711.000000, 109.999999, 719.000000, 109.999999, 740.000000, 110.000000, 732.500000, 110.000000, 726.250000, 110.000000, 703.750000, 110.000000, 697.500000, 110.000000" fill="rgb(178, 34, 34)" style="fill-opacity:1.00" />
<!-- End 'A' -->
<!-- Begin 'C' -->
<ellipse cx="775.000000" cy="99.401976" rx="25.000000" ry="3.723847" fill="rgb(0, 0, 128)" style="fill-opacity:1.00" />
<ellipse cx="775.000000" cy="99.401976" rx="16.666667" ry="2.482565" fill="rgb(255, 255, 255)" style="fill-opacity:1.00" />
<rect height="3.723847" width="25.000000" x="775.000000" y="97.540053" fill="rgb(255, 255, 255)" style="fill-opacity:1.00" />
<!-- End 'C' -->
<!-- Begin 'A' -->
<polygon points=" 750.000000, 106.327423, 771.000000, 103.125824, 779.000000, 103.125824, 800.000000, 106.327423, 792.500000, 106.327423, 786.250000, 105.527023, 763.750000, 105.527023, 757.500000, 106.327423" fill="rgb(178, 34, 34)" style="fill-opacity:1.00" />
<!-- End 'A' -->
<!-- Begin 'T' -->
<rect height="0.389681" width="50.000000" x="750.000000" y="106.327423" fill="rgb(0, 100, 0)" style="fill-opacity:1.00" />
<rect height="2.435509" width="10.000000" x="770.000000" y="106.327423" fill="rgb(0, 100, 0)" style="fill-opacity:1.00" />
<!-- End 'T' -->
<!-- Begin 'G' -->
<ellipse cx="775.000000" cy="109.381466" rx="25.000000" ry="0.618534" fill="rgb(255, 165, 0)" style="fill-opacity:1.00" />
<ellipse cx="775.000000" cy="109.381466" rx="16.666667" ry="0.412356" fill="rgb(255, 255, 255)" style="fill-opacity:1.00" />
<rect height="0.618534" width="25.000000" x="775.000000" y="109.072199" fill="rgb(255, 255, 255)" style="fill-opacity:1.00" />
<rect height="0.154634" width="25.000000" x="775.000000" y="109.536099" fill="rgb(255, 165, 0)" style="fill-opacity:1.00" />
<rect height="0.463901" width="6.250000" x="793.750000" y="109.536099" fill="rgb(255, 165, 0)" style="fill-opacity:1.00" />
<!-- End 'G' -->
<!-- Begin 'T' -->
<rect height="0.557777" width="50.000000" x="810.000000" y="100.175491" fill="rgb(0, 100, 0)" style="fill-opacity:1.00" />
<rect height="3.486108" width="10.000000" x="830.000000" y="100.175491" fill="rgb(0, 100, 0)" style="fill-opacity:1.00" />
<!-- End 'T' -->
<!-- Begin 'C' -->
<ellipse cx="835.000000" cy="105.390914" rx="25.000000" ry="1.729315" fill="rgb(0, 0, 128)" style="fill-opacity:1.00" />
<ellipse cx="835.000000" cy="105.390914" rx="16.666667" ry="1.152876" fill="rgb(255, 255, 255)" style="fill-opacity:1.00" />
<rect height="1.729315" width="25.000000" x="835.000000" y="104.526257" fill="rgb(255, 255, 255)" style="fill-opacity:1.00" />
<!-- End 'C' -->
<!-- Begin 'A' -->
<polygon points=" 810.000000, 109.360510, 831.000000, 107.120229, 839.000000, 107.120229, 860.000000, 109.360510, 852.500000, 109.360510, 846.250000, 108.800440, 823.750000, 108.800440, 817.500000, 109.360510" fill="rgb(178, 34, 34)" style="fill-opacity:1.00" />
<!-- End 'A' -->
<!-- Begin 'G' -->
<ellipse cx="835.000000" cy="109.680255" rx="25.000000" ry="0.319745" fill="rgb(255, 165, 0)" style="fill-opacity:1.00" />
<ellipse cx="835.000000" cy="109.680255" rx="16.666667" ry="0.213163" fill="rgb(255, 255, 255)" style="fill-opacity:1.00" />
<rect height="0.319745" width="25.000000" x="835.000000" y="109.520383" fill="rgb(255, 255, 255)" style="fill-opacity:1.00" />
<rect height="0.079936" width="25.000000" x="835.000000" y="109.760191" fill="rgb(255, 165, 0)" style="fill-opacity:1.00" />
<rect height="0.239809" width="6.250000" x="853.750000" y="109.760191" fill="rgb(255, 165, 0)" style="fill-opacity:1.00" />
<!-- End 'G' -->
<!-- Begin 'T' -->
<rect height="2.470222" width="50.000000" x="870.000000" y="84.774238" fill="rgb(0, 100, 0)" style="fill-opacity:1.00" />
<rect height="15.438889" width="10.000000" x="890.000000" y="84.774238" fill="rgb(0, 100, 0)" style="fill-opacity:1.00" />
<!-- End 'T' -->
<!-- Begin 'C' -->
<ellipse cx="895.000000" cy="103.081849" rx="25.000000" ry="2.868722" fill="rgb(0, 0, 128)" style="fill-opacity:1.00" />
<ellipse cx="895.000000" cy="103.081849" rx="16.666667" ry="1.912482" fill="rgb(255, 255, 255)" style="fill-opacity:1.00" />
<rect height="2.868722" width="25.000000" x="895.000000" y="101.647488" fill="rgb(255, 255, 255)" style="fill-opacity:1.00" />
<!-- End 'C' -->
<!-- Begin 'A' -->
<polygon points=" 870.000000, 108.508443, 891.000000, 105.950571, 899.000000, 105.950571, 920.000000, 108.508443, 912.500000, 108.508443, 906.250000, 107.868975, 883.750000, 107.868975, 877.500000, 108.508443" fill="rgb(178, 34, 34)" style="fill-opacity:1.00" />
<!-- End 'A' -->
<!-- Begin 'G' -->
<ellipse cx="895.000000" cy="109.254222" rx="25.000000" ry="0.745778" fill="rgb(255, 165, 0)" style="fill-opacity:1.00" />
<ellipse cx="895.000000" cy="109.254222" rx="16.666667" ry="0.497186" fill="rgb(255, 255, 255)" style="fill-opacity:1.00" />
<rect height="0.745778" width="25.000000" x="895.000000" y="108.881332" fill="rgb(255, 255, 255)" style="fill-opacity:1.00" />
<rect height="0.186445" width="25.000000" x="895.000000" y="109.440666" fill="rgb(255, 165, 0)" style="fill-opacity:1.00" />
<rect height="0.559334" width="6.250000" x="913.750000" y="109.440666" fill="rgb(255, 165, 0)" style="fill-opacity:1.00" />
<!-- End 'G' -->
<!-- Begin 'T' -->
<rect height="1.511292" width="50.000000" x="930.000000" y="87.654426" fill="rgb(0, 100, 0)" style="fill-opacity:1.00" />
<rect height="9.445577" width="10.000000" x="950.000000" y="87.654426" fill="rgb(0, 100, 0)" style="fill-opacity:1.00" />
<!-- End 'T' -->
<!-- Begin 'A' -->
<polygon points=" 930.000000, 104.379024, 951.000000, 97.100003, 959.000000, 97.100003, 980.000000, 104.379024, 972.500000, 104.379024, 966.250000, 102.559269, 943.750000, 102.559269, 937.500000, 104.379024" fill="rgb(178, 34, 34)" style="fill-opacity:1.00" />
<!-- End 'A' -->
<!-- Begin 'C' -->
<ellipse cx="955.000000" cy="107.189512" rx="25.000000" ry="2.810488" fill="rgb(0, 0, 128)" style="fill-opacity:1.00" />
<ellipse cx="955.000000" cy="107.189512" rx="16.666667" ry="1.873659" fill="rgb(255, 255, 255)" style="fill-opacity:1.00" />
<rect height="2.810488" width="25.000000" x="955.000000" y="105.784268" fill="rgb(255, 255, 255)" style="fill-opacity:1.00" />
<!-- End 'C' -->
<!-- Begin 'G' -->
<ellipse cx="955.000000" cy="110.000000" rx="25.000000" ry="0.000000" fill="rgb(255, 165, 0)" style="fill-opacity:1.00" />
<ellipse cx="955.000000" cy="110.000000" rx="16.666667" ry="0.000000" fill="rgb(255, 255, 255)" style="fill-opacity:1.00" />
<rect height="0.000000" width="25.000000" x="955.000000" y="110.000000" fill="rgb(255, 255, 255)" style="fill-opacity:1.00" />
<rect height="0.000000" width="25.000000" x="955.000000" y="110.000000" fill="rgb(255, 165, 0)" style="fill-opacity:1.00" />
<rect height="0.000000" width="6.250000" x="973.750000" y="110.000000" fill="rgb(255, 165, 0)" style="fill-opacity:1.00" />
<!-- End 'G' -->
<text x="520.000000" y="165">
IC = 9.65
</text>

</svg>
