<?xml version="1.0" encoding="UTF-8" standalone="yes"?>
                 <!DOCTYPE svg PUBLIC "-//W3C//DTD SVG 1.0//EN" "http://www.w3.org/TR/2001/REC-SVG-20010904/DTD/svg10.dtd">
                 <svg height="170" width="600" xmlns="http://www.w3.org/2000/svg" xmlns:xlink="http://www.w3.org/1999/xlink">
                 <line x1="85" y1="120" x2="567" y2="120" style="stroke:rgb(99,99,99);stroke-width:2" />
<rect height="7.000000" width="2.000000" x="85.000000" y="120.000000" fill="rgb(0, 0, 0)" style="fill-opacity:1.00" />
<text x="107.000000" y="140">
1
</text>
<rect height="7.000000" width="2.000000" x="145.000000" y="120.000000" fill="rgb(0, 0, 0)" style="fill-opacity:1.00" />
<text x="167.000000" y="140">
2
</text>
<rect height="7.000000" width="2.000000" x="205.000000" y="120.000000" fill="rgb(0, 0, 0)" style="fill-opacity:1.00" />
<text x="227.000000" y="140">
3
</text>
<rect height="7.000000" width="2.000000" x="265.000000" y="120.000000" fill="rgb(0, 0, 0)" style="fill-opacity:1.00" />
<text x="287.000000" y="140">
4
</text>
<rect height="7.000000" width="2.000000" x="325.000000" y="120.000000" fill="rgb(0, 0, 0)" style="fill-opacity:1.00" />
<text x="347.000000" y="140">
5
</text>
<rect height="7.000000" width="2.000000" x="385.000000" y="120.000000" fill="rgb(0, 0, 0)" style="fill-opacity:1.00" />
<text x="407.000000" y="140">
6
</text>
<rect height="7.000000" width="2.000000" x="445.000000" y="120.000000" fill="rgb(0, 0, 0)" style="fill-opacity:1.00" />
<text x="467.000000" y="140">
7
</text>
<rect height="7.000000" width="2.000000" x="505.000000" y="120.000000" fill="rgb(0, 0, 0)" style="fill-opacity:1.00" />
<text x="527.000000" y="140">
8
</text>
<rect height="7.000000" width="2.000000" x="565.000000" y="120.000000" fill="rgb(0, 0, 0)" style="fill-opacity:1.00" />
<line x1="80" y1="112" x2="80" y2="10" style="stroke:rgb(99,99,99);stroke-width:2" />
<rect height="2.000000" width="7.000000" x="73.000000" y="110.000000" fill="rgb(0, 0, 0)" style="fill-opacity:1.00" />
<text x="63" y="115">
0
</text>
<rect height="2.000000" width="7.000000" x="73.000000" y="60.000000" fill="rgb(0, 0, 0)" style="fill-opacity:1.00" />
<text x="63" y="65">
1
</text>
<rect height="2.000000" width="7.000000" x="73.000000" y="10.000000" fill="rgb(0, 0, 0)" style="fill-opacity:1.00" />
<text x="63" y="15">
2
</text>
<text x="50" y="65"
transform="rotate(-90, 50, 70)">
bits
</text>
<!-- Begin 'T' -->
<rect height="0.672783" width="50.000000" x="90.000000" y="100.669083" fill="rgb(0, 100, 0)" style="fill-opacity:1.00" />
<rect height="4.204893" width="10.000000" x="110.000000" y="100.669083" fill="rgb(0, 100, 0)" style="fill-opacity:1.00" />
<!-- End 'T' -->
<!-- Begin 'C' -->
<ellipse cx="115.000000" cy="106.162578" rx="25.000000" ry="1.288602" fill="rgb(0, 0, 128)" style="fill-opacity:1.00" />
<ellipse cx="115.000000" cy="106.162578" rx="16.666667" ry="0.859068" fill="rgb(255, 255, 255)" style="fill-opacity:1.00" />
<rect height="1.288602" width="25.000000" x="115.000000" y="105.518277" fill="rgb(255, 255, 255)" style="fill-opacity:1.00" />
<!-- End 'C' -->
<!-- Begin 'A' -->
<polygon points=" 90.000000, 108.856495, 111.000000, 107.451180, 119.000000, 107.451180, 140.000000, 108.856495, 132.500000, 108.856495, 126.250000, 108.505166, 103.750000, 108.505166, 97.500000, 108.856495" fill="rgb(178, 34, 34)" style="fill-opacity:1.00" />
<!-- End 'A' -->
<!-- Begin 'G' -->
<ellipse cx="115.000000" cy="109.428248" rx="25.000000" ry="0.571752" fill="rgb(255, 165, 0)" style="fill-opacity:1.00" />
<ellipse cx="115.000000" cy="109.428248" rx="16.666667" ry="0.381168" fill="rgb(255, 255, 255)" style="fill-opacity:1.00" />
<rect height="0.571752" width="25.000000" x="115.000000" y="109.142372" fill="rgb(255, 255, 255)" style="fill-opacity:1.00" />
<rect height="0.142938" width="25.000000" x="115.000000" y="109.571186" fill="rgb(255, 165, 0)" style="fill-opacity:1.00" />
<rect height="0.428814" width="6.250000" x="133.750000" y="109.571186" fill="rgb(255, 165, 0)" style="fill-opacity:1.00" />
<!-- End 'G' -->
<!-- Begin 'A' -->
<polygon points=" 150.000000, 103.178435, 171.000000, 98.511391, 179.000000, 98.511391, 200.000000, 103.178435, 192.500000, 103.178435, 186.250000, 102.011674, 163.750000, 102.011674, 157.500000, 103.178435" fill="rgb(178, 34, 34)" style="fill-opacity:1.00" />
<!-- End 'A' -->
<!-- Begin 'T' -->
<rect height="0.668632" width="50.000000" x="150.000000" y="103.178435" fill="rgb(0, 100, 0)" style="fill-opacity:1.00" />
<rect height="4.178949" width="10.000000" x="170.000000" y="103.178435" fill="rgb(0, 100, 0)" style="fill-opacity:1.00" />
<!-- End 'T' -->
<!-- Begin 'C' -->
<ellipse cx="175.000000" cy="108.144603" rx="25.000000" ry="0.787219" fill="rgb(0, 0, 128)" style="fill-opacity:1.00" />
<ellipse cx="175.000000" cy="108.144603" rx="16.666667" ry="0.524813" fill="rgb(255, 255, 255)" style="fill-opacity:1.00" />
<rect height="0.787219" width="25.000000" x="175.000000" y="107.750994" fill="rgb(255, 255, 255)" style="fill-opacity:1.00" />
<!-- End 'C' -->
<!-- Begin 'G' -->
<ellipse cx="175.000000" cy="109.465911" rx="25.000000" ry="0.534089" fill="rgb(255, 165, 0)" style="fill-opacity:1.00" />
<ellipse cx="175.000000" cy="109.465911" rx="16.666667" ry="0.356059" fill="rgb(255, 255, 255)" style="fill-opacity:1.00" />
<rect height="0.534089" width="25.000000" x="175.000000" y="109.198867" fill="rgb(255, 255, 255)" style="fill-opacity:1.00" />
<rect height="0.133522" width="25.000000" x="175.000000" y="109.599433" fill="rgb(255, 165, 0)" style="fill-opacity:1.00" />
<rect height="0.400567" width="6.250000" x="193.750000" y="109.599433" fill="rgb(255, 165, 0)" style="fill-opacity:1.00" />
<!-- End 'G' -->
<!-- Begin 'T' -->
<rect height="11.826518" width="50.000000" x="210.000000" y="30.678161" fill="rgb(0, 100, 0)" style="fill-opacity:1.00" />
<rect height="73.915737" width="10.000000" x="230.000000" y="30.678161" fill="rgb(0, 100, 0)" style="fill-opacity:1.00" />
<!-- End 'T' -->
<!-- Begin 'A' -->
<polygon points=" 210.000000, 109.076064, 231.000000, 104.593899, 239.000000, 104.593899, 260.000000, 109.076064, 252.500000, 109.076064, 246.250000, 107.955522, 223.750000, 107.955522, 217.500000, 109.076064" fill="rgb(178, 34, 34)" style="fill-opacity:1.00" />
<!-- End 'A' -->
<!-- Begin 'C' -->
<ellipse cx="235.000000" cy="109.418695" rx="25.000000" ry="0.342631" fill="rgb(0, 0, 128)" style="fill-opacity:1.00" />
<ellipse cx="235.000000" cy="109.418695" rx="16.666667" ry="0.228421" fill="rgb(255, 255, 255)" style="fill-opacity:1.00" />
<rect height="0.342631" width="25.000000" x="235.000000" y="109.247379" fill="rgb(255, 255, 255)" style="fill-opacity:1.00" />
<!-- End 'C' -->
<!-- Begin 'G' -->
<ellipse cx="235.000000" cy="109.880663" rx="25.000000" ry="0.119337" fill="rgb(255, 165, 0)" style="fill-opacity:1.00" />
<ellipse cx="235.000000" cy="109.880663" rx="16.666667" ry="0.079558" fill="rgb(255, 255, 255)" style="fill-opacity:1.00" />
<rect height="0.119337" width="25.000000" x="235.000000" y="109.820994" fill="rgb(255, 255, 255)" style="fill-opacity:1.00" />
<rect height="0.029834" width="25.000000" x="235.000000" y="109.910497" fill="rgb(255, 165, 0)" style="fill-opacity:1.00" />
<rect height="0.089503" width="6.250000" x="253.750000" y="109.910497" fill="rgb(255, 165, 0)" style="fill-opacity:1.00" />
<!-- End 'G' -->
<!-- Begin 'G' -->
<ellipse cx="295.000000" cy="91.770827" rx="25.000000" ry="8.159587" fill="rgb(255, 165, 0)" style="fill-opacity:1.00" />
<ellipse cx="295.000000" cy="91.770827" rx="16.666667" ry="5.439725" fill="rgb(255, 255, 255)" style="fill-opacity:1.00" />
<rect height="8.159587" width="25.000000" x="295.000000" y="87.691033" fill="rgb(255, 255, 255)" style="fill-opacity:1.00" />
<rect height="2.039897" width="25.000000" x="295.000000" y="93.810724" fill="rgb(255, 165, 0)" style="fill-opacity:1.00" />
<rect height="6.119690" width="6.250000" x="313.750000" y="93.810724" fill="rgb(255, 165, 0)" style="fill-opacity:1.00" />
<!-- End 'G' -->
<!-- Begin 'T' -->
<rect height="0.891931" width="50.000000" x="270.000000" y="99.930414" fill="rgb(0, 100, 0)" style="fill-opacity:1.00" />
<rect height="5.574571" width="10.000000" x="290.000000" y="99.930414" fill="rgb(0, 100, 0)" style="fill-opacity:1.00" />
<!-- End 'T' -->
<!-- Begin 'A' -->
<polygon points=" 270.000000, 108.933367, 291.000000, 105.504985, 299.000000, 105.504985, 320.000000, 108.933367, 312.500000, 108.933367, 306.250000, 108.076271, 283.750000, 108.076271, 277.500000, 108.933367" fill="rgb(178, 34, 34)" style="fill-opacity:1.00" />
<!-- End 'A' -->
<!-- Begin 'C' -->
<ellipse cx="295.000000" cy="109.466683" rx="25.000000" ry="0.533317" fill="rgb(0, 0, 128)" style="fill-opacity:1.00" />
<ellipse cx="295.000000" cy="109.466683" rx="16.666667" ry="0.355544" fill="rgb(255, 255, 255)" style="fill-opacity:1.00" />
<rect height="0.533317" width="25.000000" x="295.000000" y="109.200025" fill="rgb(255, 255, 255)" style="fill-opacity:1.00" />
<!-- End 'C' -->
<!-- Begin 'T' -->
<rect height="2.656757" width="50.000000" x="330.000000" y="84.188960" fill="rgb(0, 100, 0)" style="fill-opacity:1.00" />
<rect height="16.604733" width="10.000000" x="350.000000" y="84.188960" fill="rgb(0, 100, 0)" style="fill-opacity:1.00" />
<!-- End 'T' -->
<!-- Begin 'G' -->
<ellipse cx="355.000000" cy="102.968886" rx="25.000000" ry="2.175193" fill="rgb(255, 165, 0)" style="fill-opacity:1.00" />
<ellipse cx="355.000000" cy="102.968886" rx="16.666667" ry="1.450129" fill="rgb(255, 255, 255)" style="fill-opacity:1.00" />
<rect height="2.175193" width="25.000000" x="355.000000" y="101.881289" fill="rgb(255, 255, 255)" style="fill-opacity:1.00" />
<rect height="0.543798" width="25.000000" x="355.000000" y="103.512684" fill="rgb(255, 165, 0)" style="fill-opacity:1.00" />
<rect height="1.631395" width="6.250000" x="373.750000" y="103.512684" fill="rgb(255, 165, 0)" style="fill-opacity:1.00" />
<!-- End 'G' -->
<!-- Begin 'A' -->
<polygon points=" 330.000000, 107.653470, 351.000000, 105.144079, 359.000000, 105.144079, 380.000000, 107.653470, 372.500000, 107.653470, 366.250000, 107.026122, 343.750000, 107.026122, 337.500000, 107.653470" fill="rgb(178, 34, 34)" style="fill-opacity:1.00" />
<!-- End 'A' -->
<!-- Begin 'C' -->
<ellipse cx="355.000000" cy="108.826735" rx="25.000000" ry="1.173265" fill="rgb(0, 0, 128)" style="fill-opacity:1.00" />
<ellipse cx="355.000000" cy="108.826735" rx="16.666667" ry="0.782177" fill="rgb(255, 255, 255)" style="fill-opacity:1.00" />
<rect height="1.173265" width="25.000000" x="355.000000" y="108.240102" fill="rgb(255, 255, 255)" style="fill-opacity:1.00" />
<!-- End 'C' -->
<!-- Begin 'T' -->
<rect height="2.236086" width="50.000000" x="390.000000" y="84.085912" fill="rgb(0, 100, 0)" style="fill-opacity:1.00" />
<rect height="13.975538" width="10.000000" x="410.000000" y="84.085912" fill="rgb(0, 100, 0)" style="fill-opacity:1.00" />
<!-- End 'T' -->
<!-- Begin 'C' -->
<ellipse cx="415.000000" cy="102.385553" rx="25.000000" ry="4.324103" fill="rgb(0, 0, 128)" style="fill-opacity:1.00" />
<ellipse cx="415.000000" cy="102.385553" rx="16.666667" ry="2.882736" fill="rgb(255, 255, 255)" style="fill-opacity:1.00" />
<rect height="4.324103" width="25.000000" x="415.000000" y="100.223501" fill="rgb(255, 255, 255)" style="fill-opacity:1.00" />
<!-- End 'C' -->
<!-- Begin 'A' -->
<polygon points=" 390.000000, 109.299216, 411.000000, 106.709656, 419.000000, 106.709656, 440.000000, 109.299216, 432.500000, 109.299216, 426.250000, 108.651826, 403.750000, 108.651826, 397.500000, 109.299216" fill="rgb(178, 34, 34)" style="fill-opacity:1.00" />
<!-- End 'A' -->
<!-- Begin 'G' -->
<ellipse cx="415.000000" cy="109.649608" rx="25.000000" ry="0.350392" fill="rgb(255, 165, 0)" style="fill-opacity:1.00" />
<ellipse cx="415.000000" cy="109.649608" rx="16.666667" ry="0.233595" fill="rgb(255, 255, 255)" style="fill-opacity:1.00" />
<rect height="0.350392" width="25.000000" x="415.000000" y="109.474412" fill="rgb(255, 255, 255)" style="fill-opacity:1.00" />
<rect height="0.087598" width="25.000000" x="415.000000" y="109.737206" fill="rgb(255, 165, 0)" style="fill-opacity:1.00" />
<rect height="0.262794" width="6.250000" x="433.750000" y="109.737206" fill="rgb(255, 165, 0)" style="fill-opacity:1.00" />
<!-- End 'G' -->
<!-- Begin 'T' -->
<rect height="1.266209" width="50.000000" x="450.000000" y="95.189152" fill="rgb(0, 100, 0)" style="fill-opacity:1.00" />
<rect height="7.913806" width="10.000000" x="470.000000" y="95.189152" fill="rgb(0, 100, 0)" style="fill-opacity:1.00" />
<!-- End 'T' -->
<!-- Begin 'G' -->
<ellipse cx="475.000000" cy="104.570862" rx="25.000000" ry="1.467904" fill="rgb(255, 165, 0)" style="fill-opacity:1.00" />
<ellipse cx="475.000000" cy="104.570862" rx="16.666667" ry="0.978603" fill="rgb(255, 255, 255)" style="fill-opacity:1.00" />
<rect height="1.467904" width="25.000000" x="475.000000" y="103.836910" fill="rgb(255, 255, 255)" style="fill-opacity:1.00" />
<rect height="0.366976" width="25.000000" x="475.000000" y="104.937838" fill="rgb(255, 165, 0)" style="fill-opacity:1.00" />
<rect height="1.100928" width="6.250000" x="493.750000" y="104.937838" fill="rgb(255, 165, 0)" style="fill-opacity:1.00" />
<!-- End 'G' -->
<!-- Begin 'C' -->
<ellipse cx="475.000000" cy="107.333193" rx="25.000000" ry="1.294427" fill="rgb(0, 0, 128)" style="fill-opacity:1.00" />
<ellipse cx="475.000000" cy="107.333193" rx="16.666667" ry="0.862951" fill="rgb(255, 255, 255)" style="fill-opacity:1.00" />
<rect height="1.294427" width="25.000000" x="475.000000" y="106.685980" fill="rgb(255, 255, 255)" style="fill-opacity:1.00" />
<!-- End 'C' -->
<!-- Begin 'A' -->
<polygon points=" 450.000000, 110.000000, 471.000000, 108.627620, 479.000000, 108.627620, 500.000000, 110.000000, 492.500000, 110.000000, 486.250000, 109.656905, 463.750000, 109.656905, 457.500000, 110.000000" fill="rgb(178, 34, 34)" style="fill-opacity:1.00" />
<!-- End 'A' -->
<!-- Begin 'T' -->
<rect height="0.128292" width="50.000000" x="510.000000" y="107.563045" fill="rgb(0, 100, 0)" style="fill-opacity:1.00" />
<rect height="0.801827" width="10.000000" x="530.000000" y="107.563045" fill="rgb(0, 100, 0)" style="fill-opacity:1.00" />
<!-- End 'T' -->
<!-- Begin 'G' -->
<ellipse cx="535.000000" cy="108.726983" rx="25.000000" ry="0.362111" fill="rgb(255, 165, 0)" style="fill-opacity:1.00" />
<ellipse cx="535.000000" cy="108.726983" rx="16.666667" ry="0.241407" fill="rgb(255, 255, 255)" style="fill-opacity:1.00" />
<rect height="0.362111" width="25.000000" x="535.000000" y="108.545927" fill="rgb(255, 255, 255)" style="fill-opacity:1.00" />
<rect height="0.090528" width="25.000000" x="535.000000" y="108.817510" fill="rgb(255, 165, 0)" style="fill-opacity:1.00" />
<rect height="0.271583" width="6.250000" x="553.750000" y="108.817510" fill="rgb(255, 165, 0)" style="fill-opacity:1.00" />
<!-- End 'G' -->
<!-- Begin 'A' -->
<polygon points=" 510.000000, 109.573724, 531.000000, 109.089093, 539.000000, 109.089093, 560.000000, 109.573724, 552.500000, 109.573724, 546.250000, 109.452566, 523.750000, 109.452566, 517.500000, 109.573724" fill="rgb(178, 34, 34)" style="fill-opacity:1.00" />
<!-- End 'A' -->
<!-- Begin 'C' -->
<ellipse cx="535.000000" cy="109.786862" rx="25.000000" ry="0.213138" fill="rgb(0, 0, 128)" style="fill-opacity:1.00" />
<ellipse cx="535.000000" cy="109.786862" rx="16.666667" ry="0.142092" fill="rgb(255, 255, 255)" style="fill-opacity:1.00" />
<rect height="0.213138" width="25.000000" x="535.000000" y="109.680293" fill="rgb(255, 255, 255)" style="fill-opacity:1.00" />
<!-- End 'C' -->
<text x="310.000000" y="165">
IC = 3.91
</text>

</svg>
