<?xml version="1.0" encoding="UTF-8" standalone="yes"?>
                 <!DOCTYPE svg PUBLIC "-//W3C//DTD SVG 1.0//EN" "http://www.w3.org/TR/2001/REC-SVG-20010904/DTD/svg10.dtd">
                 <svg height="170" width="1260" xmlns="http://www.w3.org/2000/svg" xmlns:xlink="http://www.w3.org/1999/xlink">
                 <line x1="85" y1="120" x2="1227" y2="120" style="stroke:rgb(99,99,99);stroke-width:2" />
<rect height="7.000000" width="2.000000" x="85.000000" y="120.000000" fill="rgb(0, 0, 0)" style="fill-opacity:1.00" />
<text x="107.000000" y="140">
1
</text>
<rect height="7.000000" width="2.000000" x="145.000000" y="120.000000" fill="rgb(0, 0, 0)" style="fill-opacity:1.00" />
<text x="167.000000" y="140">
2
</text>
<rect height="7.000000" width="2.000000" x="205.000000" y="120.000000" fill="rgb(0, 0, 0)" style="fill-opacity:1.00" />
<text x="227.000000" y="140">
3
</text>
<rect height="7.000000" width="2.000000" x="265.000000" y="120.000000" fill="rgb(0, 0, 0)" style="fill-opacity:1.00" />
<text x="287.000000" y="140">
4
</text>
<rect height="7.000000" width="2.000000" x="325.000000" y="120.000000" fill="rgb(0, 0, 0)" style="fill-opacity:1.00" />
<text x="347.000000" y="140">
5
</text>
<rect height="7.000000" width="2.000000" x="385.000000" y="120.000000" fill="rgb(0, 0, 0)" style="fill-opacity:1.00" />
<text x="407.000000" y="140">
6
</text>
<rect height="7.000000" width="2.000000" x="445.000000" y="120.000000" fill="rgb(0, 0, 0)" style="fill-opacity:1.00" />
<text x="467.000000" y="140">
7
</text>
<rect height="7.000000" width="2.000000" x="505.000000" y="120.000000" fill="rgb(0, 0, 0)" style="fill-opacity:1.00" />
<text x="527.000000" y="140">
8
</text>
<rect height="7.000000" width="2.000000" x="565.000000" y="120.000000" fill="rgb(0, 0, 0)" style="fill-opacity:1.00" />
<text x="587.000000" y="140">
9
</text>
<rect height="7.000000" width="2.000000" x="625.000000" y="120.000000" fill="rgb(0, 0, 0)" style="fill-opacity:1.00" />
<text x="647.000000" y="140">
10
</text>
<rect height="7.000000" width="2.000000" x="685.000000" y="120.000000" fill="rgb(0, 0, 0)" style="fill-opacity:1.00" />
<text x="707.000000" y="140">
11
</text>
<rect height="7.000000" width="2.000000" x="745.000000" y="120.000000" fill="rgb(0, 0, 0)" style="fill-opacity:1.00" />
<text x="767.000000" y="140">
12
</text>
<rect height="7.000000" width="2.000000" x="805.000000" y="120.000000" fill="rgb(0, 0, 0)" style="fill-opacity:1.00" />
<text x="827.000000" y="140">
13
</text>
<rect height="7.000000" width="2.000000" x="865.000000" y="120.000000" fill="rgb(0, 0, 0)" style="fill-opacity:1.00" />
<text x="887.000000" y="140">
14
</text>
<rect height="7.000000" width="2.000000" x="925.000000" y="120.000000" fill="rgb(0, 0, 0)" style="fill-opacity:1.00" />
<text x="947.000000" y="140">
15
</text>
<rect height="7.000000" width="2.000000" x="985.000000" y="120.000000" fill="rgb(0, 0, 0)" style="fill-opacity:1.00" />
<text x="1007.000000" y="140">
16
</text>
<rect height="7.000000" width="2.000000" x="1045.000000" y="120.000000" fill="rgb(0, 0, 0)" style="fill-opacity:1.00" />
<text x="1067.000000" y="140">
17
</text>
<rect height="7.000000" width="2.000000" x="1105.000000" y="120.000000" fill="rgb(0, 0, 0)" style="fill-opacity:1.00" />
<text x="1127.000000" y="140">
18
</text>
<rect height="7.000000" width="2.000000" x="1165.000000" y="120.000000" fill="rgb(0, 0, 0)" style="fill-opacity:1.00" />
<text x="1187.000000" y="140">
19
</text>
<rect height="7.000000" width="2.000000" x="1225.000000" y="120.000000" fill="rgb(0, 0, 0)" style="fill-opacity:1.00" />
<line x1="80" y1="112" x2="80" y2="10" style="stroke:rgb(99,99,99);stroke-width:2" />
<rect height="2.000000" width="7.000000" x="73.000000" y="110.000000" fill="rgb(0, 0, 0)" style="fill-opacity:1.00" />
<text x="63" y="115">
0
</text>
<rect height="2.000000" width="7.000000" x="73.000000" y="60.000000" fill="rgb(0, 0, 0)" style="fill-opacity:1.00" />
<text x="63" y="65">
1
</text>
<rect height="2.000000" width="7.000000" x="73.000000" y="10.000000" fill="rgb(0, 0, 0)" style="fill-opacity:1.00" />
<text x="63" y="15">
2
</text>
<text x="50" y="65"
transform="rotate(-90, 50, 70)">
bits
</text>
<!-- Begin 'A' -->
<polygon points=" 90.000000, 105.320154, 111.000000, 102.163817, 119.000000, 102.163817, 140.000000, 105.320154, 132.500000, 105.320154, 126.250000, 104.531070, 103.750000, 104.531070, 97.500000, 105.320154" fill="rgb(178, 34, 34)" style="fill-opacity:1.00" />
<!-- End 'A' -->
<!-- Begin 'T' -->
<rect height="0.402189" width="50.000000" x="90.000000" y="105.320154" fill="rgb(0, 100, 0)" style="fill-opacity:1.00" />
<rect height="2.513681" width="10.000000" x="110.000000" y="105.320154" fill="rgb(0, 100, 0)" style="fill-opacity:1.00" />
<!-- End 'T' -->
<!-- Begin 'C' -->
<ellipse cx="115.000000" cy="108.403716" rx="25.000000" ry="0.569881" fill="rgb(0, 0, 128)" style="fill-opacity:1.00" />
<ellipse cx="115.000000" cy="108.403716" rx="16.666667" ry="0.379920" fill="rgb(255, 255, 255)" style="fill-opacity:1.00" />
<rect height="0.569881" width="25.000000" x="115.000000" y="108.118775" fill="rgb(255, 255, 255)" style="fill-opacity:1.00" />
<!-- End 'C' -->
<!-- Begin 'G' -->
<ellipse cx="115.000000" cy="109.486798" rx="25.000000" ry="0.513202" fill="rgb(255, 165, 0)" style="fill-opacity:1.00" />
<ellipse cx="115.000000" cy="109.486798" rx="16.666667" ry="0.342135" fill="rgb(255, 255, 255)" style="fill-opacity:1.00" />
<rect height="0.513202" width="25.000000" x="115.000000" y="109.230197" fill="rgb(255, 255, 255)" style="fill-opacity:1.00" />
<rect height="0.128300" width="25.000000" x="115.000000" y="109.615099" fill="rgb(255, 165, 0)" style="fill-opacity:1.00" />
<rect height="0.384901" width="6.250000" x="133.750000" y="109.615099" fill="rgb(255, 165, 0)" style="fill-opacity:1.00" />
<!-- End 'G' -->
<!-- Begin 'A' -->
<polygon points=" 150.000000, 104.399658, 171.000000, 100.407541, 179.000000, 100.407541, 200.000000, 104.399658, 192.500000, 104.399658, 186.250000, 103.401629, 163.750000, 103.401629, 157.500000, 104.399658" fill="rgb(178, 34, 34)" style="fill-opacity:1.00" />
<!-- End 'A' -->
<!-- Begin 'T' -->
<rect height="0.508544" width="50.000000" x="150.000000" y="104.399658" fill="rgb(0, 100, 0)" style="fill-opacity:1.00" />
<rect height="3.178402" width="10.000000" x="170.000000" y="104.399658" fill="rgb(0, 100, 0)" style="fill-opacity:1.00" />
<!-- End 'T' -->
<!-- Begin 'G' -->
<ellipse cx="175.000000" cy="108.196333" rx="25.000000" ry="0.618273" fill="rgb(255, 165, 0)" style="fill-opacity:1.00" />
<ellipse cx="175.000000" cy="108.196333" rx="16.666667" ry="0.412182" fill="rgb(255, 255, 255)" style="fill-opacity:1.00" />
<rect height="0.618273" width="25.000000" x="175.000000" y="107.887197" fill="rgb(255, 255, 255)" style="fill-opacity:1.00" />
<rect height="0.154568" width="25.000000" x="175.000000" y="108.350901" fill="rgb(255, 165, 0)" style="fill-opacity:1.00" />
<rect height="0.463704" width="6.250000" x="193.750000" y="108.350901" fill="rgb(255, 165, 0)" style="fill-opacity:1.00" />
<!-- End 'G' -->
<!-- Begin 'C' -->
<ellipse cx="175.000000" cy="109.407303" rx="25.000000" ry="0.592697" fill="rgb(0, 0, 128)" style="fill-opacity:1.00" />
<ellipse cx="175.000000" cy="109.407303" rx="16.666667" ry="0.395132" fill="rgb(255, 255, 255)" style="fill-opacity:1.00" />
<rect height="0.592697" width="25.000000" x="175.000000" y="109.110954" fill="rgb(255, 255, 255)" style="fill-opacity:1.00" />
<!-- End 'C' -->
<!-- Begin 'A' -->
<polygon points=" 210.000000, 104.390321, 231.000000, 100.874765, 239.000000, 100.874765, 260.000000, 104.390321, 252.500000, 104.390321, 246.250000, 103.511432, 223.750000, 103.511432, 217.500000, 104.390321" fill="rgb(178, 34, 34)" style="fill-opacity:1.00" />
<!-- End 'A' -->
<!-- Begin 'T' -->
<rect height="0.526119" width="50.000000" x="210.000000" y="104.390321" fill="rgb(0, 100, 0)" style="fill-opacity:1.00" />
<rect height="3.288245" width="10.000000" x="230.000000" y="104.390321" fill="rgb(0, 100, 0)" style="fill-opacity:1.00" />
<!-- End 'T' -->
<!-- Begin 'G' -->
<ellipse cx="235.000000" cy="108.270860" rx="25.000000" ry="0.592294" fill="rgb(255, 165, 0)" style="fill-opacity:1.00" />
<ellipse cx="235.000000" cy="108.270860" rx="16.666667" ry="0.394863" fill="rgb(255, 255, 255)" style="fill-opacity:1.00" />
<rect height="0.592294" width="25.000000" x="235.000000" y="107.974713" fill="rgb(255, 255, 255)" style="fill-opacity:1.00" />
<rect height="0.148074" width="25.000000" x="235.000000" y="108.418934" fill="rgb(255, 165, 0)" style="fill-opacity:1.00" />
<rect height="0.444221" width="6.250000" x="253.750000" y="108.418934" fill="rgb(255, 165, 0)" style="fill-opacity:1.00" />
<!-- End 'G' -->
<!-- Begin 'C' -->
<ellipse cx="235.000000" cy="109.431577" rx="25.000000" ry="0.568423" fill="rgb(0, 0, 128)" style="fill-opacity:1.00" />
<ellipse cx="235.000000" cy="109.431577" rx="16.666667" ry="0.378949" fill="rgb(255, 255, 255)" style="fill-opacity:1.00" />
<rect height="0.568423" width="25.000000" x="235.000000" y="109.147366" fill="rgb(255, 255, 255)" style="fill-opacity:1.00" />
<!-- End 'C' -->
<!-- Begin 'T' -->
<rect height="0.338186" width="50.000000" x="270.000000" y="104.087912" fill="rgb(0, 100, 0)" style="fill-opacity:1.00" />
<rect height="2.113662" width="10.000000" x="290.000000" y="104.087912" fill="rgb(0, 100, 0)" style="fill-opacity:1.00" />
<!-- End 'T' -->
<!-- Begin 'A' -->
<polygon points=" 270.000000, 108.201579, 291.000000, 106.201575, 299.000000, 106.201575, 320.000000, 108.201579, 312.500000, 108.201579, 306.250000, 107.701578, 283.750000, 107.701578, 277.500000, 108.201579" fill="rgb(178, 34, 34)" style="fill-opacity:1.00" />
<!-- End 'A' -->
<!-- Begin 'C' -->
<ellipse cx="295.000000" cy="108.713404" rx="25.000000" ry="0.511825" fill="rgb(0, 0, 128)" style="fill-opacity:1.00" />
<ellipse cx="295.000000" cy="108.713404" rx="16.666667" ry="0.341217" fill="rgb(255, 255, 255)" style="fill-opacity:1.00" />
<rect height="0.511825" width="25.000000" x="295.000000" y="108.457491" fill="rgb(255, 255, 255)" style="fill-opacity:1.00" />
<!-- End 'C' -->
<!-- Begin 'G' -->
<ellipse cx="295.000000" cy="109.612615" rx="25.000000" ry="0.387385" fill="rgb(255, 165, 0)" style="fill-opacity:1.00" />
<ellipse cx="295.000000" cy="109.612615" rx="16.666667" ry="0.258257" fill="rgb(255, 255, 255)" style="fill-opacity:1.00" />
<rect height="0.387385" width="25.000000" x="295.000000" y="109.418922" fill="rgb(255, 255, 255)" style="fill-opacity:1.00" />
<rect height="0.096846" width="25.000000" x="295.000000" y="109.709461" fill="rgb(255, 165, 0)" style="fill-opacity:1.00" />
<rect height="0.290539" width="6.250000" x="313.750000" y="109.709461" fill="rgb(255, 165, 0)" style="fill-opacity:1.00" />
<!-- End 'G' -->
<!-- Begin 'A' -->
<polygon points=" 330.000000, 108.189815, 351.000000, 107.305065, 359.000000, 107.305065, 380.000000, 108.189815, 372.500000, 108.189815, 366.250000, 107.968627, 343.750000, 107.968627, 337.500000, 108.189815" fill="rgb(178, 34, 34)" style="fill-opacity:1.00" />
<!-- End 'A' -->
<!-- Begin 'G' -->
<ellipse cx="355.000000" cy="108.561136" rx="25.000000" ry="0.371321" fill="rgb(255, 165, 0)" style="fill-opacity:1.00" />
<ellipse cx="355.000000" cy="108.561136" rx="16.666667" ry="0.247548" fill="rgb(255, 255, 255)" style="fill-opacity:1.00" />
<rect height="0.371321" width="25.000000" x="355.000000" y="108.375475" fill="rgb(255, 255, 255)" style="fill-opacity:1.00" />
<rect height="0.092830" width="25.000000" x="355.000000" y="108.653967" fill="rgb(255, 165, 0)" style="fill-opacity:1.00" />
<rect height="0.278491" width="6.250000" x="373.750000" y="108.653967" fill="rgb(255, 165, 0)" style="fill-opacity:1.00" />
<!-- End 'G' -->
<!-- Begin 'T' -->
<rect height="0.107424" width="50.000000" x="330.000000" y="108.932458" fill="rgb(0, 100, 0)" style="fill-opacity:1.00" />
<rect height="0.671402" width="10.000000" x="350.000000" y="108.932458" fill="rgb(0, 100, 0)" style="fill-opacity:1.00" />
<!-- End 'T' -->
<!-- Begin 'C' -->
<ellipse cx="355.000000" cy="109.801930" rx="25.000000" ry="0.198070" fill="rgb(0, 0, 128)" style="fill-opacity:1.00" />
<ellipse cx="355.000000" cy="109.801930" rx="16.666667" ry="0.132047" fill="rgb(255, 255, 255)" style="fill-opacity:1.00" />
<rect height="0.198070" width="25.000000" x="355.000000" y="109.702895" fill="rgb(255, 255, 255)" style="fill-opacity:1.00" />
<!-- End 'C' -->
<!-- Begin 'T' -->
<rect height="1.949516" width="50.000000" x="390.000000" y="89.104873" fill="rgb(0, 100, 0)" style="fill-opacity:1.00" />
<rect height="12.184473" width="10.000000" x="410.000000" y="89.104873" fill="rgb(0, 100, 0)" style="fill-opacity:1.00" />
<!-- End 'T' -->
<!-- Begin 'A' -->
<polygon points=" 390.000000, 105.412366, 411.000000, 101.289346, 419.000000, 101.289346, 440.000000, 105.412366, 432.500000, 105.412366, 426.250000, 104.381611, 403.750000, 104.381611, 397.500000, 105.412366" fill="rgb(178, 34, 34)" style="fill-opacity:1.00" />
<!-- End 'A' -->
<!-- Begin 'C' -->
<ellipse cx="415.000000" cy="107.076833" rx="25.000000" ry="1.664467" fill="rgb(0, 0, 128)" style="fill-opacity:1.00" />
<ellipse cx="415.000000" cy="107.076833" rx="16.666667" ry="1.109645" fill="rgb(255, 255, 255)" style="fill-opacity:1.00" />
<rect height="1.664467" width="25.000000" x="415.000000" y="106.244599" fill="rgb(255, 255, 255)" style="fill-opacity:1.00" />
<!-- End 'C' -->
<!-- Begin 'G' -->
<ellipse cx="415.000000" cy="109.370650" rx="25.000000" ry="0.629350" fill="rgb(255, 165, 0)" style="fill-opacity:1.00" />
<ellipse cx="415.000000" cy="109.370650" rx="16.666667" ry="0.419567" fill="rgb(255, 255, 255)" style="fill-opacity:1.00" />
<rect height="0.629350" width="25.000000" x="415.000000" y="109.055975" fill="rgb(255, 255, 255)" style="fill-opacity:1.00" />
<rect height="0.157337" width="25.000000" x="415.000000" y="109.527988" fill="rgb(255, 165, 0)" style="fill-opacity:1.00" />
<rect height="0.472012" width="6.250000" x="433.750000" y="109.527988" fill="rgb(255, 165, 0)" style="fill-opacity:1.00" />
<!-- End 'G' -->
<!-- Begin 'A' -->
<polygon points=" 450.000000, 101.693470, 471.000000, 88.674976, 479.000000, 88.674976, 500.000000, 101.693470, 492.500000, 101.693470, 486.250000, 98.438847, 463.750000, 98.438847, 457.500000, 101.693470" fill="rgb(178, 34, 34)" style="fill-opacity:1.00" />
<polygon points=" 475.000000, 91.278675, 467.000000, 95.486073, 482.000000, 95.486073" fill="rgb(255, 255, 255)" style="fill-opacity:1.00" />
<!-- End 'A' -->
<!-- Begin 'T' -->
<rect height="0.527765" width="50.000000" x="450.000000" y="101.693470" fill="rgb(0, 100, 0)" style="fill-opacity:1.00" />
<rect height="3.298531" width="10.000000" x="470.000000" y="101.693470" fill="rgb(0, 100, 0)" style="fill-opacity:1.00" />
<!-- End 'T' -->
<!-- Begin 'C' -->
<ellipse cx="475.000000" cy="106.420184" rx="25.000000" ry="1.428183" fill="rgb(0, 0, 128)" style="fill-opacity:1.00" />
<ellipse cx="475.000000" cy="106.420184" rx="16.666667" ry="0.952122" fill="rgb(255, 255, 255)" style="fill-opacity:1.00" />
<rect height="1.428183" width="25.000000" x="475.000000" y="105.706092" fill="rgb(255, 255, 255)" style="fill-opacity:1.00" />
<!-- End 'C' -->
<!-- Begin 'G' -->
<ellipse cx="475.000000" cy="108.924183" rx="25.000000" ry="1.075817" fill="rgb(255, 165, 0)" style="fill-opacity:1.00" />
<ellipse cx="475.000000" cy="108.924183" rx="16.666667" ry="0.717211" fill="rgb(255, 255, 255)" style="fill-opacity:1.00" />
<rect height="1.075817" width="25.000000" x="475.000000" y="108.386275" fill="rgb(255, 255, 255)" style="fill-opacity:1.00" />
<rect height="0.268954" width="25.000000" x="475.000000" y="109.193138" fill="rgb(255, 165, 0)" style="fill-opacity:1.00" />
<rect height="0.806862" width="6.250000" x="493.750000" y="109.193138" fill="rgb(255, 165, 0)" style="fill-opacity:1.00" />
<!-- End 'G' -->
<!-- Begin 'A' -->
<polygon points=" 510.000000, 99.685793, 531.000000, 65.461497, 539.000000, 65.461497, 560.000000, 99.685793, 552.500000, 99.685793, 546.250000, 91.129719, 523.750000, 91.129719, 517.500000, 99.685793" fill="rgb(178, 34, 34)" style="fill-opacity:1.00" />
<polygon points=" 535.000000, 72.306356, 527.000000, 84.996075, 542.000000, 84.996075" fill="rgb(255, 255, 255)" style="fill-opacity:1.00" />
<!-- End 'A' -->
<!-- Begin 'T' -->
<rect height="0.936774" width="50.000000" x="510.000000" y="99.685793" fill="rgb(0, 100, 0)" style="fill-opacity:1.00" />
<rect height="5.854840" width="10.000000" x="530.000000" y="99.685793" fill="rgb(0, 100, 0)" style="fill-opacity:1.00" />
<!-- End 'T' -->
<!-- Begin 'G' -->
<ellipse cx="535.000000" cy="106.708090" rx="25.000000" ry="1.167457" fill="rgb(255, 165, 0)" style="fill-opacity:1.00" />
<ellipse cx="535.000000" cy="106.708090" rx="16.666667" ry="0.778305" fill="rgb(255, 255, 255)" style="fill-opacity:1.00" />
<rect height="1.167457" width="25.000000" x="535.000000" y="106.124362" fill="rgb(255, 255, 255)" style="fill-opacity:1.00" />
<rect height="0.291864" width="25.000000" x="535.000000" y="106.999954" fill="rgb(255, 165, 0)" style="fill-opacity:1.00" />
<rect height="0.875593" width="6.250000" x="553.750000" y="106.999954" fill="rgb(255, 165, 0)" style="fill-opacity:1.00" />
<!-- End 'G' -->
<!-- Begin 'C' -->
<ellipse cx="535.000000" cy="108.937774" rx="25.000000" ry="1.062226" fill="rgb(0, 0, 128)" style="fill-opacity:1.00" />
<ellipse cx="535.000000" cy="108.937774" rx="16.666667" ry="0.708151" fill="rgb(255, 255, 255)" style="fill-opacity:1.00" />
<rect height="1.062226" width="25.000000" x="535.000000" y="108.406661" fill="rgb(255, 255, 255)" style="fill-opacity:1.00" />
<!-- End 'C' -->
<!-- Begin 'T' -->
<rect height="5.413472" width="50.000000" x="570.000000" y="65.816712" fill="rgb(0, 100, 0)" style="fill-opacity:1.00" />
<rect height="33.834197" width="10.000000" x="590.000000" y="65.816712" fill="rgb(0, 100, 0)" style="fill-opacity:1.00" />
<!-- End 'T' -->
<!-- Begin 'A' -->
<polygon points=" 570.000000, 105.540777, 591.000000, 99.650909, 599.000000, 99.650909, 620.000000, 105.540777, 612.500000, 105.540777, 606.250000, 104.068310, 583.750000, 104.068310, 577.500000, 105.540777" fill="rgb(178, 34, 34)" style="fill-opacity:1.00" />
<!-- End 'A' -->
<!-- Begin 'C' -->
<ellipse cx="595.000000" cy="106.779205" rx="25.000000" ry="1.238428" fill="rgb(0, 0, 128)" style="fill-opacity:1.00" />
<ellipse cx="595.000000" cy="106.779205" rx="16.666667" ry="0.825619" fill="rgb(255, 255, 255)" style="fill-opacity:1.00" />
<rect height="1.238428" width="25.000000" x="595.000000" y="106.159991" fill="rgb(255, 255, 255)" style="fill-opacity:1.00" />
<!-- End 'C' -->
<!-- Begin 'G' -->
<ellipse cx="595.000000" cy="109.008817" rx="25.000000" ry="0.991183" fill="rgb(255, 165, 0)" style="fill-opacity:1.00" />
<ellipse cx="595.000000" cy="109.008817" rx="16.666667" ry="0.660789" fill="rgb(255, 255, 255)" style="fill-opacity:1.00" />
<rect height="0.991183" width="25.000000" x="595.000000" y="108.513225" fill="rgb(255, 255, 255)" style="fill-opacity:1.00" />
<rect height="0.247796" width="25.000000" x="595.000000" y="109.256612" fill="rgb(255, 165, 0)" style="fill-opacity:1.00" />
<rect height="0.743388" width="6.250000" x="613.750000" y="109.256612" fill="rgb(255, 165, 0)" style="fill-opacity:1.00" />
<!-- End 'G' -->
<!-- Begin 'G' -->
<ellipse cx="655.000000" cy="108.670000" rx="25.000000" ry="0.275769" fill="rgb(255, 165, 0)" style="fill-opacity:1.00" />
<ellipse cx="655.000000" cy="108.670000" rx="16.666667" ry="0.183846" fill="rgb(255, 255, 255)" style="fill-opacity:1.00" />
<rect height="0.275769" width="25.000000" x="655.000000" y="108.532115" fill="rgb(255, 255, 255)" style="fill-opacity:1.00" />
<rect height="0.068942" width="25.000000" x="655.000000" y="108.738942" fill="rgb(255, 165, 0)" style="fill-opacity:1.00" />
<rect height="0.206827" width="6.250000" x="673.750000" y="108.738942" fill="rgb(255, 165, 0)" style="fill-opacity:1.00" />
<!-- End 'G' -->
<!-- Begin 'C' -->
<ellipse cx="655.000000" cy="109.130888" rx="25.000000" ry="0.185119" fill="rgb(0, 0, 128)" style="fill-opacity:1.00" />
<ellipse cx="655.000000" cy="109.130888" rx="16.666667" ry="0.123413" fill="rgb(255, 255, 255)" style="fill-opacity:1.00" />
<rect height="0.185119" width="25.000000" x="655.000000" y="109.038329" fill="rgb(255, 255, 255)" style="fill-opacity:1.00" />
<!-- End 'C' -->
<!-- Begin 'T' -->
<rect height="0.055781" width="50.000000" x="630.000000" y="109.316007" fill="rgb(0, 100, 0)" style="fill-opacity:1.00" />
<rect height="0.348628" width="10.000000" x="650.000000" y="109.316007" fill="rgb(0, 100, 0)" style="fill-opacity:1.00" />
<!-- End 'T' -->
<!-- Begin 'A' -->
<polygon points=" 630.000000, 110.000000, 651.000000, 109.664636, 659.000000, 109.664636, 680.000000, 110.000000, 672.500000, 110.000000, 666.250000, 109.916159, 643.750000, 109.916159, 637.500000, 110.000000" fill="rgb(178, 34, 34)" style="fill-opacity:1.00" />
<!-- End 'A' -->
<!-- Begin 'A' -->
<polygon points=" 690.000000, 99.638332, 711.000000, 66.352974, 719.000000, 66.352974, 740.000000, 99.638332, 732.500000, 99.638332, 726.250000, 91.316992, 703.750000, 91.316992, 697.500000, 99.638332" fill="rgb(178, 34, 34)" style="fill-opacity:1.00" />
<polygon points=" 715.000000, 73.010045, 707.000000, 85.324188, 722.000000, 85.324188" fill="rgb(255, 255, 255)" style="fill-opacity:1.00" />
<!-- End 'A' -->
<!-- Begin 'T' -->
<rect height="0.942045" width="50.000000" x="690.000000" y="99.638332" fill="rgb(0, 100, 0)" style="fill-opacity:1.00" />
<rect height="5.887781" width="10.000000" x="710.000000" y="99.638332" fill="rgb(0, 100, 0)" style="fill-opacity:1.00" />
<!-- End 'T' -->
<!-- Begin 'G' -->
<ellipse cx="715.000000" cy="106.718705" rx="25.000000" ry="1.192592" fill="rgb(255, 165, 0)" style="fill-opacity:1.00" />
<ellipse cx="715.000000" cy="106.718705" rx="16.666667" ry="0.795061" fill="rgb(255, 255, 255)" style="fill-opacity:1.00" />
<rect height="1.192592" width="25.000000" x="715.000000" y="106.122409" fill="rgb(255, 255, 255)" style="fill-opacity:1.00" />
<rect height="0.298148" width="25.000000" x="715.000000" y="107.016853" fill="rgb(255, 165, 0)" style="fill-opacity:1.00" />
<rect height="0.894444" width="6.250000" x="733.750000" y="107.016853" fill="rgb(255, 165, 0)" style="fill-opacity:1.00" />
<!-- End 'G' -->
<!-- Begin 'C' -->
<ellipse cx="715.000000" cy="108.955649" rx="25.000000" ry="1.044351" fill="rgb(0, 0, 128)" style="fill-opacity:1.00" />
<ellipse cx="715.000000" cy="108.955649" rx="16.666667" ry="0.696234" fill="rgb(255, 255, 255)" style="fill-opacity:1.00" />
<rect height="1.044351" width="25.000000" x="715.000000" y="108.433473" fill="rgb(255, 255, 255)" style="fill-opacity:1.00" />
<!-- End 'C' -->
<!-- Begin 'T' -->
<rect height="5.308361" width="50.000000" x="750.000000" y="66.516860" fill="rgb(0, 100, 0)" style="fill-opacity:1.00" />
<rect height="33.177257" width="10.000000" x="770.000000" y="66.516860" fill="rgb(0, 100, 0)" style="fill-opacity:1.00" />
<!-- End 'T' -->
<!-- Begin 'A' -->
<polygon points=" 750.000000, 105.412806, 771.000000, 99.694117, 779.000000, 99.694117, 800.000000, 105.412806, 792.500000, 105.412806, 786.250000, 103.983134, 763.750000, 103.983134, 757.500000, 105.412806" fill="rgb(178, 34, 34)" style="fill-opacity:1.00" />
<!-- End 'A' -->
<!-- Begin 'G' -->
<ellipse cx="775.000000" cy="106.607087" rx="25.000000" ry="1.194281" fill="rgb(255, 165, 0)" style="fill-opacity:1.00" />
<ellipse cx="775.000000" cy="106.607087" rx="16.666667" ry="0.796187" fill="rgb(255, 255, 255)" style="fill-opacity:1.00" />
<rect height="1.194281" width="25.000000" x="775.000000" y="106.009947" fill="rgb(255, 255, 255)" style="fill-opacity:1.00" />
<rect height="0.298570" width="25.000000" x="775.000000" y="106.905657" fill="rgb(255, 165, 0)" style="fill-opacity:1.00" />
<rect height="0.895710" width="6.250000" x="793.750000" y="106.905657" fill="rgb(255, 165, 0)" style="fill-opacity:1.00" />
<!-- End 'G' -->
<!-- Begin 'C' -->
<ellipse cx="775.000000" cy="108.900684" rx="25.000000" ry="1.099316" fill="rgb(0, 0, 128)" style="fill-opacity:1.00" />
<ellipse cx="775.000000" cy="108.900684" rx="16.666667" ry="0.732877" fill="rgb(255, 255, 255)" style="fill-opacity:1.00" />
<rect height="1.099316" width="25.000000" x="775.000000" y="108.351026" fill="rgb(255, 255, 255)" style="fill-opacity:1.00" />
<!-- End 'C' -->
<!-- Begin 'T' -->
<rect height="1.954887" width="50.000000" x="810.000000" y="89.516907" fill="rgb(0, 100, 0)" style="fill-opacity:1.00" />
<rect height="12.218042" width="10.000000" x="830.000000" y="89.516907" fill="rgb(0, 100, 0)" style="fill-opacity:1.00" />
<!-- End 'T' -->
<!-- Begin 'G' -->
<ellipse cx="835.000000" cy="103.444378" rx="25.000000" ry="1.709429" fill="rgb(255, 165, 0)" style="fill-opacity:1.00" />
<ellipse cx="835.000000" cy="103.444378" rx="16.666667" ry="1.139620" fill="rgb(255, 255, 255)" style="fill-opacity:1.00" />
<rect height="1.709429" width="25.000000" x="835.000000" y="102.589663" fill="rgb(255, 255, 255)" style="fill-opacity:1.00" />
<rect height="0.427357" width="25.000000" x="835.000000" y="103.871735" fill="rgb(255, 165, 0)" style="fill-opacity:1.00" />
<rect height="1.282072" width="6.250000" x="853.750000" y="103.871735" fill="rgb(255, 165, 0)" style="fill-opacity:1.00" />
<!-- End 'G' -->
<!-- Begin 'A' -->
<polygon points=" 810.000000, 108.266186, 831.000000, 105.153807, 839.000000, 105.153807, 860.000000, 108.266186, 852.500000, 108.266186, 846.250000, 107.488092, 823.750000, 107.488092, 817.500000, 108.266186" fill="rgb(178, 34, 34)" style="fill-opacity:1.00" />
<!-- End 'A' -->
<!-- Begin 'C' -->
<ellipse cx="835.000000" cy="109.133093" rx="25.000000" ry="0.866907" fill="rgb(0, 0, 128)" style="fill-opacity:1.00" />
<ellipse cx="835.000000" cy="109.133093" rx="16.666667" ry="0.577938" fill="rgb(255, 255, 255)" style="fill-opacity:1.00" />
<rect height="0.866907" width="25.000000" x="835.000000" y="108.699640" fill="rgb(255, 255, 255)" style="fill-opacity:1.00" />
<!-- End 'C' -->
<!-- Begin 'A' -->
<polygon points=" 870.000000, 101.819899, 891.000000, 91.323459, 899.000000, 91.323459, 920.000000, 101.819899, 912.500000, 101.819899, 906.250000, 99.195789, 883.750000, 99.195789, 877.500000, 101.819899" fill="rgb(178, 34, 34)" style="fill-opacity:1.00" />
<polygon points=" 895.000000, 93.422747, 887.000000, 96.621323, 902.000000, 96.621323" fill="rgb(255, 255, 255)" style="fill-opacity:1.00" />
<!-- End 'A' -->
<!-- Begin 'T' -->
<rect height="0.587226" width="50.000000" x="870.000000" y="101.819899" fill="rgb(0, 100, 0)" style="fill-opacity:1.00" />
<rect height="3.670164" width="10.000000" x="890.000000" y="101.819899" fill="rgb(0, 100, 0)" style="fill-opacity:1.00" />
<!-- End 'T' -->
<!-- Begin 'G' -->
<ellipse cx="895.000000" cy="107.137829" rx="25.000000" ry="1.647767" fill="rgb(255, 165, 0)" style="fill-opacity:1.00" />
<ellipse cx="895.000000" cy="107.137829" rx="16.666667" ry="1.098511" fill="rgb(255, 255, 255)" style="fill-opacity:1.00" />
<rect height="1.647767" width="25.000000" x="895.000000" y="106.313946" fill="rgb(255, 255, 255)" style="fill-opacity:1.00" />
<rect height="0.411942" width="25.000000" x="895.000000" y="107.549771" fill="rgb(255, 165, 0)" style="fill-opacity:1.00" />
<rect height="1.235825" width="6.250000" x="913.750000" y="107.549771" fill="rgb(255, 165, 0)" style="fill-opacity:1.00" />
<!-- End 'G' -->
<!-- Begin 'C' -->
<ellipse cx="895.000000" cy="109.392798" rx="25.000000" ry="0.607202" fill="rgb(0, 0, 128)" style="fill-opacity:1.00" />
<ellipse cx="895.000000" cy="109.392798" rx="16.666667" ry="0.404801" fill="rgb(255, 255, 255)" style="fill-opacity:1.00" />
<rect height="0.607202" width="25.000000" x="895.000000" y="109.089197" fill="rgb(255, 255, 255)" style="fill-opacity:1.00" />
<!-- End 'C' -->
<!-- Begin 'T' -->
<rect height="0.154941" width="50.000000" x="930.000000" y="107.062660" fill="rgb(0, 100, 0)" style="fill-opacity:1.00" />
<rect height="0.968383" width="10.000000" x="950.000000" y="107.062660" fill="rgb(0, 100, 0)" style="fill-opacity:1.00" />
<!-- End 'T' -->
<!-- Begin 'C' -->
<ellipse cx="955.000000" cy="108.424525" rx="25.000000" ry="0.393482" fill="rgb(0, 0, 128)" style="fill-opacity:1.00" />
<ellipse cx="955.000000" cy="108.424525" rx="16.666667" ry="0.262322" fill="rgb(255, 255, 255)" style="fill-opacity:1.00" />
<rect height="0.393482" width="25.000000" x="955.000000" y="108.227784" fill="rgb(255, 255, 255)" style="fill-opacity:1.00" />
<!-- End 'C' -->
<!-- Begin 'A' -->
<polygon points=" 930.000000, 109.586110, 951.000000, 108.818008, 959.000000, 108.818008, 980.000000, 109.586110, 972.500000, 109.586110, 966.250000, 109.394084, 943.750000, 109.394084, 937.500000, 109.586110" fill="rgb(178, 34, 34)" style="fill-opacity:1.00" />
<!-- End 'A' -->
<!-- Begin 'G' -->
<ellipse cx="955.000000" cy="109.793055" rx="25.000000" ry="0.206945" fill="rgb(255, 165, 0)" style="fill-opacity:1.00" />
<ellipse cx="955.000000" cy="109.793055" rx="16.666667" ry="0.137963" fill="rgb(255, 255, 255)" style="fill-opacity:1.00" />
<rect height="0.206945" width="25.000000" x="955.000000" y="109.689582" fill="rgb(255, 255, 255)" style="fill-opacity:1.00" />
<rect height="0.051736" width="25.000000" x="955.000000" y="109.844791" fill="rgb(255, 165, 0)" style="fill-opacity:1.00" />
<rect height="0.155209" width="6.250000" x="973.750000" y="109.844791" fill="rgb(255, 165, 0)" style="fill-opacity:1.00" />
<!-- End 'G' -->
<!-- Begin 'T' -->
<rect height="0.511264" width="50.000000" x="990.000000" y="101.483023" fill="rgb(0, 100, 0)" style="fill-opacity:1.00" />
<rect height="3.195399" width="10.000000" x="1010.000000" y="101.483023" fill="rgb(0, 100, 0)" style="fill-opacity:1.00" />
<!-- End 'T' -->
<!-- Begin 'A' -->
<polygon points=" 990.000000, 107.759035, 1011.000000, 104.678422, 1019.000000, 104.678422, 1040.000000, 107.759035, 1032.500000, 107.759035, 1026.250000, 106.988882, 1003.750000, 106.988882, 997.500000, 107.759035" fill="rgb(178, 34, 34)" style="fill-opacity:1.00" />
<!-- End 'A' -->
<!-- Begin 'G' -->
<ellipse cx="1015.000000" cy="108.370292" rx="25.000000" ry="0.611257" fill="rgb(255, 165, 0)" style="fill-opacity:1.00" />
<ellipse cx="1015.000000" cy="108.370292" rx="16.666667" ry="0.407505" fill="rgb(255, 255, 255)" style="fill-opacity:1.00" />
<rect height="0.611257" width="25.000000" x="1015.000000" y="108.064663" fill="rgb(255, 255, 255)" style="fill-opacity:1.00" />
<rect height="0.152814" width="25.000000" x="1015.000000" y="108.523106" fill="rgb(255, 165, 0)" style="fill-opacity:1.00" />
<rect height="0.458443" width="6.250000" x="1033.750000" y="108.523106" fill="rgb(255, 165, 0)" style="fill-opacity:1.00" />
<!-- End 'G' -->
<!-- Begin 'C' -->
<ellipse cx="1015.000000" cy="109.490775" rx="25.000000" ry="0.509225" fill="rgb(0, 0, 128)" style="fill-opacity:1.00" />
<ellipse cx="1015.000000" cy="109.490775" rx="16.666667" ry="0.339484" fill="rgb(255, 255, 255)" style="fill-opacity:1.00" />
<rect height="0.509225" width="25.000000" x="1015.000000" y="109.236162" fill="rgb(255, 255, 255)" style="fill-opacity:1.00" />
<!-- End 'C' -->
<!-- Begin 'T' -->
<rect height="0.647226" width="50.000000" x="1050.000000" y="99.961193" fill="rgb(0, 100, 0)" style="fill-opacity:1.00" />
<rect height="4.045160" width="10.000000" x="1070.000000" y="99.961193" fill="rgb(0, 100, 0)" style="fill-opacity:1.00" />
<!-- End 'T' -->
<!-- Begin 'A' -->
<polygon points=" 1050.000000, 107.500805, 1071.000000, 104.006352, 1079.000000, 104.006352, 1100.000000, 107.500805, 1092.500000, 107.500805, 1086.250000, 106.627192, 1063.750000, 106.627192, 1057.500000, 107.500805" fill="rgb(178, 34, 34)" style="fill-opacity:1.00" />
<!-- End 'A' -->
<!-- Begin 'C' -->
<ellipse cx="1075.000000" cy="108.252827" rx="25.000000" ry="0.752022" fill="rgb(0, 0, 128)" style="fill-opacity:1.00" />
<ellipse cx="1075.000000" cy="108.252827" rx="16.666667" ry="0.501348" fill="rgb(255, 255, 255)" style="fill-opacity:1.00" />
<rect height="0.752022" width="25.000000" x="1075.000000" y="107.876816" fill="rgb(255, 255, 255)" style="fill-opacity:1.00" />
<!-- End 'C' -->
<!-- Begin 'G' -->
<ellipse cx="1075.000000" cy="109.502424" rx="25.000000" ry="0.497576" fill="rgb(255, 165, 0)" style="fill-opacity:1.00" />
<ellipse cx="1075.000000" cy="109.502424" rx="16.666667" ry="0.331717" fill="rgb(255, 255, 255)" style="fill-opacity:1.00" />
<rect height="0.497576" width="25.000000" x="1075.000000" y="109.253637" fill="rgb(255, 255, 255)" style="fill-opacity:1.00" />
<rect height="0.124394" width="25.000000" x="1075.000000" y="109.626818" fill="rgb(255, 165, 0)" style="fill-opacity:1.00" />
<rect height="0.373182" width="6.250000" x="1093.750000" y="109.626818" fill="rgb(255, 165, 0)" style="fill-opacity:1.00" />
<!-- End 'G' -->
<!-- Begin 'T' -->
<rect height="0.560722" width="50.000000" x="1110.000000" y="101.891415" fill="rgb(0, 100, 0)" style="fill-opacity:1.00" />
<rect height="3.504513" width="10.000000" x="1130.000000" y="101.891415" fill="rgb(0, 100, 0)" style="fill-opacity:1.00" />
<!-- End 'T' -->
<!-- Begin 'A' -->
<polygon points=" 1110.000000, 107.702492, 1131.000000, 105.395928, 1139.000000, 105.395928, 1160.000000, 107.702492, 1152.500000, 107.702492, 1146.250000, 107.125851, 1123.750000, 107.125851, 1117.500000, 107.702492" fill="rgb(178, 34, 34)" style="fill-opacity:1.00" />
<!-- End 'A' -->
<!-- Begin 'G' -->
<ellipse cx="1135.000000" cy="108.280763" rx="25.000000" ry="0.578271" fill="rgb(255, 165, 0)" style="fill-opacity:1.00" />
<ellipse cx="1135.000000" cy="108.280763" rx="16.666667" ry="0.385514" fill="rgb(255, 255, 255)" style="fill-opacity:1.00" />
<rect height="0.578271" width="25.000000" x="1135.000000" y="107.991628" fill="rgb(255, 255, 255)" style="fill-opacity:1.00" />
<rect height="0.144568" width="25.000000" x="1135.000000" y="108.425331" fill="rgb(255, 165, 0)" style="fill-opacity:1.00" />
<rect height="0.433703" width="6.250000" x="1153.750000" y="108.425331" fill="rgb(255, 165, 0)" style="fill-opacity:1.00" />
<!-- End 'G' -->
<!-- Begin 'C' -->
<ellipse cx="1135.000000" cy="109.429517" rx="25.000000" ry="0.570483" fill="rgb(0, 0, 128)" style="fill-opacity:1.00" />
<ellipse cx="1135.000000" cy="109.429517" rx="16.666667" ry="0.380322" fill="rgb(255, 255, 255)" style="fill-opacity:1.00" />
<rect height="0.570483" width="25.000000" x="1135.000000" y="109.144275" fill="rgb(255, 255, 255)" style="fill-opacity:1.00" />
<!-- End 'C' -->
<!-- Begin 'T' -->
<rect height="0.213563" width="50.000000" x="1170.000000" y="106.105086" fill="rgb(0, 100, 0)" style="fill-opacity:1.00" />
<rect height="1.334771" width="10.000000" x="1190.000000" y="106.105086" fill="rgb(0, 100, 0)" style="fill-opacity:1.00" />
<!-- End 'T' -->
<!-- Begin 'A' -->
<polygon points=" 1170.000000, 108.682864, 1191.000000, 107.439858, 1199.000000, 107.439858, 1220.000000, 108.682864, 1212.500000, 108.682864, 1206.250000, 108.372113, 1183.750000, 108.372113, 1177.500000, 108.682864" fill="rgb(178, 34, 34)" style="fill-opacity:1.00" />
<!-- End 'A' -->
<!-- Begin 'C' -->
<ellipse cx="1195.000000" cy="109.024586" rx="25.000000" ry="0.341721" fill="rgb(0, 0, 128)" style="fill-opacity:1.00" />
<ellipse cx="1195.000000" cy="109.024586" rx="16.666667" ry="0.227814" fill="rgb(255, 255, 255)" style="fill-opacity:1.00" />
<rect height="0.341721" width="25.000000" x="1195.000000" y="108.853725" fill="rgb(255, 255, 255)" style="fill-opacity:1.00" />
<!-- End 'C' -->
<!-- Begin 'G' -->
<ellipse cx="1195.000000" cy="109.683154" rx="25.000000" ry="0.316846" fill="rgb(255, 165, 0)" style="fill-opacity:1.00" />
<ellipse cx="1195.000000" cy="109.683154" rx="16.666667" ry="0.211231" fill="rgb(255, 255, 255)" style="fill-opacity:1.00" />
<rect height="0.316846" width="25.000000" x="1195.000000" y="109.524730" fill="rgb(255, 255, 255)" style="fill-opacity:1.00" />
<rect height="0.079212" width="25.000000" x="1195.000000" y="109.762365" fill="rgb(255, 165, 0)" style="fill-opacity:1.00" />
<rect height="0.237635" width="6.250000" x="1213.750000" y="109.762365" fill="rgb(255, 165, 0)" style="fill-opacity:1.00" />
<!-- End 'G' -->
<text x="640.000000" y="165">
IC = 6.55
</text>

</svg>
