<?xml version="1.0" encoding="UTF-8" standalone="yes"?>
                 <!DOCTYPE svg PUBLIC "-//W3C//DTD SVG 1.0//EN" "http://www.w3.org/TR/2001/REC-SVG-20010904/DTD/svg10.dtd">
                 <svg height="170" width="1320" xmlns="http://www.w3.org/2000/svg" xmlns:xlink="http://www.w3.org/1999/xlink">
                 <line x1="85" y1="120" x2="1287" y2="120" style="stroke:rgb(99,99,99);stroke-width:2" />
<rect height="7.000000" width="2.000000" x="85.000000" y="120.000000" fill="rgb(0, 0, 0)" style="fill-opacity:1.00" />
<text x="107.000000" y="140">
1
</text>
<rect height="7.000000" width="2.000000" x="145.000000" y="120.000000" fill="rgb(0, 0, 0)" style="fill-opacity:1.00" />
<text x="167.000000" y="140">
2
</text>
<rect height="7.000000" width="2.000000" x="205.000000" y="120.000000" fill="rgb(0, 0, 0)" style="fill-opacity:1.00" />
<text x="227.000000" y="140">
3
</text>
<rect height="7.000000" width="2.000000" x="265.000000" y="120.000000" fill="rgb(0, 0, 0)" style="fill-opacity:1.00" />
<text x="287.000000" y="140">
4
</text>
<rect height="7.000000" width="2.000000" x="325.000000" y="120.000000" fill="rgb(0, 0, 0)" style="fill-opacity:1.00" />
<text x="347.000000" y="140">
5
</text>
<rect height="7.000000" width="2.000000" x="385.000000" y="120.000000" fill="rgb(0, 0, 0)" style="fill-opacity:1.00" />
<text x="407.000000" y="140">
6
</text>
<rect height="7.000000" width="2.000000" x="445.000000" y="120.000000" fill="rgb(0, 0, 0)" style="fill-opacity:1.00" />
<text x="467.000000" y="140">
7
</text>
<rect height="7.000000" width="2.000000" x="505.000000" y="120.000000" fill="rgb(0, 0, 0)" style="fill-opacity:1.00" />
<text x="527.000000" y="140">
8
</text>
<rect height="7.000000" width="2.000000" x="565.000000" y="120.000000" fill="rgb(0, 0, 0)" style="fill-opacity:1.00" />
<text x="587.000000" y="140">
9
</text>
<rect height="7.000000" width="2.000000" x="625.000000" y="120.000000" fill="rgb(0, 0, 0)" style="fill-opacity:1.00" />
<text x="647.000000" y="140">
10
</text>
<rect height="7.000000" width="2.000000" x="685.000000" y="120.000000" fill="rgb(0, 0, 0)" style="fill-opacity:1.00" />
<text x="707.000000" y="140">
11
</text>
<rect height="7.000000" width="2.000000" x="745.000000" y="120.000000" fill="rgb(0, 0, 0)" style="fill-opacity:1.00" />
<text x="767.000000" y="140">
12
</text>
<rect height="7.000000" width="2.000000" x="805.000000" y="120.000000" fill="rgb(0, 0, 0)" style="fill-opacity:1.00" />
<text x="827.000000" y="140">
13
</text>
<rect height="7.000000" width="2.000000" x="865.000000" y="120.000000" fill="rgb(0, 0, 0)" style="fill-opacity:1.00" />
<text x="887.000000" y="140">
14
</text>
<rect height="7.000000" width="2.000000" x="925.000000" y="120.000000" fill="rgb(0, 0, 0)" style="fill-opacity:1.00" />
<text x="947.000000" y="140">
15
</text>
<rect height="7.000000" width="2.000000" x="985.000000" y="120.000000" fill="rgb(0, 0, 0)" style="fill-opacity:1.00" />
<text x="1007.000000" y="140">
16
</text>
<rect height="7.000000" width="2.000000" x="1045.000000" y="120.000000" fill="rgb(0, 0, 0)" style="fill-opacity:1.00" />
<text x="1067.000000" y="140">
17
</text>
<rect height="7.000000" width="2.000000" x="1105.000000" y="120.000000" fill="rgb(0, 0, 0)" style="fill-opacity:1.00" />
<text x="1127.000000" y="140">
18
</text>
<rect height="7.000000" width="2.000000" x="1165.000000" y="120.000000" fill="rgb(0, 0, 0)" style="fill-opacity:1.00" />
<text x="1187.000000" y="140">
19
</text>
<rect height="7.000000" width="2.000000" x="1225.000000" y="120.000000" fill="rgb(0, 0, 0)" style="fill-opacity:1.00" />
<text x="1247.000000" y="140">
20
</text>
<rect height="7.000000" width="2.000000" x="1285.000000" y="120.000000" fill="rgb(0, 0, 0)" style="fill-opacity:1.00" />
<line x1="80" y1="112" x2="80" y2="10" style="stroke:rgb(99,99,99);stroke-width:2" />
<rect height="2.000000" width="7.000000" x="73.000000" y="110.000000" fill="rgb(0, 0, 0)" style="fill-opacity:1.00" />
<text x="63" y="115">
0
</text>
<rect height="2.000000" width="7.000000" x="73.000000" y="60.000000" fill="rgb(0, 0, 0)" style="fill-opacity:1.00" />
<text x="63" y="65">
1
</text>
<rect height="2.000000" width="7.000000" x="73.000000" y="10.000000" fill="rgb(0, 0, 0)" style="fill-opacity:1.00" />
<text x="63" y="15">
2
</text>
<text x="50" y="65"
transform="rotate(-90, 50, 70)">
bits
</text>
<!-- Begin 'T' -->
<rect height="0.017705" width="50.000000" x="90.000000" y="109.607165" fill="rgb(0, 100, 0)" style="fill-opacity:1.00" />
<rect height="0.110653" width="10.000000" x="110.000000" y="109.607165" fill="rgb(0, 100, 0)" style="fill-opacity:1.00" />
<!-- End 'T' -->
<!-- Begin 'C' -->
<ellipse cx="115.000000" cy="109.770094" rx="25.000000" ry="0.052276" fill="rgb(0, 0, 128)" style="fill-opacity:1.00" />
<ellipse cx="115.000000" cy="109.770094" rx="16.666667" ry="0.034851" fill="rgb(255, 255, 255)" style="fill-opacity:1.00" />
<rect height="0.052276" width="25.000000" x="115.000000" y="109.743956" fill="rgb(255, 255, 255)" style="fill-opacity:1.00" />
<!-- End 'C' -->
<!-- Begin 'G' -->
<ellipse cx="115.000000" cy="109.869147" rx="25.000000" ry="0.046778" fill="rgb(255, 165, 0)" style="fill-opacity:1.00" />
<ellipse cx="115.000000" cy="109.869147" rx="16.666667" ry="0.031185" fill="rgb(255, 255, 255)" style="fill-opacity:1.00" />
<rect height="0.046778" width="25.000000" x="115.000000" y="109.845758" fill="rgb(255, 255, 255)" style="fill-opacity:1.00" />
<rect height="0.011694" width="25.000000" x="115.000000" y="109.880842" fill="rgb(255, 165, 0)" style="fill-opacity:1.00" />
<rect height="0.035083" width="6.250000" x="133.750000" y="109.880842" fill="rgb(255, 165, 0)" style="fill-opacity:1.00" />
<!-- End 'G' -->
<!-- Begin 'A' -->
<polygon points=" 90.000000, 110.000000, 111.000000, 109.915925, 119.000000, 109.915925, 140.000000, 110.000000, 132.500000, 110.000000, 126.250000, 109.978981, 103.750000, 109.978981, 97.500000, 110.000000" fill="rgb(178, 34, 34)" style="fill-opacity:1.00" />
<!-- End 'A' -->
<!-- Begin 'C' -->
<ellipse cx="175.000000" cy="92.089478" rx="25.000000" ry="7.529361" fill="rgb(0, 0, 128)" style="fill-opacity:1.00" />
<ellipse cx="175.000000" cy="92.089478" rx="16.666667" ry="5.019574" fill="rgb(255, 255, 255)" style="fill-opacity:1.00" />
<rect height="7.529361" width="25.000000" x="175.000000" y="88.324797" fill="rgb(255, 255, 255)" style="fill-opacity:1.00" />
<!-- End 'C' -->
<!-- Begin 'T' -->
<rect height="1.086409" width="50.000000" x="150.000000" y="99.618839" fill="rgb(0, 100, 0)" style="fill-opacity:1.00" />
<rect height="6.790057" width="10.000000" x="170.000000" y="99.618839" fill="rgb(0, 100, 0)" style="fill-opacity:1.00" />
<!-- End 'T' -->
<!-- Begin 'G' -->
<ellipse cx="175.000000" cy="107.506501" rx="25.000000" ry="1.097606" fill="rgb(255, 165, 0)" style="fill-opacity:1.00" />
<ellipse cx="175.000000" cy="107.506501" rx="16.666667" ry="0.731737" fill="rgb(255, 255, 255)" style="fill-opacity:1.00" />
<rect height="1.097606" width="25.000000" x="175.000000" y="106.957699" fill="rgb(255, 255, 255)" style="fill-opacity:1.00" />
<rect height="0.274401" width="25.000000" x="175.000000" y="107.780903" fill="rgb(255, 165, 0)" style="fill-opacity:1.00" />
<rect height="0.823204" width="6.250000" x="193.750000" y="107.780903" fill="rgb(255, 165, 0)" style="fill-opacity:1.00" />
<!-- End 'G' -->
<!-- Begin 'A' -->
<polygon points=" 150.000000, 110.000000, 171.000000, 108.604107, 179.000000, 108.604107, 200.000000, 110.000000, 192.500000, 110.000000, 186.250000, 109.651027, 163.750000, 109.651027, 157.500000, 110.000000" fill="rgb(178, 34, 34)" style="fill-opacity:1.00" />
<!-- End 'A' -->
<!-- Begin 'A' -->
<polygon points=" 210.000000, 98.364124, 231.000000, 88.111441, 239.000000, 88.111441, 260.000000, 98.364124, 252.500000, 98.364124, 246.250000, 95.800953, 223.750000, 95.800953, 217.500000, 98.364124" fill="rgb(178, 34, 34)" style="fill-opacity:1.00" />
<polygon points=" 235.000000, 90.161978, 227.000000, 93.263051, 242.000000, 93.263051" fill="rgb(255, 255, 255)" style="fill-opacity:1.00" />
<!-- End 'A' -->
<!-- Begin 'G' -->
<ellipse cx="235.000000" cy="102.600485" rx="25.000000" ry="4.236362" fill="rgb(255, 165, 0)" style="fill-opacity:1.00" />
<ellipse cx="235.000000" cy="102.600485" rx="16.666667" ry="2.824241" fill="rgb(255, 255, 255)" style="fill-opacity:1.00" />
<rect height="4.236362" width="25.000000" x="235.000000" y="100.482305" fill="rgb(255, 255, 255)" style="fill-opacity:1.00" />
<rect height="1.059090" width="25.000000" x="235.000000" y="103.659576" fill="rgb(255, 165, 0)" style="fill-opacity:1.00" />
<rect height="3.177271" width="6.250000" x="253.750000" y="103.659576" fill="rgb(255, 165, 0)" style="fill-opacity:1.00" />
<!-- End 'G' -->
<!-- Begin 'C' -->
<ellipse cx="235.000000" cy="108.028833" rx="25.000000" ry="1.191986" fill="rgb(0, 0, 128)" style="fill-opacity:1.00" />
<ellipse cx="235.000000" cy="108.028833" rx="16.666667" ry="0.794657" fill="rgb(255, 255, 255)" style="fill-opacity:1.00" />
<rect height="1.191986" width="25.000000" x="235.000000" y="107.432840" fill="rgb(255, 255, 255)" style="fill-opacity:1.00" />
<!-- End 'C' -->
<!-- Begin 'T' -->
<rect height="0.124669" width="50.000000" x="210.000000" y="109.220819" fill="rgb(0, 100, 0)" style="fill-opacity:1.00" />
<rect height="0.779181" width="10.000000" x="230.000000" y="109.220819" fill="rgb(0, 100, 0)" style="fill-opacity:1.00" />
<!-- End 'T' -->
<!-- Begin 'C' -->
<ellipse cx="295.000000" cy="68.175311" rx="25.000000" ry="36.313615" fill="rgb(0, 0, 128)" style="fill-opacity:1.00" />
<ellipse cx="295.000000" cy="68.175311" rx="16.666667" ry="24.209077" fill="rgb(255, 255, 255)" style="fill-opacity:1.00" />
<rect height="36.313615" width="25.000000" x="295.000000" y="50.018503" fill="rgb(255, 255, 255)" style="fill-opacity:1.00" />
<!-- End 'C' -->
<!-- Begin 'T' -->
<rect height="0.641944" width="50.000000" x="270.000000" y="104.488926" fill="rgb(0, 100, 0)" style="fill-opacity:1.00" />
<rect height="4.012153" width="10.000000" x="290.000000" y="104.488926" fill="rgb(0, 100, 0)" style="fill-opacity:1.00" />
<!-- End 'T' -->
<!-- Begin 'A' -->
<polygon points=" 270.000000, 109.829930, 291.000000, 108.501078, 299.000000, 108.501078, 320.000000, 109.829930, 312.500000, 109.829930, 306.250000, 109.497717, 283.750000, 109.497717, 277.500000, 109.829930" fill="rgb(178, 34, 34)" style="fill-opacity:1.00" />
<!-- End 'A' -->
<!-- Begin 'G' -->
<ellipse cx="295.000000" cy="109.914965" rx="25.000000" ry="0.085035" fill="rgb(255, 165, 0)" style="fill-opacity:1.00" />
<ellipse cx="295.000000" cy="109.914965" rx="16.666667" ry="0.056690" fill="rgb(255, 255, 255)" style="fill-opacity:1.00" />
<rect height="0.085035" width="25.000000" x="295.000000" y="109.872448" fill="rgb(255, 255, 255)" style="fill-opacity:1.00" />
<rect height="0.021259" width="25.000000" x="295.000000" y="109.936224" fill="rgb(255, 165, 0)" style="fill-opacity:1.00" />
<rect height="0.063776" width="6.250000" x="313.750000" y="109.936224" fill="rgb(255, 165, 0)" style="fill-opacity:1.00" />
<!-- End 'G' -->
<!-- Begin 'A' -->
<polygon points=" 330.000000, 104.552015, 351.000000, 33.185940, 359.000000, 33.185940, 380.000000, 104.552015, 372.500000, 104.552015, 366.250000, 86.710496, 343.750000, 86.710496, 337.500000, 104.552015" fill="rgb(178, 34, 34)" style="fill-opacity:1.00" />
<polygon points=" 355.000000, 47.459155, 347.000000, 75.005585, 362.000000, 75.005585" fill="rgb(255, 255, 255)" style="fill-opacity:1.00" />
<!-- End 'A' -->
<!-- Begin 'G' -->
<ellipse cx="355.000000" cy="105.972175" rx="25.000000" ry="1.420160" fill="rgb(255, 165, 0)" style="fill-opacity:1.00" />
<ellipse cx="355.000000" cy="105.972175" rx="16.666667" ry="0.946773" fill="rgb(255, 255, 255)" style="fill-opacity:1.00" />
<rect height="1.420160" width="25.000000" x="355.000000" y="105.262095" fill="rgb(255, 255, 255)" style="fill-opacity:1.00" />
<rect height="0.355040" width="25.000000" x="355.000000" y="106.327215" fill="rgb(255, 165, 0)" style="fill-opacity:1.00" />
<rect height="1.065120" width="6.250000" x="373.750000" y="106.327215" fill="rgb(255, 165, 0)" style="fill-opacity:1.00" />
<!-- End 'G' -->
<!-- Begin 'T' -->
<rect height="0.339637" width="50.000000" x="330.000000" y="107.392336" fill="rgb(0, 100, 0)" style="fill-opacity:1.00" />
<rect height="2.122730" width="10.000000" x="350.000000" y="107.392336" fill="rgb(0, 100, 0)" style="fill-opacity:1.00" />
<!-- End 'T' -->
<!-- Begin 'C' -->
<ellipse cx="355.000000" cy="109.757533" rx="25.000000" ry="0.242467" fill="rgb(0, 0, 128)" style="fill-opacity:1.00" />
<ellipse cx="355.000000" cy="109.757533" rx="16.666667" ry="0.161645" fill="rgb(255, 255, 255)" style="fill-opacity:1.00" />
<rect height="0.242467" width="25.000000" x="355.000000" y="109.636299" fill="rgb(255, 255, 255)" style="fill-opacity:1.00" />
<!-- End 'C' -->
<!-- Begin 'C' -->
<ellipse cx="415.000000" cy="61.459552" rx="25.000000" ry="47.682905" fill="rgb(0, 0, 128)" style="fill-opacity:1.00" />
<ellipse cx="415.000000" cy="61.459552" rx="16.666667" ry="31.788603" fill="rgb(255, 255, 255)" style="fill-opacity:1.00" />
<rect height="47.682905" width="25.000000" x="415.000000" y="37.618099" fill="rgb(255, 255, 255)" style="fill-opacity:1.00" />
<!-- End 'C' -->
<!-- Begin 'T' -->
<rect height="0.132620" width="50.000000" x="390.000000" y="109.142456" fill="rgb(0, 100, 0)" style="fill-opacity:1.00" />
<rect height="0.828878" width="10.000000" x="410.000000" y="109.142456" fill="rgb(0, 100, 0)" style="fill-opacity:1.00" />
<!-- End 'T' -->
<!-- Begin 'A' -->
<polygon points=" 390.000000, 109.996521, 411.000000, 109.971334, 419.000000, 109.971334, 440.000000, 109.996521, 432.500000, 109.996521, 426.250000, 109.990224, 403.750000, 109.990224, 397.500000, 109.996521" fill="rgb(178, 34, 34)" style="fill-opacity:1.00" />
<!-- End 'A' -->
<!-- Begin 'G' -->
<ellipse cx="415.000000" cy="109.998260" rx="25.000000" ry="0.001740" fill="rgb(255, 165, 0)" style="fill-opacity:1.00" />
<ellipse cx="415.000000" cy="109.998260" rx="16.666667" ry="0.001160" fill="rgb(255, 255, 255)" style="fill-opacity:1.00" />
<rect height="0.001740" width="25.000000" x="415.000000" y="109.997390" fill="rgb(255, 255, 255)" style="fill-opacity:1.00" />
<rect height="0.000435" width="25.000000" x="415.000000" y="109.998695" fill="rgb(255, 165, 0)" style="fill-opacity:1.00" />
<rect height="0.001305" width="6.250000" x="433.750000" y="109.998695" fill="rgb(255, 165, 0)" style="fill-opacity:1.00" />
<!-- End 'G' -->
<!-- Begin 'G' -->
<ellipse cx="475.000000" cy="60.705942" rx="25.000000" ry="48.946583" fill="rgb(255, 165, 0)" style="fill-opacity:1.00" />
<ellipse cx="475.000000" cy="60.705942" rx="16.666667" ry="32.631055" fill="rgb(255, 255, 255)" style="fill-opacity:1.00" />
<rect height="48.946583" width="25.000000" x="475.000000" y="36.232651" fill="rgb(255, 255, 255)" style="fill-opacity:1.00" />
<rect height="12.236646" width="25.000000" x="475.000000" y="72.942588" fill="rgb(255, 165, 0)" style="fill-opacity:1.00" />
<rect height="36.709937" width="6.250000" x="493.750000" y="72.942588" fill="rgb(255, 165, 0)" style="fill-opacity:1.00" />
<!-- End 'G' -->
<!-- Begin 'A' -->
<polygon points=" 450.000000, 109.978952, 471.000000, 109.652525, 479.000000, 109.652525, 500.000000, 109.978952, 492.500000, 109.978952, 486.250000, 109.897345, 463.750000, 109.897345, 457.500000, 109.978952" fill="rgb(178, 34, 34)" style="fill-opacity:1.00" />
<!-- End 'A' -->
<!-- Begin 'C' -->
<ellipse cx="475.000000" cy="109.988012" rx="25.000000" ry="0.009060" fill="rgb(0, 0, 128)" style="fill-opacity:1.00" />
<ellipse cx="475.000000" cy="109.988012" rx="16.666667" ry="0.006040" fill="rgb(255, 255, 255)" style="fill-opacity:1.00" />
<rect height="0.009060" width="25.000000" x="475.000000" y="109.983482" fill="rgb(255, 255, 255)" style="fill-opacity:1.00" />
<!-- End 'C' -->
<!-- Begin 'T' -->
<rect height="0.000469" width="50.000000" x="450.000000" y="109.997071" fill="rgb(0, 100, 0)" style="fill-opacity:1.00" />
<rect height="0.002929" width="10.000000" x="470.000000" y="109.997071" fill="rgb(0, 100, 0)" style="fill-opacity:1.00" />
<!-- End 'T' -->
<!-- Begin 'T' -->
<rect height="12.226479" width="50.000000" x="510.000000" y="29.166851" fill="rgb(0, 100, 0)" style="fill-opacity:1.00" />
<rect height="76.415493" width="10.000000" x="530.000000" y="29.166851" fill="rgb(0, 100, 0)" style="fill-opacity:1.00" />
<!-- End 'T' -->
<!-- Begin 'C' -->
<ellipse cx="535.000000" cy="106.775211" rx="25.000000" ry="1.192867" fill="rgb(0, 0, 128)" style="fill-opacity:1.00" />
<ellipse cx="535.000000" cy="106.775211" rx="16.666667" ry="0.795244" fill="rgb(255, 255, 255)" style="fill-opacity:1.00" />
<rect height="1.192867" width="25.000000" x="535.000000" y="106.178778" fill="rgb(255, 255, 255)" style="fill-opacity:1.00" />
<!-- End 'C' -->
<!-- Begin 'A' -->
<polygon points=" 510.000000, 109.321214, 531.000000, 107.968078, 539.000000, 107.968078, 560.000000, 109.321214, 552.500000, 109.321214, 546.250000, 108.982930, 523.750000, 108.982930, 517.500000, 109.321214" fill="rgb(178, 34, 34)" style="fill-opacity:1.00" />
<!-- End 'A' -->
<!-- Begin 'G' -->
<ellipse cx="535.000000" cy="109.660607" rx="25.000000" ry="0.339393" fill="rgb(255, 165, 0)" style="fill-opacity:1.00" />
<ellipse cx="535.000000" cy="109.660607" rx="16.666667" ry="0.226262" fill="rgb(255, 255, 255)" style="fill-opacity:1.00" />
<rect height="0.339393" width="25.000000" x="535.000000" y="109.490910" fill="rgb(255, 255, 255)" style="fill-opacity:1.00" />
<rect height="0.084848" width="25.000000" x="535.000000" y="109.745455" fill="rgb(255, 165, 0)" style="fill-opacity:1.00" />
<rect height="0.254545" width="6.250000" x="553.750000" y="109.745455" fill="rgb(255, 165, 0)" style="fill-opacity:1.00" />
<!-- End 'G' -->
<!-- Begin 'G' -->
<ellipse cx="595.000000" cy="67.973437" rx="25.000000" ry="37.099649" fill="rgb(255, 165, 0)" style="fill-opacity:1.00" />
<ellipse cx="595.000000" cy="67.973437" rx="16.666667" ry="24.733100" fill="rgb(255, 255, 255)" style="fill-opacity:1.00" />
<rect height="37.099649" width="25.000000" x="595.000000" y="49.423612" fill="rgb(255, 255, 255)" style="fill-opacity:1.00" />
<rect height="9.274912" width="25.000000" x="595.000000" y="77.248349" fill="rgb(255, 165, 0)" style="fill-opacity:1.00" />
<rect height="27.824737" width="6.250000" x="613.750000" y="77.248349" fill="rgb(255, 165, 0)" style="fill-opacity:1.00" />
<!-- End 'G' -->
<!-- Begin 'A' -->
<polygon points=" 570.000000, 108.024365, 591.000000, 105.073086, 599.000000, 105.073086, 620.000000, 108.024365, 612.500000, 108.024365, 606.250000, 107.286545, 583.750000, 107.286545, 577.500000, 108.024365" fill="rgb(178, 34, 34)" style="fill-opacity:1.00" />
<!-- End 'A' -->
<!-- Begin 'T' -->
<rect height="0.234228" width="50.000000" x="570.000000" y="108.024365" fill="rgb(0, 100, 0)" style="fill-opacity:1.00" />
<rect height="1.463923" width="10.000000" x="590.000000" y="108.024365" fill="rgb(0, 100, 0)" style="fill-opacity:1.00" />
<!-- End 'T' -->
<!-- Begin 'C' -->
<ellipse cx="595.000000" cy="109.744144" rx="25.000000" ry="0.255856" fill="rgb(0, 0, 128)" style="fill-opacity:1.00" />
<ellipse cx="595.000000" cy="109.744144" rx="16.666667" ry="0.170571" fill="rgb(255, 255, 255)" style="fill-opacity:1.00" />
<rect height="0.255856" width="25.000000" x="595.000000" y="109.616215" fill="rgb(255, 255, 255)" style="fill-opacity:1.00" />
<!-- End 'C' -->
<!-- Begin 'T' -->
<rect height="1.898738" width="50.000000" x="630.000000" y="86.466982" fill="rgb(0, 100, 0)" style="fill-opacity:1.00" />
<rect height="11.867113" width="10.000000" x="650.000000" y="86.466982" fill="rgb(0, 100, 0)" style="fill-opacity:1.00" />
<!-- End 'T' -->
<!-- Begin 'C' -->
<ellipse cx="655.000000" cy="102.583368" rx="25.000000" ry="4.249274" fill="rgb(0, 0, 128)" style="fill-opacity:1.00" />
<ellipse cx="655.000000" cy="102.583368" rx="16.666667" ry="2.832849" fill="rgb(255, 255, 255)" style="fill-opacity:1.00" />
<rect height="4.249274" width="25.000000" x="655.000000" y="100.458731" fill="rgb(255, 255, 255)" style="fill-opacity:1.00" />
<!-- End 'C' -->
<!-- Begin 'G' -->
<ellipse cx="655.000000" cy="108.005211" rx="25.000000" ry="1.172569" fill="rgb(255, 165, 0)" style="fill-opacity:1.00" />
<ellipse cx="655.000000" cy="108.005211" rx="16.666667" ry="0.781712" fill="rgb(255, 255, 255)" style="fill-opacity:1.00" />
<rect height="1.172569" width="25.000000" x="655.000000" y="107.418927" fill="rgb(255, 255, 255)" style="fill-opacity:1.00" />
<rect height="0.293142" width="25.000000" x="655.000000" y="108.298354" fill="rgb(255, 165, 0)" style="fill-opacity:1.00" />
<rect height="0.879427" width="6.250000" x="673.750000" y="108.298354" fill="rgb(255, 165, 0)" style="fill-opacity:1.00" />
<!-- End 'G' -->
<!-- Begin 'A' -->
<polygon points=" 630.000000, 110.000000, 651.000000, 109.177780, 659.000000, 109.177780, 680.000000, 110.000000, 672.500000, 110.000000, 666.250000, 109.794445, 643.750000, 109.794445, 637.500000, 110.000000" fill="rgb(178, 34, 34)" style="fill-opacity:1.00" />
<!-- End 'A' -->
<!-- Begin 'G' -->
<ellipse cx="715.000000" cy="94.981848" rx="25.000000" ry="6.196496" fill="rgb(255, 165, 0)" style="fill-opacity:1.00" />
<ellipse cx="715.000000" cy="94.981848" rx="16.666667" ry="4.130998" fill="rgb(255, 255, 255)" style="fill-opacity:1.00" />
<rect height="6.196496" width="25.000000" x="715.000000" y="91.883600" fill="rgb(255, 255, 255)" style="fill-opacity:1.00" />
<rect height="1.549124" width="25.000000" x="715.000000" y="96.530972" fill="rgb(255, 165, 0)" style="fill-opacity:1.00" />
<rect height="4.647372" width="6.250000" x="733.750000" y="96.530972" fill="rgb(255, 165, 0)" style="fill-opacity:1.00" />
<!-- End 'G' -->
<!-- Begin 'A' -->
<polygon points=" 690.000000, 106.037091, 711.000000, 101.178344, 719.000000, 101.178344, 740.000000, 106.037091, 732.500000, 106.037091, 726.250000, 104.822405, 703.750000, 104.822405, 697.500000, 106.037091" fill="rgb(178, 34, 34)" style="fill-opacity:1.00" />
<!-- End 'A' -->
<!-- Begin 'C' -->
<ellipse cx="715.000000" cy="107.182152" rx="25.000000" ry="1.145061" fill="rgb(0, 0, 128)" style="fill-opacity:1.00" />
<ellipse cx="715.000000" cy="107.182152" rx="16.666667" ry="0.763374" fill="rgb(255, 255, 255)" style="fill-opacity:1.00" />
<rect height="1.145061" width="25.000000" x="715.000000" y="106.609622" fill="rgb(255, 255, 255)" style="fill-opacity:1.00" />
<!-- End 'C' -->
<!-- Begin 'T' -->
<rect height="0.267646" width="50.000000" x="690.000000" y="108.327213" fill="rgb(0, 100, 0)" style="fill-opacity:1.00" />
<rect height="1.672787" width="10.000000" x="710.000000" y="108.327213" fill="rgb(0, 100, 0)" style="fill-opacity:1.00" />
<!-- End 'T' -->
<!-- Begin 'G' -->
<ellipse cx="775.000000" cy="109.558653" rx="25.000000" ry="0.073570" fill="rgb(255, 165, 0)" style="fill-opacity:1.00" />
<ellipse cx="775.000000" cy="109.558653" rx="16.666667" ry="0.049046" fill="rgb(255, 255, 255)" style="fill-opacity:1.00" />
<rect height="0.073570" width="25.000000" x="775.000000" y="109.521868" fill="rgb(255, 255, 255)" style="fill-opacity:1.00" />
<rect height="0.018392" width="25.000000" x="775.000000" y="109.577045" fill="rgb(255, 165, 0)" style="fill-opacity:1.00" />
<rect height="0.055177" width="6.250000" x="793.750000" y="109.577045" fill="rgb(255, 165, 0)" style="fill-opacity:1.00" />
<!-- End 'G' -->
<!-- Begin 'A' -->
<polygon points=" 750.000000, 109.772669, 771.000000, 109.632222, 779.000000, 109.632222, 800.000000, 109.772669, 792.500000, 109.772669, 786.250000, 109.737557, 763.750000, 109.737557, 757.500000, 109.772669" fill="rgb(178, 34, 34)" style="fill-opacity:1.00" />
<!-- End 'A' -->
<!-- Begin 'T' -->
<rect height="0.018619" width="50.000000" x="750.000000" y="109.772669" fill="rgb(0, 100, 0)" style="fill-opacity:1.00" />
<rect height="0.116366" width="10.000000" x="770.000000" y="109.772669" fill="rgb(0, 100, 0)" style="fill-opacity:1.00" />
<!-- End 'T' -->
<!-- Begin 'C' -->
<ellipse cx="775.000000" cy="109.944518" rx="25.000000" ry="0.055482" fill="rgb(0, 0, 128)" style="fill-opacity:1.00" />
<ellipse cx="775.000000" cy="109.944518" rx="16.666667" ry="0.036988" fill="rgb(255, 255, 255)" style="fill-opacity:1.00" />
<rect height="0.055482" width="25.000000" x="775.000000" y="109.916776" fill="rgb(255, 255, 255)" style="fill-opacity:1.00" />
<!-- End 'C' -->
<!-- Begin 'A' -->
<polygon points=" 810.000000, 109.274565, 831.000000, 108.944783, 839.000000, 108.944783, 860.000000, 109.274565, 852.500000, 109.274565, 846.250000, 109.192119, 823.750000, 109.192119, 817.500000, 109.274565" fill="rgb(178, 34, 34)" style="fill-opacity:1.00" />
<!-- End 'A' -->
<!-- Begin 'T' -->
<rect height="0.044927" width="50.000000" x="810.000000" y="109.274565" fill="rgb(0, 100, 0)" style="fill-opacity:1.00" />
<rect height="0.280791" width="10.000000" x="830.000000" y="109.274565" fill="rgb(0, 100, 0)" style="fill-opacity:1.00" />
<!-- End 'T' -->
<!-- Begin 'C' -->
<ellipse cx="835.000000" cy="109.671042" rx="25.000000" ry="0.115686" fill="rgb(0, 0, 128)" style="fill-opacity:1.00" />
<ellipse cx="835.000000" cy="109.671042" rx="16.666667" ry="0.077124" fill="rgb(255, 255, 255)" style="fill-opacity:1.00" />
<rect height="0.115686" width="25.000000" x="835.000000" y="109.613199" fill="rgb(255, 255, 255)" style="fill-opacity:1.00" />
<!-- End 'C' -->
<!-- Begin 'G' -->
<ellipse cx="835.000000" cy="109.893364" rx="25.000000" ry="0.106636" fill="rgb(255, 165, 0)" style="fill-opacity:1.00" />
<ellipse cx="835.000000" cy="109.893364" rx="16.666667" ry="0.071091" fill="rgb(255, 255, 255)" style="fill-opacity:1.00" />
<rect height="0.106636" width="25.000000" x="835.000000" y="109.840046" fill="rgb(255, 255, 255)" style="fill-opacity:1.00" />
<rect height="0.026659" width="25.000000" x="835.000000" y="109.920023" fill="rgb(255, 165, 0)" style="fill-opacity:1.00" />
<rect height="0.079977" width="6.250000" x="853.750000" y="109.920023" fill="rgb(255, 165, 0)" style="fill-opacity:1.00" />
<!-- End 'G' -->
<!-- Begin 'T' -->
<rect height="0.209123" width="50.000000" x="870.000000" y="106.585844" fill="rgb(0, 100, 0)" style="fill-opacity:1.00" />
<rect height="1.307018" width="10.000000" x="890.000000" y="106.585844" fill="rgb(0, 100, 0)" style="fill-opacity:1.00" />
<!-- End 'T' -->
<!-- Begin 'A' -->
<polygon points=" 870.000000, 108.688752, 891.000000, 107.892862, 899.000000, 107.892862, 920.000000, 108.688752, 912.500000, 108.688752, 906.250000, 108.489779, 883.750000, 108.489779, 877.500000, 108.688752" fill="rgb(178, 34, 34)" style="fill-opacity:1.00" />
<!-- End 'A' -->
<!-- Begin 'C' -->
<ellipse cx="895.000000" cy="109.048483" rx="25.000000" ry="0.359731" fill="rgb(0, 0, 128)" style="fill-opacity:1.00" />
<ellipse cx="895.000000" cy="109.048483" rx="16.666667" ry="0.239820" fill="rgb(255, 255, 255)" style="fill-opacity:1.00" />
<rect height="0.359731" width="25.000000" x="895.000000" y="108.868617" fill="rgb(255, 255, 255)" style="fill-opacity:1.00" />
<!-- End 'C' -->
<!-- Begin 'G' -->
<ellipse cx="895.000000" cy="109.704107" rx="25.000000" ry="0.295893" fill="rgb(255, 165, 0)" style="fill-opacity:1.00" />
<ellipse cx="895.000000" cy="109.704107" rx="16.666667" ry="0.197262" fill="rgb(255, 255, 255)" style="fill-opacity:1.00" />
<rect height="0.295893" width="25.000000" x="895.000000" y="109.556160" fill="rgb(255, 255, 255)" style="fill-opacity:1.00" />
<rect height="0.073973" width="25.000000" x="895.000000" y="109.778080" fill="rgb(255, 165, 0)" style="fill-opacity:1.00" />
<rect height="0.221920" width="6.250000" x="913.750000" y="109.778080" fill="rgb(255, 165, 0)" style="fill-opacity:1.00" />
<!-- End 'G' -->
<!-- Begin 'T' -->
<rect height="0.042796" width="50.000000" x="930.000000" y="109.156831" fill="rgb(0, 100, 0)" style="fill-opacity:1.00" />
<rect height="0.267475" width="10.000000" x="950.000000" y="109.156831" fill="rgb(0, 100, 0)" style="fill-opacity:1.00" />
<!-- End 'T' -->
<!-- Begin 'A' -->
<polygon points=" 930.000000, 109.620655, 951.000000, 109.424306, 959.000000, 109.424306, 980.000000, 109.620655, 972.500000, 109.620655, 966.250000, 109.571568, 943.750000, 109.571568, 937.500000, 109.620655" fill="rgb(178, 34, 34)" style="fill-opacity:1.00" />
<!-- End 'A' -->
<!-- Begin 'G' -->
<ellipse cx="955.000000" cy="109.718081" rx="25.000000" ry="0.097426" fill="rgb(255, 165, 0)" style="fill-opacity:1.00" />
<ellipse cx="955.000000" cy="109.718081" rx="16.666667" ry="0.064951" fill="rgb(255, 255, 255)" style="fill-opacity:1.00" />
<rect height="0.097426" width="25.000000" x="955.000000" y="109.669368" fill="rgb(255, 255, 255)" style="fill-opacity:1.00" />
<rect height="0.024357" width="25.000000" x="955.000000" y="109.742437" fill="rgb(255, 165, 0)" style="fill-opacity:1.00" />
<rect height="0.073070" width="6.250000" x="973.750000" y="109.742437" fill="rgb(255, 165, 0)" style="fill-opacity:1.00" />
<!-- End 'G' -->
<!-- Begin 'C' -->
<ellipse cx="955.000000" cy="109.907754" rx="25.000000" ry="0.092246" fill="rgb(0, 0, 128)" style="fill-opacity:1.00" />
<ellipse cx="955.000000" cy="109.907754" rx="16.666667" ry="0.061498" fill="rgb(255, 255, 255)" style="fill-opacity:1.00" />
<rect height="0.092246" width="25.000000" x="955.000000" y="109.861630" fill="rgb(255, 255, 255)" style="fill-opacity:1.00" />
<!-- End 'C' -->
<!-- Begin 'T' -->
<rect height="0.074122" width="50.000000" x="990.000000" y="108.537137" fill="rgb(0, 100, 0)" style="fill-opacity:1.00" />
<rect height="0.463260" width="10.000000" x="1010.000000" y="108.537137" fill="rgb(0, 100, 0)" style="fill-opacity:1.00" />
<!-- End 'T' -->
<!-- Begin 'A' -->
<polygon points=" 990.000000, 109.395608, 1011.000000, 109.000397, 1019.000000, 109.000397, 1040.000000, 109.395608, 1032.500000, 109.395608, 1026.250000, 109.296805, 1003.750000, 109.296805, 997.500000, 109.395608" fill="rgb(178, 34, 34)" style="fill-opacity:1.00" />
<!-- End 'A' -->
<!-- Begin 'C' -->
<ellipse cx="1015.000000" cy="109.565702" rx="25.000000" ry="0.170094" fill="rgb(0, 0, 128)" style="fill-opacity:1.00" />
<ellipse cx="1015.000000" cy="109.565702" rx="16.666667" ry="0.113396" fill="rgb(255, 255, 255)" style="fill-opacity:1.00" />
<rect height="0.170094" width="25.000000" x="1015.000000" y="109.480655" fill="rgb(255, 255, 255)" style="fill-opacity:1.00" />
<!-- End 'C' -->
<!-- Begin 'G' -->
<ellipse cx="1015.000000" cy="109.867898" rx="25.000000" ry="0.132102" fill="rgb(255, 165, 0)" style="fill-opacity:1.00" />
<ellipse cx="1015.000000" cy="109.867898" rx="16.666667" ry="0.088068" fill="rgb(255, 255, 255)" style="fill-opacity:1.00" />
<rect height="0.132102" width="25.000000" x="1015.000000" y="109.801847" fill="rgb(255, 255, 255)" style="fill-opacity:1.00" />
<rect height="0.033025" width="25.000000" x="1015.000000" y="109.900924" fill="rgb(255, 165, 0)" style="fill-opacity:1.00" />
<rect height="0.099076" width="6.250000" x="1033.750000" y="109.900924" fill="rgb(255, 165, 0)" style="fill-opacity:1.00" />
<!-- End 'G' -->
<!-- Begin 'A' -->
<polygon points=" 1050.000000, 109.475808, 1071.000000, 109.265323, 1079.000000, 109.265323, 1100.000000, 109.475808, 1092.500000, 109.475808, 1086.250000, 109.423187, 1063.750000, 109.423187, 1057.500000, 109.475808" fill="rgb(178, 34, 34)" style="fill-opacity:1.00" />
<!-- End 'A' -->
<!-- Begin 'T' -->
<rect height="0.033454" width="50.000000" x="1050.000000" y="109.475808" fill="rgb(0, 100, 0)" style="fill-opacity:1.00" />
<rect height="0.209090" width="10.000000" x="1070.000000" y="109.475808" fill="rgb(0, 100, 0)" style="fill-opacity:1.00" />
<!-- End 'T' -->
<!-- Begin 'G' -->
<ellipse cx="1075.000000" cy="109.764704" rx="25.000000" ry="0.079807" fill="rgb(255, 165, 0)" style="fill-opacity:1.00" />
<ellipse cx="1075.000000" cy="109.764704" rx="16.666667" ry="0.053205" fill="rgb(255, 255, 255)" style="fill-opacity:1.00" />
<rect height="0.079807" width="25.000000" x="1075.000000" y="109.724801" fill="rgb(255, 255, 255)" style="fill-opacity:1.00" />
<rect height="0.019952" width="25.000000" x="1075.000000" y="109.784656" fill="rgb(255, 165, 0)" style="fill-opacity:1.00" />
<rect height="0.059855" width="6.250000" x="1093.750000" y="109.784656" fill="rgb(255, 165, 0)" style="fill-opacity:1.00" />
<!-- End 'G' -->
<!-- Begin 'C' -->
<ellipse cx="1075.000000" cy="109.922256" rx="25.000000" ry="0.077744" fill="rgb(0, 0, 128)" style="fill-opacity:1.00" />
<ellipse cx="1075.000000" cy="109.922256" rx="16.666667" ry="0.051830" fill="rgb(255, 255, 255)" style="fill-opacity:1.00" />
<rect height="0.077744" width="25.000000" x="1075.000000" y="109.883383" fill="rgb(255, 255, 255)" style="fill-opacity:1.00" />
<!-- End 'C' -->
<!-- Begin 'T' -->
<rect height="0.037233" width="50.000000" x="1110.000000" y="109.239517" fill="rgb(0, 100, 0)" style="fill-opacity:1.00" />
<rect height="0.232708" width="10.000000" x="1130.000000" y="109.239517" fill="rgb(0, 100, 0)" style="fill-opacity:1.00" />
<!-- End 'T' -->
<!-- Begin 'A' -->
<polygon points=" 1110.000000, 109.664464, 1131.000000, 109.472224, 1139.000000, 109.472224, 1160.000000, 109.664464, 1152.500000, 109.664464, 1146.250000, 109.616404, 1123.750000, 109.616404, 1117.500000, 109.664464" fill="rgb(178, 34, 34)" style="fill-opacity:1.00" />
<!-- End 'A' -->
<!-- Begin 'G' -->
<ellipse cx="1135.000000" cy="109.754208" rx="25.000000" ry="0.089744" fill="rgb(255, 165, 0)" style="fill-opacity:1.00" />
<ellipse cx="1135.000000" cy="109.754208" rx="16.666667" ry="0.059829" fill="rgb(255, 255, 255)" style="fill-opacity:1.00" />
<rect height="0.089744" width="25.000000" x="1135.000000" y="109.709336" fill="rgb(255, 255, 255)" style="fill-opacity:1.00" />
<rect height="0.022436" width="25.000000" x="1135.000000" y="109.776643" fill="rgb(255, 165, 0)" style="fill-opacity:1.00" />
<rect height="0.067308" width="6.250000" x="1153.750000" y="109.776643" fill="rgb(255, 165, 0)" style="fill-opacity:1.00" />
<!-- End 'G' -->
<!-- Begin 'C' -->
<ellipse cx="1135.000000" cy="109.921976" rx="25.000000" ry="0.078024" fill="rgb(0, 0, 128)" style="fill-opacity:1.00" />
<ellipse cx="1135.000000" cy="109.921976" rx="16.666667" ry="0.052016" fill="rgb(255, 255, 255)" style="fill-opacity:1.00" />
<rect height="0.078024" width="25.000000" x="1135.000000" y="109.882963" fill="rgb(255, 255, 255)" style="fill-opacity:1.00" />
<!-- End 'C' -->
<!-- Begin 'T' -->
<rect height="0.042514" width="50.000000" x="1170.000000" y="109.122185" fill="rgb(0, 100, 0)" style="fill-opacity:1.00" />
<rect height="0.265711" width="10.000000" x="1190.000000" y="109.122185" fill="rgb(0, 100, 0)" style="fill-opacity:1.00" />
<!-- End 'T' -->
<!-- Begin 'A' -->
<polygon points=" 1170.000000, 109.624548, 1191.000000, 109.387896, 1199.000000, 109.387896, 1220.000000, 109.624548, 1212.500000, 109.624548, 1206.250000, 109.565385, 1183.750000, 109.565385, 1177.500000, 109.624548" fill="rgb(178, 34, 34)" style="fill-opacity:1.00" />
<!-- End 'A' -->
<!-- Begin 'C' -->
<ellipse cx="1195.000000" cy="109.723868" rx="25.000000" ry="0.099320" fill="rgb(0, 0, 128)" style="fill-opacity:1.00" />
<ellipse cx="1195.000000" cy="109.723868" rx="16.666667" ry="0.066213" fill="rgb(255, 255, 255)" style="fill-opacity:1.00" />
<rect height="0.099320" width="25.000000" x="1195.000000" y="109.674208" fill="rgb(255, 255, 255)" style="fill-opacity:1.00" />
<!-- End 'C' -->
<!-- Begin 'G' -->
<ellipse cx="1195.000000" cy="109.911594" rx="25.000000" ry="0.088406" fill="rgb(255, 165, 0)" style="fill-opacity:1.00" />
<ellipse cx="1195.000000" cy="109.911594" rx="16.666667" ry="0.058937" fill="rgb(255, 255, 255)" style="fill-opacity:1.00" />
<rect height="0.088406" width="25.000000" x="1195.000000" y="109.867391" fill="rgb(255, 255, 255)" style="fill-opacity:1.00" />
<rect height="0.022101" width="25.000000" x="1195.000000" y="109.933696" fill="rgb(255, 165, 0)" style="fill-opacity:1.00" />
<rect height="0.066304" width="6.250000" x="1213.750000" y="109.933696" fill="rgb(255, 165, 0)" style="fill-opacity:1.00" />
<!-- End 'G' -->
<!-- Begin 'T' -->
<rect height="0.074240" width="50.000000" x="1230.000000" y="108.593165" fill="rgb(0, 100, 0)" style="fill-opacity:1.00" />
<rect height="0.463998" width="10.000000" x="1250.000000" y="108.593165" fill="rgb(0, 100, 0)" style="fill-opacity:1.00" />
<!-- End 'T' -->
<!-- Begin 'A' -->
<polygon points=" 1230.000000, 109.413119, 1251.000000, 109.057163, 1259.000000, 109.057163, 1280.000000, 109.413119, 1272.500000, 109.413119, 1266.250000, 109.324130, 1243.750000, 109.324130, 1237.500000, 109.413119" fill="rgb(178, 34, 34)" style="fill-opacity:1.00" />
<!-- End 'A' -->
<!-- Begin 'C' -->
<ellipse cx="1255.000000" cy="109.567973" rx="25.000000" ry="0.154854" fill="rgb(0, 0, 128)" style="fill-opacity:1.00" />
<ellipse cx="1255.000000" cy="109.567973" rx="16.666667" ry="0.103236" fill="rgb(255, 255, 255)" style="fill-opacity:1.00" />
<rect height="0.154854" width="25.000000" x="1255.000000" y="109.490546" fill="rgb(255, 255, 255)" style="fill-opacity:1.00" />
<!-- End 'C' -->
<!-- Begin 'G' -->
<ellipse cx="1255.000000" cy="109.861414" rx="25.000000" ry="0.138586" fill="rgb(255, 165, 0)" style="fill-opacity:1.00" />
<ellipse cx="1255.000000" cy="109.861414" rx="16.666667" ry="0.092391" fill="rgb(255, 255, 255)" style="fill-opacity:1.00" />
<rect height="0.138586" width="25.000000" x="1255.000000" y="109.792121" fill="rgb(255, 255, 255)" style="fill-opacity:1.00" />
<rect height="0.034647" width="25.000000" x="1255.000000" y="109.896060" fill="rgb(255, 165, 0)" style="fill-opacity:1.00" />
<rect height="0.103940" width="6.250000" x="1273.750000" y="109.896060" fill="rgb(255, 165, 0)" style="fill-opacity:1.00" />
<!-- End 'G' -->
<text x="670.000000" y="165">
IC = 12.26
</text>

</svg>
